<svg xmlns="http://www.w3.org/2000/svg" xmlns:xlink="http://www.w3.org/1999/xlink" width="456.957" height="129" viewBox="0 0 456.957 129"><defs><linearGradient id="a" x1="0.5" x2="0.936" y2="0.718" gradientUnits="objectBoundingBox"><stop offset="0" stop-color="#07f"/><stop offset="1" stop-color="#f5f5f5"/></linearGradient></defs><g transform="translate(-72.521 -16)"><g transform="translate(143.266 16.047)"><path d="M23.636,118.053a8.97,8.97,0,0,1-2.514-7.541c.857-6.313,9.659-9.925,14.076-11.614,2.95-1.128,5.9-2.209,8.819-3.275A39.4,39.4,0,0,1,32.3,90.959a14,14,0,0,1-9.884.478C7.574,86.623,0,70.03,0,53.61S8.68,12.229,32.139,3.722,79.176,1.834,94.855,18.059s8.45,36.712,0,50.559c-11.227,18.4-41.475,29.074-57.813,33.515-2.74.744-10.841,2.849-11.73,7.541a6.2,6.2,0,0,0,2.514,5.865c3.7,2.6,9.22-2.118,13.493-4.379,6.526-3.463,35.963-25.922,49.347-27.868,6.775-.986,6.421,4.77,5.4,10.525-1,5.613-2.638,11.228,1.08,10.587,7.529-1.3,14.2-26.332,23.686-26.451,3.133.769,5.363,34.907-.031,34.907-2.143-.746-.589-14.694-6.083-14.658-7.045.049-17.777,17.955-24.049,14.791-10.684-5.388-2.724-25.34-11.68-21.555-15.428,6.52-38.348,28.3-50.543,28.3A6.923,6.923,0,0,1,23.636,118.053ZM48.08,89.141a15.759,15.759,0,0,0,10.962-.393c-4.394-.779-9.07-3.691-13.442-7.759-1.433,1.385-2.88,2.756-4.35,4.039A22.226,22.226,0,0,0,48.08,89.141ZM32.139,12.084C12.03,18.578,3.254,37.3,3.7,55.908c.417,17.315,13.635,36.876,25.75,33.254-5.987-4.066-10.73-9.186-12.423-13.33-3.047-7.455,12.767-10.591,14.154-7.17.937,2.313,3.055,8.879,7.895,14.229,1.529-1.294,2.987-2.64,4.394-4C33.058,68.078,25.027,51.3,27.913,42.824c4.51-13.234,22.893,1.75,20.491,5.908-1.311,2.27-2.158,13.9,2.87,22.4,3.678-3.573,7.26-6.607,11.213-8.18,4.629-1.842,14.7-2.931,17.674-.776s-4.159,8.446-5.776,9.4c-1.317.774-1.935-.465-3.2-1.7-1.641-1.6-4.369-3.2-11.1-.459a26.831,26.831,0,0,0-6.88,4.457c4.616,5.492,12.585,8.643,25.913,4.81q.524-.454,1.019-.844a38.729,38.729,0,0,0,5.5-5.864c7.862-10.427,9.947-25.094,5.026-36.029-6.912-15.361-27.7-25.7-46.03-25.7A40.769,40.769,0,0,0,32.139,12.084Z" transform="translate(0 0)" fill="url(#a)"/></g><path d="M-.018-13.126H1.064v7.073H8.033v-7.073H9.115V2.1H8.033V-4.95H1.064V2.1H-.018Zm22.78,4.556a5.346,5.346,0,0,1,2.122.426,5.464,5.464,0,0,1,1.737,1.165,5.464,5.464,0,0,1,1.165,1.737,5.346,5.346,0,0,1,.426,2.122v5.2h-1.1V.147a5.218,5.218,0,0,1-1.862,1.581,5.36,5.36,0,0,1-2.486.583,5.271,5.271,0,0,1-2.112-.426A5.5,5.5,0,0,1,18.924.719a5.5,5.5,0,0,1-1.165-1.727,5.271,5.271,0,0,1-.426-2.112,5.346,5.346,0,0,1,.426-2.122,5.464,5.464,0,0,1,1.165-1.737,5.5,5.5,0,0,1,1.727-1.165A5.271,5.271,0,0,1,22.762-8.569Zm0,1.1a4.185,4.185,0,0,0-1.685.343,4.526,4.526,0,0,0-1.383.926,4.279,4.279,0,0,0-.936,1.383,4.259,4.259,0,0,0-.343,1.7,4.185,4.185,0,0,0,.343,1.685A4.433,4.433,0,0,0,19.694-.05a4.434,4.434,0,0,0,1.383.936,4.185,4.185,0,0,0,1.685.343,4.259,4.259,0,0,0,1.7-.343A4.279,4.279,0,0,0,25.841-.05a4.526,4.526,0,0,0,.926-1.383,4.185,4.185,0,0,0,.343-1.685,4.259,4.259,0,0,0-.343-1.7A4.365,4.365,0,0,0,25.841-6.2a4.365,4.365,0,0,0-1.383-.926A4.259,4.259,0,0,0,22.762-7.467ZM40.383-8.549a3.928,3.928,0,0,1,2.06.562,4.133,4.133,0,0,1,1.477,1.5,4.159,4.159,0,0,1,1.467-1.5,3.912,3.912,0,0,1,2.07-.562,3.956,3.956,0,0,1,1.581.322,4.125,4.125,0,0,1,1.3.874,4.125,4.125,0,0,1,.874,1.3,3.956,3.956,0,0,1,.322,1.581V2.1h-1.1V-4.471A2.959,2.959,0,0,0,50.2-5.636a2.95,2.95,0,0,0-.635-.947,2.95,2.95,0,0,0-.947-.635,2.959,2.959,0,0,0-1.165-.229,3.035,3.035,0,0,0-1.175.229,2.921,2.921,0,0,0-.957.635,2.95,2.95,0,0,0-.635.947,2.959,2.959,0,0,0-.229,1.165V2.1H43.379V-4.471a2.848,2.848,0,0,0-.239-1.165,3.1,3.1,0,0,0-.645-.947,2.95,2.95,0,0,0-.947-.635,2.959,2.959,0,0,0-1.165-.229,3.035,3.035,0,0,0-1.175.229,2.921,2.921,0,0,0-.957.635,2.95,2.95,0,0,0-.635.947,2.959,2.959,0,0,0-.229,1.165V2.1H36.306V-4.471a3.956,3.956,0,0,1,.322-1.581,4.125,4.125,0,0,1,.874-1.3,4.158,4.158,0,0,1,1.29-.874A3.933,3.933,0,0,1,40.383-8.549Zm25.006.042a5.271,5.271,0,0,1,2.112.426,5.5,5.5,0,0,1,1.727,1.165,5.464,5.464,0,0,1,1.165,1.737,5.346,5.346,0,0,1,.426,2.122,5.272,5.272,0,0,1-.426,2.112A5.5,5.5,0,0,1,69.228.782,5.5,5.5,0,0,1,67.5,1.947a5.271,5.271,0,0,1-2.112.426A5.36,5.36,0,0,1,62.9,1.791,5.218,5.218,0,0,1,61.041.21V7.345h-1.1v-10.4a5.346,5.346,0,0,1,.426-2.122A5.464,5.464,0,0,1,61.53-6.916a5.464,5.464,0,0,1,1.737-1.165A5.346,5.346,0,0,1,65.389-8.507Zm0,1.1a4.236,4.236,0,0,0-1.706.343,4.4,4.4,0,0,0-1.373.926,4.365,4.365,0,0,0-.926,1.383,4.259,4.259,0,0,0-.343,1.7,4.185,4.185,0,0,0,.343,1.685A4.526,4.526,0,0,0,62.31.012a4.309,4.309,0,0,0,1.373.936,4.236,4.236,0,0,0,1.706.343A4.185,4.185,0,0,0,67.074.948,4.434,4.434,0,0,0,68.458.012a4.434,4.434,0,0,0,.936-1.383,4.185,4.185,0,0,0,.343-1.685,4.259,4.259,0,0,0-.343-1.7,4.279,4.279,0,0,0-.936-1.383,4.526,4.526,0,0,0-1.383-.926A4.185,4.185,0,0,0,65.389-7.4Zm16,4.722a2.722,2.722,0,0,1-1.03-.2,2.71,2.71,0,0,1-.853-.541,2.634,2.634,0,0,1-.583-.811,2.6,2.6,0,0,1-.239-1.009,2.349,2.349,0,0,1,0-.624,2.6,2.6,0,0,1,.239-1.009,2.634,2.634,0,0,1,.583-.811,2.71,2.71,0,0,1,.853-.541,2.722,2.722,0,0,1,1.03-.2H85.3v1.082H81.388a1.576,1.576,0,0,0-1.113.437,1.566,1.566,0,0,0-.51,1.082,1.768,1.768,0,0,0,0,.541,1.566,1.566,0,0,0,.51,1.082,1.576,1.576,0,0,0,1.113.437h1.56a2.722,2.722,0,0,1,1.03.2,2.619,2.619,0,0,1,.853.551,2.766,2.766,0,0,1,.583.822,2.6,2.6,0,0,1,.239,1.009V-.56A2.475,2.475,0,0,1,85.434.48a2.768,2.768,0,0,1-.593.843,2.8,2.8,0,0,1-.863.572,2.655,2.655,0,0,1-1.051.208H78.912V1.021h4.015A1.6,1.6,0,0,0,83.988.636a1.607,1.607,0,0,0,.562-.988.959.959,0,0,1,.01-.135.961.961,0,0,0,.01-.135v-.437a1.638,1.638,0,0,0-.5-1.144,1.561,1.561,0,0,0-1.144-.478ZM98.031-8.549a3.956,3.956,0,0,1,1.581.322,4.125,4.125,0,0,1,1.3.874,4.125,4.125,0,0,1,.874,1.3,3.956,3.956,0,0,1,.322,1.581V2.1h-1.1V-4.471a2.959,2.959,0,0,0-.229-1.165,2.95,2.95,0,0,0-.635-.947,2.95,2.95,0,0,0-.947-.635,2.959,2.959,0,0,0-1.165-.229,3.035,3.035,0,0,0-1.175.229,2.921,2.921,0,0,0-.957.635,2.95,2.95,0,0,0-.635.947,2.959,2.959,0,0,0-.229,1.165V2.1h-1.1V-13.5h1.1v6.262A4.188,4.188,0,0,1,96.366-8.2,3.938,3.938,0,0,1,98.031-8.549Zm12.253.25h1.082V2.1h-1.082Zm0-5.2h1.082v1.768h-1.082ZM120.769,2.1h-1.082V-3.1a5.346,5.346,0,0,1,.426-2.122,5.464,5.464,0,0,1,1.165-1.737,5.5,5.5,0,0,1,1.727-1.165,5.272,5.272,0,0,1,2.112-.426v1.1a4.185,4.185,0,0,0-1.685.343,4.526,4.526,0,0,0-1.383.926,4.279,4.279,0,0,0-.936,1.383,4.259,4.259,0,0,0-.343,1.7ZM141.8-3.6a4.218,4.218,0,0,0-.478-1.5,4.586,4.586,0,0,0-.947-1.207,4.245,4.245,0,0,0-1.311-.811A4.242,4.242,0,0,0,137.5-7.4a4.324,4.324,0,0,0-1.581.291,4.215,4.215,0,0,0-1.321.811,4.586,4.586,0,0,0-.947,1.207,4.219,4.219,0,0,0-.479,1.5ZM137.5,2.373a5.346,5.346,0,0,1-2.122-.426A5.464,5.464,0,0,1,133.636.782a5.5,5.5,0,0,1-1.165-1.727,5.271,5.271,0,0,1-.426-2.112,5.346,5.346,0,0,1,.426-2.122,5.464,5.464,0,0,1,1.165-1.737,5.464,5.464,0,0,1,1.737-1.165,5.346,5.346,0,0,1,2.122-.426,5.271,5.271,0,0,1,2.112.426,5.5,5.5,0,0,1,1.727,1.165A5.464,5.464,0,0,1,142.5-5.178a5.346,5.346,0,0,1,.426,2.122v.27a1.92,1.92,0,0,1-.021.27h-9.736a4.219,4.219,0,0,0,.479,1.5,4.586,4.586,0,0,0,.947,1.207A4.215,4.215,0,0,0,135.914,1a4.324,4.324,0,0,0,1.581.291,2.906,2.906,0,0,0,1.144-.229A2.987,2.987,0,0,0,139.6.418l.77.77a4.12,4.12,0,0,1-1.279.863A3.933,3.933,0,0,1,137.5,2.373Z" transform="translate(264 84)" fill="#f5f5f5" stroke="#f5f5f5" stroke-width="1"/><path d="M4.224-4.128h7.728A8.342,8.342,0,0,0,15.288-4.8a8.7,8.7,0,0,0,2.736-1.848,8.7,8.7,0,0,0,1.848-2.736,8.342,8.342,0,0,0,.672-3.336v-9.5a8.342,8.342,0,0,0-.672-3.336,8.413,8.413,0,0,0-1.848-2.712A8.9,8.9,0,0,0,15.288-30.1a8.342,8.342,0,0,0-3.336-.672H4.224ZM.048-.1v-34.9h11.9a12.368,12.368,0,0,1,4.968,1.008,12.951,12.951,0,0,1,4.056,2.736,12.951,12.951,0,0,1,2.736,4.056,12.368,12.368,0,0,1,1.008,4.968v9.5a12.368,12.368,0,0,1-1.008,4.968A12.951,12.951,0,0,1,20.976-3.7,12.951,12.951,0,0,1,16.92-.96,12.368,12.368,0,0,1,11.952.048ZM54.24-13.968a9.645,9.645,0,0,0-1.128-2.52,8.057,8.057,0,0,0-1.8-2.016,8.4,8.4,0,0,0-2.376-1.32,8.153,8.153,0,0,0-2.808-.48,8.153,8.153,0,0,0-2.808.48,8.4,8.4,0,0,0-2.376,1.32,8.472,8.472,0,0,0-1.824,2.016,8.23,8.23,0,0,0-1.1,2.52ZM46.128.576a12.163,12.163,0,0,1-4.872-.984A12.681,12.681,0,0,1,37.272-3.1a12.758,12.758,0,0,1-2.688-3.96A11.993,11.993,0,0,1,33.6-11.9a12.334,12.334,0,0,1,.984-4.9,12.326,12.326,0,0,1,2.688-3.984,12.89,12.89,0,0,1,3.984-2.664,12.163,12.163,0,0,1,4.872-.984A12.163,12.163,0,0,1,51-23.448a12.6,12.6,0,0,1,3.96,2.664A12.523,12.523,0,0,1,57.624-16.8a12.334,12.334,0,0,1,.984,4.9v.72q0,.384-.1,1.3h-20.5a7.879,7.879,0,0,0,1.1,2.544,9.136,9.136,0,0,0,1.824,2.016A8.084,8.084,0,0,0,43.32-3.984a8.153,8.153,0,0,0,2.808.48,4.949,4.949,0,0,0,2.3-.6A9.7,9.7,0,0,0,50.64-5.712l2.88,2.88A13.684,13.684,0,0,1,50.04-.36,8.738,8.738,0,0,1,46.128.576Zm29.04-10.8a6.6,6.6,0,0,1-2.52-.48,6.906,6.906,0,0,1-2.088-1.32A6.494,6.494,0,0,1,69.1-14.016a6.226,6.226,0,0,1-.6-2.5,4.682,4.682,0,0,1-.048-.744A4.682,4.682,0,0,1,68.5-18a6.129,6.129,0,0,1,.6-2.448,6.8,6.8,0,0,1,1.464-2.016,6.677,6.677,0,0,1,2.088-1.344,6.6,6.6,0,0,1,2.52-.48h9.216v4.128H75.168a2.48,2.48,0,0,0-1.752.7,2.643,2.643,0,0,0-.84,1.752,2.668,2.668,0,0,0,0,1.008,2.6,2.6,0,0,0,.84,1.7,2.48,2.48,0,0,0,1.752.7H78.48a6.5,6.5,0,0,1,2.544.5,6.657,6.657,0,0,1,2.088,1.368,7.017,7.017,0,0,1,1.44,2.016,6.226,6.226,0,0,1,.6,2.5v1.344A5.967,5.967,0,0,1,84.6-4.008,7.6,7.6,0,0,1,83.16-1.92,6.211,6.211,0,0,1,81.048-.5a6.8,6.8,0,0,1-2.616.5H68.976V-4.08h9.456A2.4,2.4,0,0,0,80.088-4.7a3.071,3.071,0,0,0,.936-1.488v-.192a.532.532,0,0,1,.024-.168.532.532,0,0,0,.024-.168v-.912A2.683,2.683,0,0,0,80.28-9.48a2.509,2.509,0,0,0-1.848-.744ZM94.8-24h4.128V0H94.8Zm0-11.136h4.128v5.568H94.8Zm25.776,10.7a12.163,12.163,0,0,1,4.872.984,12.89,12.89,0,0,1,3.984,2.664A12.326,12.326,0,0,1,132.12-16.8a12.335,12.335,0,0,1,.984,4.9,12.227,12.227,0,0,1-1.656,6.288,12.135,12.135,0,0,1-4.488,4.464,11.2,11.2,0,0,1,2.3,3.24,9.131,9.131,0,0,1,.912,4.008,8.7,8.7,0,0,1-.816,3.72,9.4,9.4,0,0,1-2.256,3.048,11.253,11.253,0,0,1-3.336,2.064,10.7,10.7,0,0,1-4.056.768v-4.08a7.112,7.112,0,0,0,2.472-.432,6.308,6.308,0,0,0,2.04-1.2,5.98,5.98,0,0,0,1.368-1.752,4.617,4.617,0,0,0,.5-2.136,5.255,5.255,0,0,0-.432-2.136,5.777,5.777,0,0,0-2.952-2.952,5.254,5.254,0,0,0-2.136-.432,11.993,11.993,0,0,1-4.848-.984,12.758,12.758,0,0,1-3.96-2.688,12.758,12.758,0,0,1-2.688-3.96A11.993,11.993,0,0,1,108.1-11.9a12.334,12.334,0,0,1,.984-4.9,12.326,12.326,0,0,1,2.688-3.984,12.971,12.971,0,0,1,3.96-2.664A11.993,11.993,0,0,1,120.576-24.432Zm0,4.128a8.311,8.311,0,0,0-3.264.648,8.08,8.08,0,0,0-2.664,1.8,8.9,8.9,0,0,0-1.8,2.688,8.054,8.054,0,0,0-.672,3.264,8.054,8.054,0,0,0,.672,3.264,8.6,8.6,0,0,0,1.8,2.664,8.6,8.6,0,0,0,2.664,1.8,8.054,8.054,0,0,0,3.264.672,8.172,8.172,0,0,0,3.312-.672,8.6,8.6,0,0,0,2.664-1.8,8.269,8.269,0,0,0,1.776-2.664,8.311,8.311,0,0,0,.648-3.264,8.311,8.311,0,0,0-.648-3.264,8.554,8.554,0,0,0-1.776-2.688,8.081,8.081,0,0,0-2.664-1.8A8.433,8.433,0,0,0,120.576-20.3Zm34.944-4.224a12.163,12.163,0,0,1,4.872.984,12.89,12.89,0,0,1,3.984,2.664,12.327,12.327,0,0,1,2.688,3.984,12.334,12.334,0,0,1,.984,4.9V0H163.92V-12a8.311,8.311,0,0,0-.648-3.264,8.554,8.554,0,0,0-1.776-2.688,8.08,8.08,0,0,0-2.664-1.8,8.433,8.433,0,0,0-3.312-.648,8.311,8.311,0,0,0-3.264.648,8.08,8.08,0,0,0-2.664,1.8,8.9,8.9,0,0,0-1.8,2.688A8.054,8.054,0,0,0,147.12-12V0h-4.08V-12a12.334,12.334,0,0,1,.984-4.9,12.326,12.326,0,0,1,2.688-3.984,12.971,12.971,0,0,1,3.96-2.664A11.993,11.993,0,0,1,155.52-24.528Zm28.8,14.3a6.6,6.6,0,0,1-2.52-.48,6.906,6.906,0,0,1-2.088-1.32,6.494,6.494,0,0,1-1.464-1.992,6.226,6.226,0,0,1-.6-2.5,4.684,4.684,0,0,1-.048-.744,4.684,4.684,0,0,1,.048-.744,6.13,6.13,0,0,1,.6-2.448,6.8,6.8,0,0,1,1.464-2.016,6.677,6.677,0,0,1,2.088-1.344,6.6,6.6,0,0,1,2.52-.48h9.216v4.128H184.32a2.48,2.48,0,0,0-1.752.7,2.643,2.643,0,0,0-.84,1.752,2.669,2.669,0,0,0,0,1.008,2.6,2.6,0,0,0,.84,1.7,2.48,2.48,0,0,0,1.752.7h3.312a6.5,6.5,0,0,1,2.544.5,6.657,6.657,0,0,1,2.088,1.368,7.017,7.017,0,0,1,1.44,2.016,6.226,6.226,0,0,1,.6,2.5v1.344a5.967,5.967,0,0,1-.552,2.568,7.6,7.6,0,0,1-1.44,2.088A6.211,6.211,0,0,1,190.2-.5a6.8,6.8,0,0,1-2.616.5h-9.456V-4.08h9.456A2.4,2.4,0,0,0,189.24-4.7a3.071,3.071,0,0,0,.936-1.488v-.192a.532.532,0,0,1,.024-.168.532.532,0,0,0,.024-.168v-.912a2.683,2.683,0,0,0-.792-1.848,2.509,2.509,0,0,0-1.848-.744Z" transform="translate(264 129)" fill="#f5f5f5"/><g transform="translate(47.6 -0.382)"><g transform="translate(446.411 40.527)" fill="none"><path d="M10.173,3.325a3.316,3.316,0,0,1,4.631,0l6.581,6.42a3.316,3.316,0,0,1,0,4.747L14.8,20.913a3.316,3.316,0,0,1-4.631,0l-6.581-6.42a3.316,3.316,0,0,1,0-4.747Z" stroke="none"/><path d="M 12.48888301849365 4.382440567016602 C 12.14350318908691 4.382440567016602 11.81716346740723 4.5152587890625 11.56995296478271 4.756439208984375 L 4.988973617553711 11.17690944671631 C 4.732982635498047 11.42665958404541 4.59199333190918 11.76115989685059 4.59199333190918 12.11880016326904 C 4.59199333190918 12.47644996643066 4.732982635498047 12.81094932556152 4.988983154296875 13.06070995330811 L 11.56994342803955 19.48117065429688 C 11.81715297698975 19.72234916687012 12.14350318908691 19.85516929626465 12.48888301849365 19.85516929626465 C 12.83425331115723 19.85516929626465 13.16061305999756 19.72233963012695 13.40781307220459 19.48118019104004 L 19.98878288269043 13.06071949005127 C 20.24477386474609 12.81096935272217 20.38576316833496 12.47645950317383 20.38576316833496 12.11880970001221 C 20.38576316833496 11.76115989685059 20.24477386474609 11.42665004730225 19.98878288269043 11.17689990997314 L 13.40782260894775 4.756450653076172 C 13.16060256958008 4.5152587890625 12.83425331115723 4.382440567016602 12.48888301849365 4.382440567016602 M 12.48887920379639 2.382436752319336 C 13.32466793060303 2.382436752319336 14.16045761108398 2.696584701538086 14.80446338653564 3.324880599975586 L 21.38543319702148 9.745339393615723 C 22.71920394897461 11.04658985137939 22.71920394897461 13.19102954864502 21.38543319702148 14.49228000640869 L 14.80446338653564 20.91273880004883 C 14.16045761108398 21.54102897644043 13.32466793060303 21.85517501831055 12.48887920379639 21.85517501831055 C 11.65309047698975 21.85517501831055 10.81730270385742 21.54102897644043 10.17330265045166 20.91273880004883 L 3.59233283996582 14.49226951599121 C 2.258552551269531 13.19102954864502 2.258552551269531 11.04657936096191 3.59233283996582 9.745339393615723 L 10.17330265045166 3.324880599975586 C 10.81730270385742 2.696584701538086 11.65309047698975 2.382436752319336 12.48887920379639 2.382436752319336 Z" stroke="none" fill="#07f"/></g><g transform="translate(446.411 14)" fill="none"><path d="M10.173,3.325a3.316,3.316,0,0,1,4.631,0l6.581,6.42a3.316,3.316,0,0,1,0,4.747L14.8,20.913a3.316,3.316,0,0,1-4.631,0l-6.581-6.42a3.316,3.316,0,0,1,0-4.747Z" stroke="none"/><path d="M 12.48888301849365 4.382440567016602 C 12.14350318908691 4.382440567016602 11.81716346740723 4.5152587890625 11.56995296478271 4.756439208984375 L 4.988973617553711 11.17690944671631 C 4.732982635498047 11.42665958404541 4.59199333190918 11.76115989685059 4.59199333190918 12.11880016326904 C 4.59199333190918 12.47644996643066 4.732982635498047 12.81094932556152 4.988983154296875 13.06070995330811 L 11.56994342803955 19.48117065429688 C 11.81715297698975 19.72234916687012 12.14350318908691 19.85516929626465 12.48888301849365 19.85516929626465 C 12.83425331115723 19.85516929626465 13.16061305999756 19.72233963012695 13.40781307220459 19.48118019104004 L 19.98878288269043 13.06071949005127 C 20.24477386474609 12.81096935272217 20.38576316833496 12.47645950317383 20.38576316833496 12.11880970001221 C 20.38576316833496 11.76115989685059 20.24477386474609 11.42665004730225 19.98878288269043 11.17689990997314 L 13.40782260894775 4.756450653076172 C 13.16060256958008 4.5152587890625 12.83425331115723 4.382440567016602 12.48888301849365 4.382440567016602 M 12.48887920379639 2.382436752319336 C 13.32466793060303 2.382436752319336 14.16045761108398 2.696584701538086 14.80446338653564 3.324880599975586 L 21.38543319702148 9.745339393615723 C 22.71920394897461 11.04658985137939 22.71920394897461 13.19102954864502 21.38543319702148 14.49228000640869 L 14.80446338653564 20.91273880004883 C 14.16045761108398 21.54102897644043 13.32466793060303 21.85517501831055 12.48887920379639 21.85517501831055 C 11.65309047698975 21.85517501831055 10.81730270385742 21.54102897644043 10.17330265045166 20.91273880004883 L 3.59233283996582 14.49226951599121 C 2.258552551269531 13.19102954864502 2.258552551269531 11.04657936096191 3.59233283996582 9.745339393615723 L 10.17330265045166 3.324880599975586 C 10.81730270385742 2.696584701538086 11.65309047698975 2.382436752319336 12.48887920379639 2.382436752319336 Z" stroke="none" fill="#07f"/></g><g transform="translate(462.371 49.136) rotate(-90)" fill="none"><path d="M7.409.971a3.316,3.316,0,0,1,4.689,0l6.438,6.438a3.316,3.316,0,0,1,0,4.689L12.1,18.536a3.316,3.316,0,0,1-4.689,0L.971,12.1a3.316,3.316,0,0,1,0-4.689Z" stroke="none"/><path d="M 9.753825187683105 1.999996185302734 C 9.402335166931152 1.999996185302734 9.071885108947754 2.136877059936523 8.823335647583008 2.385416030883789 L 2.385416030883789 8.823336601257324 C 2.136875152587891 9.071876525878906 1.999994277954102 9.402336120605469 1.999994277954102 9.753826141357422 C 1.999994277954102 10.10531616210938 2.136875152587891 10.43577575683594 2.385416030883789 10.68431568145752 L 8.823335647583008 17.12223625183105 C 9.07187557220459 17.37076568603516 9.402325630187988 17.50764656066895 9.753825187683105 17.50764656066895 C 10.10532474517822 17.50764656066895 10.43577480316162 17.37076568603516 10.6843147277832 17.12223625183105 L 17.12223434448242 10.68431568145752 C 17.37077522277832 10.43577575683594 17.50764465332031 10.10531616210938 17.50764465332031 9.753826141357422 C 17.50764465332031 9.402336120605469 17.37077522277832 9.071876525878906 17.12223434448242 8.823336601257324 L 10.6843147277832 2.385416030883789 C 10.43576526641846 2.136877059936523 10.10531520843506 1.999996185302734 9.753825187683105 1.999996185302734 M 9.753825187683105 1.9073486328125e-06 C 10.60243988037109 1.9073486328125e-06 11.4510555267334 0.3237361907958984 12.09852504730225 0.9712066650390625 L 18.53644561767578 7.409126281738281 C 19.83138465881348 8.704066276550293 19.83138465881348 10.80358600616455 18.53644561767578 12.09852600097656 L 12.09852504730225 18.53644561767578 C 11.4510555267334 19.18391609191895 10.60243988037109 19.50765037536621 9.753825187683105 19.50765037536621 C 8.905210494995117 19.50765037536621 8.056594848632813 19.18391609191895 7.409125328063965 18.53644561767578 L 0.9712047576904297 12.09852600097656 C -0.3237342834472656 10.80358600616455 -0.3237342834472656 8.704066276550293 0.9712047576904297 7.409126281738281 L 7.409125328063965 0.9712066650390625 C 8.056594848632813 0.3237361907958984 8.905210494995117 1.9073486328125e-06 9.753825187683105 1.9073486328125e-06 Z" stroke="none" fill="#07f"/></g><g transform="translate(435.921 49.136) rotate(-90)" fill="none"><path d="M7.409.971a3.316,3.316,0,0,1,4.689,0l6.438,6.438a3.316,3.316,0,0,1,0,4.689L12.1,18.536a3.316,3.316,0,0,1-4.689,0L.971,12.1a3.316,3.316,0,0,1,0-4.689Z" stroke="none"/><path d="M 9.753825187683105 1.999996185302734 C 9.402335166931152 1.999996185302734 9.071885108947754 2.136877059936523 8.823335647583008 2.385416030883789 L 2.385416030883789 8.823336601257324 C 2.136875152587891 9.071876525878906 1.999994277954102 9.402336120605469 1.999994277954102 9.753826141357422 C 1.999994277954102 10.10531616210938 2.136875152587891 10.43577575683594 2.385416030883789 10.68431568145752 L 8.823335647583008 17.12223625183105 C 9.07187557220459 17.37076568603516 9.402325630187988 17.50764656066895 9.753825187683105 17.50764656066895 C 10.10532474517822 17.50764656066895 10.43577480316162 17.37076568603516 10.6843147277832 17.12223625183105 L 17.12223434448242 10.68431568145752 C 17.37077522277832 10.43577575683594 17.50764465332031 10.10531616210938 17.50764465332031 9.753826141357422 C 17.50764465332031 9.402336120605469 17.37077522277832 9.071876525878906 17.12223434448242 8.823336601257324 L 10.6843147277832 2.385416030883789 C 10.43576526641846 2.136877059936523 10.10531520843506 1.999996185302734 9.753825187683105 1.999996185302734 M 9.753825187683105 1.9073486328125e-06 C 10.60243988037109 1.9073486328125e-06 11.4510555267334 0.3237361907958984 12.09852504730225 0.9712066650390625 L 18.53644561767578 7.409126281738281 C 19.83138465881348 8.704066276550293 19.83138465881348 10.80358600616455 18.53644561767578 12.09852600097656 L 12.09852504730225 18.53644561767578 C 11.4510555267334 19.18391609191895 10.60243988037109 19.50765037536621 9.753825187683105 19.50765037536621 C 8.905210494995117 19.50765037536621 8.056594848632813 19.18391609191895 7.409125328063965 18.53644561767578 L 0.9712047576904297 12.09852600097656 C -0.3237342834472656 10.80358600616455 -0.3237342834472656 8.704066276550293 0.9712047576904297 7.409126281738281 L 7.409125328063965 0.9712066650390625 C 8.056594848632813 0.3237361907958984 8.905210494995117 1.9073486328125e-06 9.753825187683105 1.9073486328125e-06 Z" stroke="none" fill="#07f"/></g></g><g transform="translate(47.6 82.618)"><g transform="translate(446.411 40.527)" fill="none"><path d="M10.173,3.325a3.316,3.316,0,0,1,4.631,0l6.581,6.42a3.316,3.316,0,0,1,0,4.747L14.8,20.913a3.316,3.316,0,0,1-4.631,0l-6.581-6.42a3.316,3.316,0,0,1,0-4.747Z" stroke="none"/><path d="M 12.48888301849365 4.382440567016602 C 12.14350318908691 4.382440567016602 11.81716346740723 4.5152587890625 11.56995296478271 4.756439208984375 L 4.988973617553711 11.17690944671631 C 4.732982635498047 11.42665958404541 4.59199333190918 11.76115989685059 4.59199333190918 12.11880016326904 C 4.59199333190918 12.47644996643066 4.732982635498047 12.81094932556152 4.988983154296875 13.06070995330811 L 11.56994342803955 19.48117065429688 C 11.81715297698975 19.72234916687012 12.14350318908691 19.85516929626465 12.48888301849365 19.85516929626465 C 12.83425331115723 19.85516929626465 13.16061305999756 19.72233963012695 13.40781307220459 19.48118019104004 L 19.98878288269043 13.06071949005127 C 20.24477386474609 12.81096935272217 20.38576316833496 12.47645950317383 20.38576316833496 12.11880970001221 C 20.38576316833496 11.76115989685059 20.24477386474609 11.42665004730225 19.98878288269043 11.17689990997314 L 13.40782260894775 4.756450653076172 C 13.16060256958008 4.5152587890625 12.83425331115723 4.382440567016602 12.48888301849365 4.382440567016602 M 12.48887920379639 2.382436752319336 C 13.32466793060303 2.382436752319336 14.16045761108398 2.696584701538086 14.80446338653564 3.324880599975586 L 21.38543319702148 9.745339393615723 C 22.71920394897461 11.04658985137939 22.71920394897461 13.19102954864502 21.38543319702148 14.49228000640869 L 14.80446338653564 20.91273880004883 C 14.16045761108398 21.54102897644043 13.32466793060303 21.85517501831055 12.48887920379639 21.85517501831055 C 11.65309047698975 21.85517501831055 10.81730270385742 21.54102897644043 10.17330265045166 20.91273880004883 L 3.59233283996582 14.49226951599121 C 2.258552551269531 13.19102954864502 2.258552551269531 11.04657936096191 3.59233283996582 9.745339393615723 L 10.17330265045166 3.324880599975586 C 10.81730270385742 2.696584701538086 11.65309047698975 2.382436752319336 12.48887920379639 2.382436752319336 Z" stroke="none" fill="#07f"/></g><g transform="translate(446.411 14)" fill="none"><path d="M10.173,3.325a3.316,3.316,0,0,1,4.631,0l6.581,6.42a3.316,3.316,0,0,1,0,4.747L14.8,20.913a3.316,3.316,0,0,1-4.631,0l-6.581-6.42a3.316,3.316,0,0,1,0-4.747Z" stroke="none"/><path d="M 12.48888301849365 4.382440567016602 C 12.14350318908691 4.382440567016602 11.81716346740723 4.5152587890625 11.56995296478271 4.756439208984375 L 4.988973617553711 11.17690944671631 C 4.732982635498047 11.42665958404541 4.59199333190918 11.76115989685059 4.59199333190918 12.11880016326904 C 4.59199333190918 12.47644996643066 4.732982635498047 12.81094932556152 4.988983154296875 13.06070995330811 L 11.56994342803955 19.48117065429688 C 11.81715297698975 19.72234916687012 12.14350318908691 19.85516929626465 12.48888301849365 19.85516929626465 C 12.83425331115723 19.85516929626465 13.16061305999756 19.72233963012695 13.40781307220459 19.48118019104004 L 19.98878288269043 13.06071949005127 C 20.24477386474609 12.81096935272217 20.38576316833496 12.47645950317383 20.38576316833496 12.11880970001221 C 20.38576316833496 11.76115989685059 20.24477386474609 11.42665004730225 19.98878288269043 11.17689990997314 L 13.40782260894775 4.756450653076172 C 13.16060256958008 4.5152587890625 12.83425331115723 4.382440567016602 12.48888301849365 4.382440567016602 M 12.48887920379639 2.382436752319336 C 13.32466793060303 2.382436752319336 14.16045761108398 2.696584701538086 14.80446338653564 3.324880599975586 L 21.38543319702148 9.745339393615723 C 22.71920394897461 11.04658985137939 22.71920394897461 13.19102954864502 21.38543319702148 14.49228000640869 L 14.80446338653564 20.91273880004883 C 14.16045761108398 21.54102897644043 13.32466793060303 21.85517501831055 12.48887920379639 21.85517501831055 C 11.65309047698975 21.85517501831055 10.81730270385742 21.54102897644043 10.17330265045166 20.91273880004883 L 3.59233283996582 14.49226951599121 C 2.258552551269531 13.19102954864502 2.258552551269531 11.04657936096191 3.59233283996582 9.745339393615723 L 10.17330265045166 3.324880599975586 C 10.81730270385742 2.696584701538086 11.65309047698975 2.382436752319336 12.48887920379639 2.382436752319336 Z" stroke="none" fill="#07f"/></g><g transform="translate(462.371 49.136) rotate(-90)" fill="none"><path d="M7.409.971a3.316,3.316,0,0,1,4.689,0l6.438,6.438a3.316,3.316,0,0,1,0,4.689L12.1,18.536a3.316,3.316,0,0,1-4.689,0L.971,12.1a3.316,3.316,0,0,1,0-4.689Z" stroke="none"/><path d="M 9.753825187683105 1.999996185302734 C 9.402335166931152 1.999996185302734 9.071885108947754 2.136877059936523 8.823335647583008 2.385416030883789 L 2.385416030883789 8.823336601257324 C 2.136875152587891 9.071876525878906 1.999994277954102 9.402336120605469 1.999994277954102 9.753826141357422 C 1.999994277954102 10.10531616210938 2.136875152587891 10.43577575683594 2.385416030883789 10.68431568145752 L 8.823335647583008 17.12223625183105 C 9.07187557220459 17.37076568603516 9.402325630187988 17.50764656066895 9.753825187683105 17.50764656066895 C 10.10532474517822 17.50764656066895 10.43577480316162 17.37076568603516 10.6843147277832 17.12223625183105 L 17.12223434448242 10.68431568145752 C 17.37077522277832 10.43577575683594 17.50764465332031 10.10531616210938 17.50764465332031 9.753826141357422 C 17.50764465332031 9.402336120605469 17.37077522277832 9.071876525878906 17.12223434448242 8.823336601257324 L 10.6843147277832 2.385416030883789 C 10.43576526641846 2.136877059936523 10.10531520843506 1.999996185302734 9.753825187683105 1.999996185302734 M 9.753825187683105 1.9073486328125e-06 C 10.60243988037109 1.9073486328125e-06 11.4510555267334 0.3237361907958984 12.09852504730225 0.9712066650390625 L 18.53644561767578 7.409126281738281 C 19.83138465881348 8.704066276550293 19.83138465881348 10.80358600616455 18.53644561767578 12.09852600097656 L 12.09852504730225 18.53644561767578 C 11.4510555267334 19.18391609191895 10.60243988037109 19.50765037536621 9.753825187683105 19.50765037536621 C 8.905210494995117 19.50765037536621 8.056594848632813 19.18391609191895 7.409125328063965 18.53644561767578 L 0.9712047576904297 12.09852600097656 C -0.3237342834472656 10.80358600616455 -0.3237342834472656 8.704066276550293 0.9712047576904297 7.409126281738281 L 7.409125328063965 0.9712066650390625 C 8.056594848632813 0.3237361907958984 8.905210494995117 1.9073486328125e-06 9.753825187683105 1.9073486328125e-06 Z" stroke="none" fill="#07f"/></g><g transform="translate(435.921 49.136) rotate(-90)" fill="none"><path d="M7.409.971a3.316,3.316,0,0,1,4.689,0l6.438,6.438a3.316,3.316,0,0,1,0,4.689L12.1,18.536a3.316,3.316,0,0,1-4.689,0L.971,12.1a3.316,3.316,0,0,1,0-4.689Z" stroke="none"/><path d="M 9.753825187683105 1.999996185302734 C 9.402335166931152 1.999996185302734 9.071885108947754 2.136877059936523 8.823335647583008 2.385416030883789 L 2.385416030883789 8.823336601257324 C 2.136875152587891 9.071876525878906 1.999994277954102 9.402336120605469 1.999994277954102 9.753826141357422 C 1.999994277954102 10.10531616210938 2.136875152587891 10.43577575683594 2.385416030883789 10.68431568145752 L 8.823335647583008 17.12223625183105 C 9.07187557220459 17.37076568603516 9.402325630187988 17.50764656066895 9.753825187683105 17.50764656066895 C 10.10532474517822 17.50764656066895 10.43577480316162 17.37076568603516 10.6843147277832 17.12223625183105 L 17.12223434448242 10.68431568145752 C 17.37077522277832 10.43577575683594 17.50764465332031 10.10531616210938 17.50764465332031 9.753826141357422 C 17.50764465332031 9.402336120605469 17.37077522277832 9.071876525878906 17.12223434448242 8.823336601257324 L 10.6843147277832 2.385416030883789 C 10.43576526641846 2.136877059936523 10.10531520843506 1.999996185302734 9.753825187683105 1.999996185302734 M 9.753825187683105 1.9073486328125e-06 C 10.60243988037109 1.9073486328125e-06 11.4510555267334 0.3237361907958984 12.09852504730225 0.9712066650390625 L 18.53644561767578 7.409126281738281 C 19.83138465881348 8.704066276550293 19.83138465881348 10.80358600616455 18.53644561767578 12.09852600097656 L 12.09852504730225 18.53644561767578 C 11.4510555267334 19.18391609191895 10.60243988037109 19.50765037536621 9.753825187683105 19.50765037536621 C 8.905210494995117 19.50765037536621 8.056594848632813 19.18391609191895 7.409125328063965 18.53644561767578 L 0.9712047576904297 12.09852600097656 C -0.3237342834472656 10.80358600616455 -0.3237342834472656 8.704066276550293 0.9712047576904297 7.409126281738281 L 7.409125328063965 0.9712066650390625 C 8.056594848632813 0.3237361907958984 8.905210494995117 1.9073486328125e-06 9.753825187683105 1.9073486328125e-06 Z" stroke="none" fill="#07f"/></g></g><g transform="translate(-363.4 -0.382)"><g transform="translate(446.411 40.527)" fill="none"><path d="M10.173,3.325a3.316,3.316,0,0,1,4.631,0l6.581,6.42a3.316,3.316,0,0,1,0,4.747L14.8,20.913a3.316,3.316,0,0,1-4.631,0l-6.581-6.42a3.316,3.316,0,0,1,0-4.747Z" stroke="none"/><path d="M 12.48888301849365 4.382440567016602 C 12.14350318908691 4.382440567016602 11.81716346740723 4.5152587890625 11.56995296478271 4.756439208984375 L 4.988973617553711 11.17690944671631 C 4.732982635498047 11.42665958404541 4.59199333190918 11.76115989685059 4.59199333190918 12.11880016326904 C 4.59199333190918 12.47644996643066 4.732982635498047 12.81094932556152 4.988983154296875 13.06070995330811 L 11.56994342803955 19.48117065429688 C 11.81715297698975 19.72234916687012 12.14350318908691 19.85516929626465 12.48888301849365 19.85516929626465 C 12.83425331115723 19.85516929626465 13.16061305999756 19.72233963012695 13.40781307220459 19.48118019104004 L 19.98878288269043 13.06071949005127 C 20.24477386474609 12.81096935272217 20.38576316833496 12.47645950317383 20.38576316833496 12.11880970001221 C 20.38576316833496 11.76115989685059 20.24477386474609 11.42665004730225 19.98878288269043 11.17689990997314 L 13.40782260894775 4.756450653076172 C 13.16060256958008 4.5152587890625 12.83425331115723 4.382440567016602 12.48888301849365 4.382440567016602 M 12.48887920379639 2.382436752319336 C 13.32466793060303 2.382436752319336 14.16045761108398 2.696584701538086 14.80446338653564 3.324880599975586 L 21.38543319702148 9.745339393615723 C 22.71920394897461 11.04658985137939 22.71920394897461 13.19102954864502 21.38543319702148 14.49228000640869 L 14.80446338653564 20.91273880004883 C 14.16045761108398 21.54102897644043 13.32466793060303 21.85517501831055 12.48887920379639 21.85517501831055 C 11.65309047698975 21.85517501831055 10.81730270385742 21.54102897644043 10.17330265045166 20.91273880004883 L 3.59233283996582 14.49226951599121 C 2.258552551269531 13.19102954864502 2.258552551269531 11.04657936096191 3.59233283996582 9.745339393615723 L 10.17330265045166 3.324880599975586 C 10.81730270385742 2.696584701538086 11.65309047698975 2.382436752319336 12.48887920379639 2.382436752319336 Z" stroke="none" fill="#07f"/></g><g transform="translate(446.411 14)" fill="none"><path d="M10.173,3.325a3.316,3.316,0,0,1,4.631,0l6.581,6.42a3.316,3.316,0,0,1,0,4.747L14.8,20.913a3.316,3.316,0,0,1-4.631,0l-6.581-6.42a3.316,3.316,0,0,1,0-4.747Z" stroke="none"/><path d="M 12.48888301849365 4.382440567016602 C 12.14350318908691 4.382440567016602 11.81716346740723 4.5152587890625 11.56995296478271 4.756439208984375 L 4.988973617553711 11.17690944671631 C 4.732982635498047 11.42665958404541 4.59199333190918 11.76115989685059 4.59199333190918 12.11880016326904 C 4.59199333190918 12.47644996643066 4.732982635498047 12.81094932556152 4.988983154296875 13.06070995330811 L 11.56994342803955 19.48117065429688 C 11.81715297698975 19.72234916687012 12.14350318908691 19.85516929626465 12.48888301849365 19.85516929626465 C 12.83425331115723 19.85516929626465 13.16061305999756 19.72233963012695 13.40781307220459 19.48118019104004 L 19.98878288269043 13.06071949005127 C 20.24477386474609 12.81096935272217 20.38576316833496 12.47645950317383 20.38576316833496 12.11880970001221 C 20.38576316833496 11.76115989685059 20.24477386474609 11.42665004730225 19.98878288269043 11.17689990997314 L 13.40782260894775 4.756450653076172 C 13.16060256958008 4.5152587890625 12.83425331115723 4.382440567016602 12.48888301849365 4.382440567016602 M 12.48887920379639 2.382436752319336 C 13.32466793060303 2.382436752319336 14.16045761108398 2.696584701538086 14.80446338653564 3.324880599975586 L 21.38543319702148 9.745339393615723 C 22.71920394897461 11.04658985137939 22.71920394897461 13.19102954864502 21.38543319702148 14.49228000640869 L 14.80446338653564 20.91273880004883 C 14.16045761108398 21.54102897644043 13.32466793060303 21.85517501831055 12.48887920379639 21.85517501831055 C 11.65309047698975 21.85517501831055 10.81730270385742 21.54102897644043 10.17330265045166 20.91273880004883 L 3.59233283996582 14.49226951599121 C 2.258552551269531 13.19102954864502 2.258552551269531 11.04657936096191 3.59233283996582 9.745339393615723 L 10.17330265045166 3.324880599975586 C 10.81730270385742 2.696584701538086 11.65309047698975 2.382436752319336 12.48887920379639 2.382436752319336 Z" stroke="none" fill="#07f"/></g><g transform="translate(462.371 49.136) rotate(-90)" fill="none"><path d="M7.409.971a3.316,3.316,0,0,1,4.689,0l6.438,6.438a3.316,3.316,0,0,1,0,4.689L12.1,18.536a3.316,3.316,0,0,1-4.689,0L.971,12.1a3.316,3.316,0,0,1,0-4.689Z" stroke="none"/><path d="M 9.753825187683105 1.999996185302734 C 9.402335166931152 1.999996185302734 9.071885108947754 2.136877059936523 8.823335647583008 2.385416030883789 L 2.385416030883789 8.823336601257324 C 2.136875152587891 9.071876525878906 1.999994277954102 9.402336120605469 1.999994277954102 9.753826141357422 C 1.999994277954102 10.10531616210938 2.136875152587891 10.43577575683594 2.385416030883789 10.68431568145752 L 8.823335647583008 17.12223625183105 C 9.07187557220459 17.37076568603516 9.402325630187988 17.50764656066895 9.753825187683105 17.50764656066895 C 10.10532474517822 17.50764656066895 10.43577480316162 17.37076568603516 10.6843147277832 17.12223625183105 L 17.12223434448242 10.68431568145752 C 17.37077522277832 10.43577575683594 17.50764465332031 10.10531616210938 17.50764465332031 9.753826141357422 C 17.50764465332031 9.402336120605469 17.37077522277832 9.071876525878906 17.12223434448242 8.823336601257324 L 10.6843147277832 2.385416030883789 C 10.43576526641846 2.136877059936523 10.10531520843506 1.999996185302734 9.753825187683105 1.999996185302734 M 9.753825187683105 1.9073486328125e-06 C 10.60243988037109 1.9073486328125e-06 11.4510555267334 0.3237361907958984 12.09852504730225 0.9712066650390625 L 18.53644561767578 7.409126281738281 C 19.83138465881348 8.704066276550293 19.83138465881348 10.80358600616455 18.53644561767578 12.09852600097656 L 12.09852504730225 18.53644561767578 C 11.4510555267334 19.18391609191895 10.60243988037109 19.50765037536621 9.753825187683105 19.50765037536621 C 8.905210494995117 19.50765037536621 8.056594848632813 19.18391609191895 7.409125328063965 18.53644561767578 L 0.9712047576904297 12.09852600097656 C -0.3237342834472656 10.80358600616455 -0.3237342834472656 8.704066276550293 0.9712047576904297 7.409126281738281 L 7.409125328063965 0.9712066650390625 C 8.056594848632813 0.3237361907958984 8.905210494995117 1.9073486328125e-06 9.753825187683105 1.9073486328125e-06 Z" stroke="none" fill="#07f"/></g><g transform="translate(435.921 49.136) rotate(-90)" fill="none"><path d="M7.409.971a3.316,3.316,0,0,1,4.689,0l6.438,6.438a3.316,3.316,0,0,1,0,4.689L12.1,18.536a3.316,3.316,0,0,1-4.689,0L.971,12.1a3.316,3.316,0,0,1,0-4.689Z" stroke="none"/><path d="M 9.753825187683105 1.999996185302734 C 9.402335166931152 1.999996185302734 9.071885108947754 2.136877059936523 8.823335647583008 2.385416030883789 L 2.385416030883789 8.823336601257324 C 2.136875152587891 9.071876525878906 1.999994277954102 9.402336120605469 1.999994277954102 9.753826141357422 C 1.999994277954102 10.10531616210938 2.136875152587891 10.43577575683594 2.385416030883789 10.68431568145752 L 8.823335647583008 17.12223625183105 C 9.07187557220459 17.37076568603516 9.402325630187988 17.50764656066895 9.753825187683105 17.50764656066895 C 10.10532474517822 17.50764656066895 10.43577480316162 17.37076568603516 10.6843147277832 17.12223625183105 L 17.12223434448242 10.68431568145752 C 17.37077522277832 10.43577575683594 17.50764465332031 10.10531616210938 17.50764465332031 9.753826141357422 C 17.50764465332031 9.402336120605469 17.37077522277832 9.071876525878906 17.12223434448242 8.823336601257324 L 10.6843147277832 2.385416030883789 C 10.43576526641846 2.136877059936523 10.10531520843506 1.999996185302734 9.753825187683105 1.999996185302734 M 9.753825187683105 1.9073486328125e-06 C 10.60243988037109 1.9073486328125e-06 11.4510555267334 0.3237361907958984 12.09852504730225 0.9712066650390625 L 18.53644561767578 7.409126281738281 C 19.83138465881348 8.704066276550293 19.83138465881348 10.80358600616455 18.53644561767578 12.09852600097656 L 12.09852504730225 18.53644561767578 C 11.4510555267334 19.18391609191895 10.60243988037109 19.50765037536621 9.753825187683105 19.50765037536621 C 8.905210494995117 19.50765037536621 8.056594848632813 19.18391609191895 7.409125328063965 18.53644561767578 L 0.9712047576904297 12.09852600097656 C -0.3237342834472656 10.80358600616455 -0.3237342834472656 8.704066276550293 0.9712047576904297 7.409126281738281 L 7.409125328063965 0.9712066650390625 C 8.056594848632813 0.3237361907958984 8.905210494995117 1.9073486328125e-06 9.753825187683105 1.9073486328125e-06 Z" stroke="none" fill="#07f"/></g></g><g transform="translate(-363.4 82.618)"><g transform="translate(446.411 40.527)" fill="none"><path d="M10.173,3.325a3.316,3.316,0,0,1,4.631,0l6.581,6.42a3.316,3.316,0,0,1,0,4.747L14.8,20.913a3.316,3.316,0,0,1-4.631,0l-6.581-6.42a3.316,3.316,0,0,1,0-4.747Z" stroke="none"/><path d="M 12.48888301849365 4.382440567016602 C 12.14350318908691 4.382440567016602 11.81716346740723 4.5152587890625 11.56995296478271 4.756439208984375 L 4.988973617553711 11.17690944671631 C 4.732982635498047 11.42665958404541 4.59199333190918 11.76115989685059 4.59199333190918 12.11880016326904 C 4.59199333190918 12.47644996643066 4.732982635498047 12.81094932556152 4.988983154296875 13.06070995330811 L 11.56994342803955 19.48117065429688 C 11.81715297698975 19.72234916687012 12.14350318908691 19.85516929626465 12.48888301849365 19.85516929626465 C 12.83425331115723 19.85516929626465 13.16061305999756 19.72233963012695 13.40781307220459 19.48118019104004 L 19.98878288269043 13.06071949005127 C 20.24477386474609 12.81096935272217 20.38576316833496 12.47645950317383 20.38576316833496 12.11880970001221 C 20.38576316833496 11.76115989685059 20.24477386474609 11.42665004730225 19.98878288269043 11.17689990997314 L 13.40782260894775 4.756450653076172 C 13.16060256958008 4.5152587890625 12.83425331115723 4.382440567016602 12.48888301849365 4.382440567016602 M 12.48887920379639 2.382436752319336 C 13.32466793060303 2.382436752319336 14.16045761108398 2.696584701538086 14.80446338653564 3.324880599975586 L 21.38543319702148 9.745339393615723 C 22.71920394897461 11.04658985137939 22.71920394897461 13.19102954864502 21.38543319702148 14.49228000640869 L 14.80446338653564 20.91273880004883 C 14.16045761108398 21.54102897644043 13.32466793060303 21.85517501831055 12.48887920379639 21.85517501831055 C 11.65309047698975 21.85517501831055 10.81730270385742 21.54102897644043 10.17330265045166 20.91273880004883 L 3.59233283996582 14.49226951599121 C 2.258552551269531 13.19102954864502 2.258552551269531 11.04657936096191 3.59233283996582 9.745339393615723 L 10.17330265045166 3.324880599975586 C 10.81730270385742 2.696584701538086 11.65309047698975 2.382436752319336 12.48887920379639 2.382436752319336 Z" stroke="none" fill="#07f"/></g><g transform="translate(446.411 14)" fill="none"><path d="M10.173,3.325a3.316,3.316,0,0,1,4.631,0l6.581,6.42a3.316,3.316,0,0,1,0,4.747L14.8,20.913a3.316,3.316,0,0,1-4.631,0l-6.581-6.42a3.316,3.316,0,0,1,0-4.747Z" stroke="none"/><path d="M 12.48888301849365 4.382440567016602 C 12.14350318908691 4.382440567016602 11.81716346740723 4.5152587890625 11.56995296478271 4.756439208984375 L 4.988973617553711 11.17690944671631 C 4.732982635498047 11.42665958404541 4.59199333190918 11.76115989685059 4.59199333190918 12.11880016326904 C 4.59199333190918 12.47644996643066 4.732982635498047 12.81094932556152 4.988983154296875 13.06070995330811 L 11.56994342803955 19.48117065429688 C 11.81715297698975 19.72234916687012 12.14350318908691 19.85516929626465 12.48888301849365 19.85516929626465 C 12.83425331115723 19.85516929626465 13.16061305999756 19.72233963012695 13.40781307220459 19.48118019104004 L 19.98878288269043 13.06071949005127 C 20.24477386474609 12.81096935272217 20.38576316833496 12.47645950317383 20.38576316833496 12.11880970001221 C 20.38576316833496 11.76115989685059 20.24477386474609 11.42665004730225 19.98878288269043 11.17689990997314 L 13.40782260894775 4.756450653076172 C 13.16060256958008 4.5152587890625 12.83425331115723 4.382440567016602 12.48888301849365 4.382440567016602 M 12.48887920379639 2.382436752319336 C 13.32466793060303 2.382436752319336 14.16045761108398 2.696584701538086 14.80446338653564 3.324880599975586 L 21.38543319702148 9.745339393615723 C 22.71920394897461 11.04658985137939 22.71920394897461 13.19102954864502 21.38543319702148 14.49228000640869 L 14.80446338653564 20.91273880004883 C 14.16045761108398 21.54102897644043 13.32466793060303 21.85517501831055 12.48887920379639 21.85517501831055 C 11.65309047698975 21.85517501831055 10.81730270385742 21.54102897644043 10.17330265045166 20.91273880004883 L 3.59233283996582 14.49226951599121 C 2.258552551269531 13.19102954864502 2.258552551269531 11.04657936096191 3.59233283996582 9.745339393615723 L 10.17330265045166 3.324880599975586 C 10.81730270385742 2.696584701538086 11.65309047698975 2.382436752319336 12.48887920379639 2.382436752319336 Z" stroke="none" fill="#07f"/></g><g transform="translate(462.371 49.136) rotate(-90)" fill="none"><path d="M7.409.971a3.316,3.316,0,0,1,4.689,0l6.438,6.438a3.316,3.316,0,0,1,0,4.689L12.1,18.536a3.316,3.316,0,0,1-4.689,0L.971,12.1a3.316,3.316,0,0,1,0-4.689Z" stroke="none"/><path d="M 9.753825187683105 1.999996185302734 C 9.402335166931152 1.999996185302734 9.071885108947754 2.136877059936523 8.823335647583008 2.385416030883789 L 2.385416030883789 8.823336601257324 C 2.136875152587891 9.071876525878906 1.999994277954102 9.402336120605469 1.999994277954102 9.753826141357422 C 1.999994277954102 10.10531616210938 2.136875152587891 10.43577575683594 2.385416030883789 10.68431568145752 L 8.823335647583008 17.12223625183105 C 9.07187557220459 17.37076568603516 9.402325630187988 17.50764656066895 9.753825187683105 17.50764656066895 C 10.10532474517822 17.50764656066895 10.43577480316162 17.37076568603516 10.6843147277832 17.12223625183105 L 17.12223434448242 10.68431568145752 C 17.37077522277832 10.43577575683594 17.50764465332031 10.10531616210938 17.50764465332031 9.753826141357422 C 17.50764465332031 9.402336120605469 17.37077522277832 9.071876525878906 17.12223434448242 8.823336601257324 L 10.6843147277832 2.385416030883789 C 10.43576526641846 2.136877059936523 10.10531520843506 1.999996185302734 9.753825187683105 1.999996185302734 M 9.753825187683105 1.9073486328125e-06 C 10.60243988037109 1.9073486328125e-06 11.4510555267334 0.3237361907958984 12.09852504730225 0.9712066650390625 L 18.53644561767578 7.409126281738281 C 19.83138465881348 8.704066276550293 19.83138465881348 10.80358600616455 18.53644561767578 12.09852600097656 L 12.09852504730225 18.53644561767578 C 11.4510555267334 19.18391609191895 10.60243988037109 19.50765037536621 9.753825187683105 19.50765037536621 C 8.905210494995117 19.50765037536621 8.056594848632813 19.18391609191895 7.409125328063965 18.53644561767578 L 0.9712047576904297 12.09852600097656 C -0.3237342834472656 10.80358600616455 -0.3237342834472656 8.704066276550293 0.9712047576904297 7.409126281738281 L 7.409125328063965 0.9712066650390625 C 8.056594848632813 0.3237361907958984 8.905210494995117 1.9073486328125e-06 9.753825187683105 1.9073486328125e-06 Z" stroke="none" fill="#07f"/></g><g transform="translate(435.921 49.136) rotate(-90)" fill="none"><path d="M7.409.971a3.316,3.316,0,0,1,4.689,0l6.438,6.438a3.316,3.316,0,0,1,0,4.689L12.1,18.536a3.316,3.316,0,0,1-4.689,0L.971,12.1a3.316,3.316,0,0,1,0-4.689Z" stroke="none"/><path d="M 9.753825187683105 1.999996185302734 C 9.402335166931152 1.999996185302734 9.071885108947754 2.136877059936523 8.823335647583008 2.385416030883789 L 2.385416030883789 8.823336601257324 C 2.136875152587891 9.071876525878906 1.999994277954102 9.402336120605469 1.999994277954102 9.753826141357422 C 1.999994277954102 10.10531616210938 2.136875152587891 10.43577575683594 2.385416030883789 10.68431568145752 L 8.823335647583008 17.12223625183105 C 9.07187557220459 17.37076568603516 9.402325630187988 17.50764656066895 9.753825187683105 17.50764656066895 C 10.10532474517822 17.50764656066895 10.43577480316162 17.37076568603516 10.6843147277832 17.12223625183105 L 17.12223434448242 10.68431568145752 C 17.37077522277832 10.43577575683594 17.50764465332031 10.10531616210938 17.50764465332031 9.753826141357422 C 17.50764465332031 9.402336120605469 17.37077522277832 9.071876525878906 17.12223434448242 8.823336601257324 L 10.6843147277832 2.385416030883789 C 10.43576526641846 2.136877059936523 10.10531520843506 1.999996185302734 9.753825187683105 1.999996185302734 M 9.753825187683105 1.9073486328125e-06 C 10.60243988037109 1.9073486328125e-06 11.4510555267334 0.3237361907958984 12.09852504730225 0.9712066650390625 L 18.53644561767578 7.409126281738281 C 19.83138465881348 8.704066276550293 19.83138465881348 10.80358600616455 18.53644561767578 12.09852600097656 L 12.09852504730225 18.53644561767578 C 11.4510555267334 19.18391609191895 10.60243988037109 19.50765037536621 9.753825187683105 19.50765037536621 C 8.905210494995117 19.50765037536621 8.056594848632813 19.18391609191895 7.409125328063965 18.53644561767578 L 0.9712047576904297 12.09852600097656 C -0.3237342834472656 10.80358600616455 -0.3237342834472656 8.704066276550293 0.9712047576904297 7.409126281738281 L 7.409125328063965 0.9712066650390625 C 8.056594848632813 0.3237361907958984 8.905210494995117 1.9073486328125e-06 9.753825187683105 1.9073486328125e-06 Z" stroke="none" fill="#07f"/></g></g><circle cx="5" cy="5" r="5" transform="translate(91 76)" fill="#07f"/><circle cx="5" cy="5" r="5" transform="translate(502 76)" fill="#07f"/></g></svg>