<?xml version="1.0" encoding="UTF-8" standalone="no"?>
<!-- Created with Inkscape (http://www.inkscape.org/) -->

<svg
   xmlns:dc="http://purl.org/dc/elements/1.1/"
   xmlns:cc="http://creativecommons.org/ns#"
   xmlns:rdf="http://www.w3.org/1999/02/22-rdf-syntax-ns#"
   xmlns:svg="http://www.w3.org/2000/svg"
   xmlns="http://www.w3.org/2000/svg"
   xmlns:sodipodi="http://sodipodi.sourceforge.net/DTD/sodipodi-0.dtd"
   xmlns:inkscape="http://www.inkscape.org/namespaces/inkscape"
   width="210mm"
   height="297mm"
   viewBox="0 0 210 297"
   version="1.1"
   id="svg8"
   inkscape:version="0.92.3 (2405546, 2018-03-11)"
   sodipodi:docname="LE logo.svg">
  <defs
     id="defs2">
    <clipPath
       id="clipPath831"
       clipPathUnits="userSpaceOnUse">
      <path
         inkscape:connector-curvature="0"
         id="path829"
         d="M 0,5000 H 5000 V 0 H 0 Z" />
    </clipPath>
    <clipPath
       id="clipPath875"
       clipPathUnits="userSpaceOnUse">
      <path
         inkscape:connector-curvature="0"
         id="path873"
         d="M 0,5000 H 5000 V 0 H 0 Z" />
    </clipPath>
  </defs>
  <sodipodi:namedview
     id="base"
     pagecolor="#ffffff"
     bordercolor="#666666"
     borderopacity="1.0"
     inkscape:pageopacity="0.0"
     inkscape:pageshadow="2"
     inkscape:zoom="0.04375"
     inkscape:cx="-2531.4912"
     inkscape:cy="-152.73388"
     inkscape:document-units="mm"
     inkscape:current-layer="g823"
     showgrid="false"
     inkscape:window-width="1366"
     inkscape:window-height="745"
     inkscape:window-x="-8"
     inkscape:window-y="-8"
     inkscape:window-maximized="1" />
  <metadata
     id="metadata5">
    <rdf:RDF>
      <cc:Work
         rdf:about="">
        <dc:format>image/svg+xml</dc:format>
        <dc:type
           rdf:resource="http://purl.org/dc/dcmitype/StillImage" />
        <dc:title></dc:title>
      </cc:Work>
    </rdf:RDF>
  </metadata>
  <g
     inkscape:label="Layer 1"
     inkscape:groupmode="layer"
     id="layer1">
    <g
       transform="matrix(0.35277777,0,0,-0.35277777,-615.95929,1153.998)"
       inkscape:label="source_file_AI, stacked name"
       id="g823">
      <g
         id="g825">
        <g
           clip-path="url(#clipPath831)"
           id="g827">
          <g
             transform="translate(1576.4761,2303.3799)"
             id="g833">
            <path
               inkscape:connector-curvature="0"
               id="path835"
               style="fill:#37b44a;fill-opacity:1;fill-rule:nonzero;stroke:none"
               d="M 0,0 C 11.508,20.445 26.556,47.895 36.878,68.962 35.832,67.136 34.485,64.669 33.328,62.911 21.033,36.356 21.033,36.356 1.984,15.041 5.921,23.265 8.345,28.604 11.96,37.017 8.225,33.054 3.25,27.764 -0.539,23.852 -9.533,1.367 -9.533,1.367 -45.602,-33.208 c 0.133,2.045 0.133,2.045 4.704,17.725 -5.675,-5.263 -13.237,-12.285 -18.946,-17.511 -4.554,-21.316 -4.554,-21.316 -95.635,-98.64 -84.825,-72.013 -170.263,-137.371 -207.769,-158.939 55.534,26.544 189.267,126.657 292.029,218.615 -11.021,-27.396 -26.114,-64.916 -159.592,-157.221 4.549,2.82 10.611,6.582 15.124,9.459 l 2.46,1.692 c 32.887,22.891 70.944,53.081 101.801,80.755 -3.893,-4.451 -4.492,-5.134 -11.292,-11.506 2.81,2.592 6.542,6.064 9.328,8.683 8.215,7.887 8.536,8.196 12.837,12.491 11.444,11.634 11.891,12.089 17.946,18.603 17.511,19.417 18.56,20.58 28.505,32.701 C -34.077,-50.437 -16.783,-28.101 0,0 m -100.553,-127.605 c -8.533,-8.41 -8.533,-8.41 -12.837,-12.491 l -3.203,-3.017 c 5.407,5.112 8.033,7.829 12.352,12.409 6.747,6.272 10.594,10.126 13.19,12.781 -0.491,-0.51 -1.145,-1.189 -1.635,-1.699 l -7.867,-7.983 m 32.144,35.498 c -5.609,-5.785 -12.005,-12.073 -19.551,-19.224 12.812,17.119 21.835,32.319 31.147,52.464 17.628,16.216 27.579,26.208 31.325,29.97 -22.718,-40.369 -42.746,-63.03 -42.921,-63.21 m 14.307,15.806 -0.284,-0.347 c -2.126,-2.584 -4.161,-4.915 -7.024,-8.048 18.775,23.47 29.753,39.355 45.182,65.372 7.835,8.385 12.51,13.966 16.136,19.265 -3.024,-4.893 -7.09,-11.397 -10.188,-16.245 -27.387,-39.749 -27.91,-40.509 -43.822,-59.997 m -363.231,1101.409 -15.747,3.795 0.036,-0.01 c 2.607,-0.796 3.427,-1.558 4.183,-3.88 14.113,-3.812 32.93,-8.895 47.044,-12.707 -0.736,3.751 -0.736,3.751 -35.516,12.8 m 158.553,-61.92 -44.905,22.259 0.851,-0.461 c 1.496,-1.188 1.761,-1.581 2.358,-3.51 13.206,-6.57 30.814,-15.33 44.02,-21.9 -0.256,1.237 -0.547,2.638 -2.324,3.612 m 114.953,-78.475 -40.236,31.469 0.718,-0.613 c 0.741,-0.918 0.62,-2.28 1.588,-3.081 11.611,-9.61 27.69,-21.68 39.557,-30.971 -0.274,1.241 -0.49,2.222 -1.627,3.196 m 88.49,-89.796 -22.994,26.625 0.608,-0.8 c 1.52,-3.047 1.52,-3.047 34.398,-42.102 -0.445,1.937 -0.578,2.522 -12.012,16.277 M 31.176,660.426 7.083,705.354 7.539,704.385 c 4.071,-14.916 16.805,-31.923 24.113,-45.548 -0.117,0.484 -0.262,1.14 -0.476,1.589 m 47.909,-129.893 -14.118,47.63 0.259,-1.032 13.965,-47.109 c -0.032,0.153 -0.068,0.359 -0.106,0.511 m -990.139,431.28 -43.906,-25.619 c -20.689,-17.902 -44.913,-30.893 -66.341,-47.767 l -0.332,-0.263 1.341,0.822 c 13.038,7.636 24.115,13.298 42.155,19.644 -38.948,-36.991 -85.865,-73.948 -112.975,-92.633 26.478,8.355 106.596,73.906 131.227,95.557 10.382,9.126 61.428,10.666 63.596,10.727 -89.729,-84.552 -207.719,-177.782 -265.579,-215.671 40.432,13.714 179.117,116.275 290.965,215.178 24.54,-1.633 40.098,-3.821 66.588,-9.365 -138.031,-129.228 -319.799,-273.104 -402.966,-326.402 56.781,18.745 270.089,177.011 430.641,319.517 26.61,-7.601 43.325,-13.373 71.54,-24.705 -184.714,-172.639 -426.255,-363.009 -527.505,-425.886 98.997,40.106 372.842,249.924 556.696,413.148 10.332,-4.841 12.949,-6.106 23.328,-11.276 9.523,8.773 22.23,20.459 31.695,29.294 -10.859,4.41 -13.595,5.482 -24.404,9.556 35.858,32.701 55.649,52.235 66.282,62.729 11.254,-2.82 14.099,-3.576 25.375,-6.739 6.295,6.584 14.707,15.345 20.906,22.019 -11.453,2.644 -14.346,3.27 -25.796,5.582 17.897,18.949 26.566,29.038 35.676,41.52 11.436,-1.587 14.323,-2.028 25.74,-3.937 2.029,3.383 4.834,7.852 6.532,11.412 -11.401,1.666 -14.284,2.047 -25.708,3.395 0.515,1.311 1.203,3.06 1.719,4.372 -14.429,1.992 -33.666,4.647 -48.095,6.64 -0.046,-1.216 -0.107,-2.836 -0.153,-4.051 -29.15,-6.748 -58.877,-2.581 -88.274,-4.708 0.437,1.074 1.019,2.506 1.456,3.58 -14.432,-1.04 -33.673,-2.427 -48.104,-3.467 -0.08,-1.163 -0.188,-2.715 -0.269,-3.879 -28.409,-8.46 -57.881,-12.384 -86.429,-20.249 0.42,1.106 0.98,2.58 1.401,3.686 -14.058,-4.472 -32.802,-10.436 -46.859,-14.908 -1.177,-1.299 -86.161,-49.577 -81.164,-36.853 m 215.739,14.453 c 36.881,-2.227 65.225,-7.31 77.329,-9.481 -22.53,-23.855 -42.822,-43.678 -59.701,-59.922 -27.311,8.646 -49.324,14.25 -75.98,19.342 1.086,0.978 26.898,24.243 53.288,50.346 1.519,-0.085 3.545,-0.193 5.064,-0.285 m 49.942,49.992 c 34.998,1.551 61.79,-0.01 76.184,-0.844 -7,-10.809 -15.983,-22.169 -31.005,-39.212 -32.227,4.115 -52.82,5.586 -84.748,6.049 13.485,14.084 22.64,24.711 28.811,33.445 3.227,0.168 7.529,0.419 10.758,0.562 m -163.304,-54.163 c 31.72,4.446 56.592,4.962 69.953,5.239 -16.389,-17.421 -28.14,-28.888 -45.929,-46.245 -26.269,3.234 -47.004,4.354 -71.57,3.869 12.826,11.676 24.13,24.966 37.857,35.687 2.316,1.809 6.778,1.042 9.689,1.45 m 31.388,35.164 c 34.097,8.455 60.657,12.108 74.925,14.07 -8.823,-13.902 -23.632,-30.111 -23.693,-30.134 -2.959,-1.133 -7.377,-0.494 -10.538,-0.706 -20.828,-1.395 -44.98,-4.678 -71.785,-9.759 7.29,7.596 12.553,16.945 20.644,23.848 2.461,2.1 7.306,1.902 10.447,2.681 m -146.822,-65.606 c 32.446,12.995 59.133,19.386 69.18,21.792 -14.754,-15.805 -29.808,-30.171 -29.837,-30.184 -0.945,-0.426 -2.407,-0.243 -3.439,-0.347 -30.133,-3.041 -53.371,-9.714 -61.007,-11.907 20.948,18.982 20.948,18.982 25.103,20.646 m 16.357,18.044 c 35.61,17.498 64.444,27.514 75.299,31.284 -5.535,-8.882 -15.124,-19.457 -15.168,-19.48 -1.11,-0.563 -2.801,-0.774 -4.001,-1.106 -35.375,-9.79 -63.799,-22.167 -73.139,-26.234 3.823,3.917 6.808,8.574 10.868,12.282 1.54,1.407 4.282,2.311 6.141,3.254 m -110.911,-69.415 c 25.549,18.055 45.839,28.588 55.591,33.649 -10.032,-11.066 -10.032,-11.066 -15.038,-13.085 -9.96,-4.016 -25.595,-11.212 -43.521,-22.682 0.89,0.635 2.075,1.487 2.968,2.118 m -2.804,-1.99 c 27.306,21.286 48.671,34.89 65.969,45.39 -3.395,-6.097 -4.153,-6.509 -10.057,-9.72 -18.1,-9.842 -36.967,-21.887 -56.076,-35.798 0.05,0.038 0.115,0.09 0.164,0.128" />
          </g>
          <g
             transform="translate(402.4883,3020.4795)"
             id="g837">
            <path
               inkscape:connector-curvature="0"
               id="path839"
               style="fill:#37b44a;fill-opacity:1;fill-rule:nonzero;stroke:none"
               d="m 0,0 c 39.005,63.863 89.894,121.962 152.354,171.064 l -0.442,-0.335 c -21.289,-16.294 -37.033,-29.915 -56.153,-48.581 0.386,0.445 0.902,1.036 1.291,1.477 C 88.303,114.33 76.641,101.938 67.894,92.643 l -1.891,-2.18 -0.047,-0.054 C 61.771,85.564 60.749,84.33 54.101,76.299 27.722,42.229 22.233,35.139 0,0 M 7.405,11.831 C 7.67,12.258 8.031,12.823 8.303,13.247 15.889,24.38 25.87,39.323 33.813,50.205 46.384,67.241 56.617,79.26 62.115,85.717 61.381,84.729 60.688,83.796 59.925,82.509 40.64,59.976 23.127,36.354 7.405,11.831 m 84.69,105.578 c 2.56,3.778 28.007,28.823 60.259,53.655 -21.456,-16.867 -41.546,-34.796 -60.259,-53.655 m 700.075,177.799 -47.044,12.707 c -0.277,-2.171 -0.648,-5.066 -0.926,-7.237 -20.667,1.147 -40.471,7.301 -60.787,10.478 -1.881,-3.468 -4.39,-8.1 -6.532,-11.412 22.888,-4.063 37.467,-7.231 59.997,-13.036 -8.92,-12.964 -14.305,-20.788 -36.896,-46.56 -22.156,7.063 -36.425,11.056 -58.721,16.431 -6.248,-6.629 -14.57,-15.476 -20.907,-22.02 21.703,-6.321 35.579,-10.916 57.104,-18.909 -9.096,-9.574 -33.257,-35.007 -70.714,-70.926 -20.382,9.971 -33.417,15.874 -53.642,24.29 -9.494,-8.805 -22.146,-20.551 -31.695,-29.295 19.265,-9.796 31.613,-16.54 50.815,-27.754 C 350.7,-94.763 68.782,-316.847 -55.541,-394.568 c 121.725,51.427 444.189,298.615 657.464,488.297 0.103,-0.065 0.242,-0.151 0.346,-0.217 C 632.354,74.12 647.343,63.264 674.371,43.115 647.251,2.583 193.954,-387.467 -24.56,-524.615 61.102,-496.41 415.022,-240.308 705.962,18.381 738.814,-8.398 761.325,-28.978 779.013,-45.578 512.991,-293.629 176.001,-559.462 28.162,-652.117 c 92.438,30.939 470.164,304.148 779.227,578.903 26.927,-27.324 43.689,-45.521 68.981,-74.889 -271.957,-253.662 -617.849,-526.857 -770.277,-622.869 95.99,32.998 472.715,304.021 796.57,591.094 23.998,-30.176 38.591,-49.9 60.055,-81.171 -297.843,-276.966 -631.473,-533.225 -757.802,-611.729 97.214,35.476 466.434,301.844 779.133,579.42 19.278,-30.395 30.752,-50.007 47.222,-80.712 -259.246,-241.247 -586.606,-498.383 -718.263,-578.272 138.848,60.304 498.43,336.406 734.306,546.488 14.236,-29.912 22.381,-48.979 33.519,-78.472 -234.446,-217.985 -529.531,-449.448 -647.732,-520.847 137.223,63.219 448.528,303.755 658.26,490.359 6.952,-22.218 12.795,-41.777 19.396,-74.032 -200.311,-185.803 -445.308,-378.203 -548.455,-441.328 96.041,42.752 354.594,235.789 553.305,413.1 1.605,-11.561 5.364,-38.635 5.1,-67.187 -160.733,-148.978 -353.784,-300.275 -433.246,-348.114 87.192,40.262 293.929,199.521 432.314,323.005 -1.664,-18.687 -2.296,-23.254 -5.631,-40.724 5.692,5.244 13.288,12.23 18.946,17.511 12.086,44.732 12.086,44.732 56.935,89.108 -6.491,-22.557 -8.35,-28.139 -16.576,-49.773 3.764,3.936 8.793,9.175 12.499,13.165 21.134,50.475 21.134,50.475 43.721,81.271 -7.602,-21.335 -13.033,-34.792 -22.354,-55.376 1.066,1.815 2.486,4.235 3.551,6.05 l 7.864,17.611 1.716,4.033 c 10.663,25.7 10.663,25.7 29.024,83.3 l -0.245,-0.791 c 14.45,59.835 15.64,69.435 23.385,131.9 l 0.256,3.364 -0.069,-0.665 c -2.127,34.521 2.183,69.044 -0.038,103.565 l -3.323,33.183 0.049,-0.569 c -0.395,-2.052 -0.921,-4.789 -1.315,-6.841 -9.894,46.645 -15.756,94.118 -28.957,140.08 -0.234,-2.09 -0.546,-4.875 -0.78,-6.964 -25.851,41.364 -34.93,89.857 -56.577,133.009 -0.228,-2.174 -0.532,-5.074 -0.76,-7.248 -21.928,21.167 -34.5,49.106 -52.792,72.905 0.676,2.031 1.578,4.739 2.255,6.769 -10.024,12.855 -23.389,29.996 -33.413,42.852 -0.215,-2.21 -0.502,-5.158 -0.718,-7.368 -26.283,15.857 -44.197,40.969 -67.045,60.626 0.685,2.029 1.598,4.734 2.283,6.763 -11.831,10.204 -27.604,23.809 -39.435,34.012 -0.201,-2.143 -0.469,-5 -0.67,-7.143 -31.223,5.149 -50.585,30.497 -76.403,44.852 0.668,1.942 1.559,4.53 2.228,6.471 -13.162,7.443 -30.712,17.366 -43.874,24.808 -0.312,-2.412 -0.727,-5.627 -1.038,-8.04 -27.782,9.375 -54.677,21.165 -82.592,30.176 0.681,2.093 1.589,4.884 2.27,6.976 -0.493,0.152 0.013,1.204 0.018,1.72 m 403.567,-906.218 c -20.143,-21.002 -39.988,-40.042 -49.526,-49.192 0.798,10.229 2.918,37.401 0.638,71.404 14.822,13.552 37.379,34.572 60.661,57.755 -0.037,-0.715 -4.16,-72.029 -11.773,-79.967 m 46.782,54.618 c -8.651,-12.894 -22.665,-28.525 -27.27,-33.662 2.821,12.618 9.428,42.169 12.698,80.008 15.313,16.311 24.551,27.213 31.886,37.631 -6.437,-47.571 -16.517,-82.788 -17.314,-83.977 m -37.51,59.631 c -26.812,-27.994 -55.644,-55.57 -61.152,-60.814 -3.325,26.156 -7.698,49.191 -14.622,77.025 14.404,13.149 42.914,39.536 72.023,68.525 5.119,-35.098 9.926,-78.288 3.751,-84.736 m 58.585,68.488 c -10.689,-15.963 -27.862,-35.192 -33.505,-41.511 0.595,35.735 -1.541,61.136 -3.938,83.263 18.22,19.38 29.237,32.349 38.028,44.761 2.994,-49.002 0.529,-84.85 -0.585,-86.513 m -72.939,51.293 c -28.808,-30.06 -55.015,-55.3 -70.674,-70.381 -8.785,28.444 -17.323,51.771 -29.471,80.514 15.866,14.482 47.436,43.691 80.601,76.594 10.023,-29.293 16.725,-53.331 23.135,-82.969 -1.078,-1.127 -2.512,-2.632 -3.591,-3.758 m 68.084,79.7 c -12.24,-18.316 -32.085,-40.594 -38.606,-47.914 -5.468,30.029 -11.425,54.386 -20.561,84.07 20.324,21.592 32.69,36.128 42.684,50.173 10.03,-37.519 18.386,-83.482 16.483,-86.329 m -106.234,41.811 c -33.618,-35.109 -67.77,-67.943 -77.437,-77.17 -14.059,29.207 -26.824,52.864 -44.059,81.655 27.144,25.041 52.783,48.694 86.018,81.686 15.76,-28.692 27.181,-52.459 39.426,-82.035 -1.184,-1.241 -2.761,-2.897 -3.948,-4.136 m 75.005,87.97 c -13.529,-20.282 -35.081,-44.541 -42.163,-52.513 -11.465,29.785 -22.275,53.644 -37.311,82.354 21.845,23.225 35.077,38.74 45.672,53.554 14.144,-28.481 24.195,-52.252 34.693,-82.048 -0.267,-0.404 -0.622,-0.944 -0.891,-1.347 m -184.404,110.096 c 26.989,-34.593 44.259,-62.205 51.634,-73.996 -34.253,-36.028 -61.405,-62.293 -85.36,-85.466 -19.606,29.269 -36.655,52.497 -58.848,80.172 13.989,12.702 50.642,46.324 88.781,84.115 1.138,-1.447 2.66,-3.373 3.793,-4.825 m 78.78,87.791 c 25.694,-33.434 41.776,-60.431 48.644,-71.959 -10.634,-15.985 -23.693,-32.349 -45.076,-56.484 -17.55,28.442 -33.32,50.986 -54.432,77.815 22.251,23.483 36.828,40.53 47.263,55.275 1.08,-1.394 2.527,-3.248 3.601,-4.647 M 946.218,47.98 c 32.392,-29.906 54.178,-54.51 63.481,-65.017 -32.244,-33.974 -58.313,-59.433 -86.637,-86.849 -23.555,26.894 -43.583,47.929 -69.128,72.605 13.86,12.619 50.169,45.998 87.884,83.297 1.32,-1.211 3.084,-2.821 4.4,-4.036 m 77.692,86.589 c 31.741,-27.645 52.959,-51.023 62.02,-61.006 -10.576,-15.965 -23.791,-32.563 -45.617,-57.289 -22.685,25.198 -42.268,44.681 -67.593,67.249 21.6,22.793 36.489,40.203 46.856,54.79 1.3,-1.123 3.038,-2.616 4.334,-3.744 M 836.249,134.073 C 871.645,110.754 896.2,90.803 908,81.214 873.682,45.143 845.966,18.303 823.697,-3.263 c -33.958,30.098 -56.24,47.072 -74.46,60.618 28.742,26.509 51.443,47.448 83.412,79.076 1.08,-0.707 2.521,-1.648 3.6,-2.358 m 73.339,81.769 c 35.803,-20.492 61.123,-39.146 71.935,-47.111 -10.329,-15.634 -23.154,-31.764 -44.266,-55.673 -26.488,20.622 -48.463,35.9 -75.847,52.736 20.976,22.12 34.733,38.182 44.606,52.08 1.072,-0.61 2.502,-1.419 3.572,-2.032 m -184.573,-20.01 c 33.553,-15.307 58.792,-29.811 70.921,-36.781 -33.67,-35.51 -66.286,-67.016 -78.746,-78.913 -22.57,15.47 -48.693,31.447 -77.644,47.486 27.579,25.149 53.257,49.477 76.324,72.307 2.743,-1.23 6.41,-2.852 9.145,-4.099 m 66.438,74.103 c 35.711,-12.564 62.32,-25.257 72.338,-30.035 -9.562,-14.53 -21.507,-29.566 -41.23,-51.897 -36.321,19.467 -68.05,32.104 -81.598,37.5 19.299,20.325 31.914,35.044 40.904,47.727 2.876,-0.988 6.717,-2.286 9.586,-3.295" />
          </g>
          <g
             transform="translate(470.3823,3113.1226)"
             id="g841">
            <path
               inkscape:connector-curvature="0"
               id="path843"
               style="fill:#37b44a;fill-opacity:1;fill-rule:nonzero;stroke:none"
               d="m 0,0 29.156,30.981 c 9.621,10.517 26.865,27.169 54.375,46.787 l 0.929,0.653 1.018,0.851 c 43.361,35.916 53.468,41.546 109.562,72.799 19.674,18.86 69.919,34.527 128.099,52.668 -0.63,0.632 -1.47,1.474 -2.1,2.106 51.044,16.374 54.229,16.645 135.801,23.593 -0.504,0.756 -1.175,1.763 -1.678,2.519 5.078,0.827 18.567,3.023 58.025,3.567 -10.675,-0.363 -24.908,-0.848 -35.583,-1.212 C 410.952,228.821 408.35,228.567 371.131,220.53 313.202,205.692 307.146,204.142 265.986,188.392 169.12,148.002 94.975,90.137 94.237,89.558 88.993,85.404 88.993,85.404 86.438,83.337 81.527,79.333 81.527,79.333 79.114,77.326 74.237,73.237 74.237,73.237 71.816,71.166 66.886,66.915 66.694,66.749 64.133,64.492 58.877,59.82 58.448,59.439 55.589,56.834 49.127,50.888 48.875,50.656 45.495,47.451 37.281,39.564 36.96,39.256 32.657,34.96 21.214,23.325 20.768,22.871 14.712,16.357 10.292,11.456 4.341,4.971 0,0 m 584.077,233.47 -46.13,2.815 0.758,-0.038 c 2.877,-0.402 3.982,-1.18 4.73,-3.328 14.551,-1.003 33.952,-2.34 48.503,-3.343 -0.587,3.318 -2.273,3.451 -7.861,3.894 M 327.946,209.556 c -3.46,-1.002 -8.055,-2.397 -11.506,-3.431 -0.178,-0.056 -0.416,-0.129 -0.593,-0.187 l 12.099,3.618 M 186.261,150.651 c 11.897,6.512 24.346,12.714 37.001,18.434 19.721,9.56 24.912,11.905 42.724,19.307 l 0.063,0.025 c 1.511,0.59 2.177,0.81 3.095,1.102 -27.691,-11.046 -49.984,-21.59 -76.946,-36.394 -1.89,-0.54 -4.526,-1.55 -10.954,-5.254 1.505,0.834 3.507,1.954 5.017,2.78 m 20.251,9.796 c -14.149,-6.674 -23.303,-11.722 -29.987,-15.409 -2.061,-1.278 -8.332,-5.166 -18.915,-12.562 18.889,11.352 27.411,16.42 48.902,27.971 M 85.965,79.769 c 16.261,14.48 50.924,42.411 62.115,46.527 -16.776,-11.23 -37.454,-25.701 -63.62,-47.875 0.452,0.405 1.052,0.945 1.505,1.348 M 83.459,77.735 C 63.847,64.185 50.918,52.579 40.858,43.013 c 0.406,0.392 0.811,0.783 1.218,1.175 l 3.419,3.263 c 6.731,6.318 6.731,6.318 10.094,9.383 l 3.488,3.156 c 5.903,5.236 13.535,11.52 25.383,18.431 -0.3,-0.206 -0.701,-0.479 -1.001,-0.686 m 0.165,0.235 C 76.127,73.86 69.71,69.38 63.43,63.871 l 0.703,0.621 c 5.124,4.484 5.124,4.484 7.683,6.674 1.692,1.438 3.95,3.354 5.65,4.784 1.371,1.102 3.274,2.258 6.994,2.471 -0.251,-0.135 -0.586,-0.314 -0.836,-0.451 m 2.086,1.692 c 20.209,19.888 39.253,33.26 51.67,40.976 -13.965,-9.759 -31.174,-22.406 -52.92,-42.217 0.375,0.372 0.874,0.87 1.25,1.241 m -0.622,-0.427 c 7.033,8.978 13.882,14.195 18.421,17.339 l 1.729,1.261 c 5.87,4.493 10.369,7.842 15.53,11.56 -9.754,-6.917 -21.695,-16.006 -36.308,-30.974 0.189,0.245 0.437,0.572 0.628,0.814 m -0.851,-0.703 c -2.007,0.959 -2.691,0.772 -3.062,0.502 1.577,1.293 3.68,3.018 5.263,4.303 5.064,4.069 5.161,4.146 7.799,6.221 l 1.802,1.403 c -4.627,-3.549 -8.09,-7.3 -11.579,-12.54 -0.066,0.034 -0.156,0.078 -0.223,0.111" />
          </g>
          <g
             transform="translate(1352.7847,1955.8428)"
             id="g845">
            <path
               inkscape:connector-curvature="0"
               id="path847"
               style="fill:#00b14c;fill-opacity:1;fill-rule:nonzero;stroke:none"
               d="m 0,0 c -427.229,-205.074 -928.721,-48.086 -1120.116,350.644 -191.394,398.729 -0.213,888.209 427.016,1093.283 17.125,8.22 34.371,15.851 51.711,22.916 -35.843,-11.898 -71.376,-26.197 -106.382,-43 C -1174.999,1218.769 -1362.147,720.886 -1165.777,311.791 -969.407,-97.304 -463.881,-262.695 -36.652,-57.622 120.387,17.759 244.985,132.702 330.025,268.255 246.747,158.283 135.2,64.896 0,0" />
          </g>
          <g
             transform="translate(582.4038,3358.3286)"
             id="g849">
            <path
               inkscape:connector-curvature="0"
               id="path851"
               style="fill:#00b14c;fill-opacity:1;fill-rule:nonzero;stroke:none"
               d="m 0,0 c -10.844,-5.951 -23.233,-9.999 -35.223,-13.913 -2.832,-3.16 -5.591,-6.316 -8.34,-9.466 -5.095,1.608 -10.675,-0.062 -15.065,-3.7 -18.644,-15.445 -38.208,-29.785 -58.471,-43.064 -10.392,-6.811 -20.693,-13.555 -30.035,-21.784 -4.354,-3.835 -8.326,-7.992 -12.265,-12.238 -2.684,-2.893 -5.6,-6.785 -9.431,-8.258 -7.307,-2.812 -12.126,-10.058 -9.764,-17.949 0.203,-0.682 0.486,-1.343 0.805,-1.99 -2.41,-4.179 -5.254,-7.984 -8.438,-11.512 62.109,6.629 115.674,1.154 159.827,-19.934 -0.229,3.352 -0.23,4.64 -0.411,5.827 -4.414,28.938 -3.418,60.426 5.793,95.397 5.224,19.835 13.55,40.684 20.48,61.075 L -0.77,-1.993 C -0.513,-1.329 -0.256,-0.664 0,0" />
          </g>
          <g
             transform="translate(1609.3687,2127.5879)"
             id="g853">
            <path
               inkscape:connector-curvature="0"
               id="path855"
               style="fill:#00b14c;fill-opacity:1;fill-rule:nonzero;stroke:none"
               d="m 0,0 c 0.438,2.448 1.565,4.844 3.224,6.924 3.594,4.509 6.641,9.362 9.953,14.021 -67.492,-14.76 -126.676,-15.018 -176.975,3.629 0.609,-3.34 0.755,-4.632 1.071,-5.806 7.713,-28.636 10.258,-60.289 4.91,-96.13 -3.033,-20.33 -9.08,-41.938 -13.77,-62.97 l 0.178,0.505 c -0.673,-2.521 -1.347,-5.046 -2.025,-7.579 7.062,3.912 14.413,7.315 22.074,10.353 1.485,0.588 3.033,0.729 4.55,0.533 1.216,1.553 2.431,3.106 3.625,4.659 12.551,16.321 22.394,32.447 36.681,48.393 1.867,2.085 3.763,4.101 5.674,6.087 4.315,-2.368 9.787,-2.737 13.999,0.085 10.31,6.905 20.205,14.427 29.67,22.451 1.92,1.628 3.12,3.803 3.703,6.166 0.83,0.894 1.602,1.828 2.313,2.797 10.165,0.773 14.118,10.729 11.849,18.647 0.278,0.194 0.551,0.389 0.83,0.585 C -25.668,-17.685 -12.837,-8.833 0,0" />
          </g>
          <g
             transform="translate(1191.1665,1577.3145)"
             id="g857">
            <path
               inkscape:connector-curvature="0"
               id="path859"
               style="fill:#00b14c;fill-opacity:1;fill-rule:nonzero;stroke:none"
               d="m 0,0 c -143.66,69.939 -250.053,148.831 -311.558,241.192 -5.275,-6.165 -7.496,-8.411 -9.132,-10.724 C -360.513,174.161 -417.051,120.698 -498.299,72.229 -540.549,47.023 -590.197,23.845 -637.411,0 Z" />
          </g>
        </g>
      </g>
      <text
         id="text863"
         style="font-variant:normal;font-weight:500;font-stretch:condensed;font-size:860.37109375px;writing-mode:lr-tb;fill:#03a550;fill-opacity:1;fill-rule:nonzero;stroke:none"
         transform="matrix(1,0,0,-1,2153.0313,2500.4014)">
        <tspan
           id="tspan861"
           sodipodi:role="line"
           y="0"
           x="0 329.52213 659.04425 958.45343 1050.5131 1349.9222 1679.4443 2008.9666 2338.4888">Latitudes</tspan>
      </text>
      <text
         id="text867"
         style="font-variant:normal;font-weight:500;font-stretch:condensed;font-size:559.82598877px;writing-mode:lr-tb;fill:#03a550;fill-opacity:1;fill-rule:nonzero;stroke:none"
         transform="matrix(1,0,0,-1,2177.7852,1858.0215)">
        <tspan
           id="tspan865"
           sodipodi:role="line"
           y="0"
           x="0 214.41336 428.82672 657.79553 717.69696 932.11029 1146.5237 1360.937 1687.3156 1901.7289 2116.1423 2310.9617 2525.375">Environmental</tspan>
      </text>
      <g
         id="g869">
        <g
           clip-path="url(#clipPath875)"
           id="g871">
          <g
             transform="translate(2129.0381,2410.8926)"
             id="g877">
            <path
               inkscape:connector-curvature="0"
               id="path879"
               style="fill:#37b44a;fill-opacity:1;fill-rule:nonzero;stroke:none"
               d="m 0,0 c 55.582,4.381 111.165,8.098 166.748,11.569 l 20.843,1.316 20.844,1.24 41.687,2.48 83.374,4.62 c 6.947,0.288 13.896,0.416 20.843,0.326 6.948,-0.053 13.896,-0.278 20.844,-0.399 6.948,-0.15 13.896,-0.173 20.843,-0.159 h 20.844 83.374 166.748 666.992 666.994 333.496 l 83.373,-4.686 c 27.792,-1.668 55.583,-3.234 83.375,-5.01 C 2556.804,7.855 2612.387,4.212 2667.97,0 c -55.583,-4.212 -111.166,-7.855 -166.748,-11.297 -27.792,-1.776 -55.583,-3.342 -83.375,-5.01 l -83.373,-4.686 H 2000.978 1333.984 666.992 500.244 416.87 396.026 c -6.947,0.014 -13.895,-0.009 -20.843,-0.159 -6.948,-0.121 -13.896,-0.346 -20.844,-0.399 -6.947,-0.09 -13.896,0.038 -20.843,0.326 l -83.374,4.62 -41.687,2.48 -20.844,1.24 -20.843,1.316 C 111.165,-8.098 55.582,-4.381 0,0" />
          </g>
        </g>
      </g>
    </g>
  </g>
</svg>
