<svg id="eZQwuUFy9oK1" xmlns="http://www.w3.org/2000/svg" xmlns:xlink="http://www.w3.org/1999/xlink" viewBox="0 0 320.961 369.186" shape-rendering="geometricPrecision" text-rendering="geometricPrecision"><style><![CDATA[#eZQwuUFy9oK5 {animation: eZQwuUFy9oK5_s_do 1500ms linear infinite alternate forwards}@keyframes eZQwuUFy9oK5_s_do { 0% {stroke-dashoffset: 210.56} 80% {stroke-dashoffset: 210.56} 100% {stroke-dashoffset: 0}} #eZQwuUFy9oK10 {animation: eZQwuUFy9oK10_s_do 1500ms linear infinite alternate forwards}@keyframes eZQwuUFy9oK10_s_do { 0% {stroke-dashoffset: 513.83} 30% {stroke-dashoffset: 513.83} 50% {stroke-dashoffset: 0} 100% {stroke-dashoffset: 0}} #eZQwuUFy9oK11 {animation: eZQwuUFy9oK11_s_do 1500ms linear infinite alternate forwards}@keyframes eZQwuUFy9oK11_s_do { 0% {stroke-dashoffset: 251.6} 50% {stroke-dashoffset: 251.6} 60% {stroke-dashoffset: 0} 100% {stroke-dashoffset: 0}} #eZQwuUFy9oK12 {animation: eZQwuUFy9oK12_s_do 1500ms linear infinite alternate forwards}@keyframes eZQwuUFy9oK12_s_do { 0% {stroke-dashoffset: 545.63;animation-timing-function: cubic-bezier(0.42,0,1,1)} 10% {stroke-dashoffset: 0} 100% {stroke-dashoffset: 0}} #eZQwuUFy9oK13 {animation: eZQwuUFy9oK13_s_do 1500ms linear infinite alternate forwards}@keyframes eZQwuUFy9oK13_s_do { 0% {stroke-dashoffset: 244.23} 10% {stroke-dashoffset: 244.23} 30% {stroke-dashoffset: 0} 100% {stroke-dashoffset: 0}} #eZQwuUFy9oK17 {animation: eZQwuUFy9oK17_s_do 1500ms linear infinite alternate forwards}@keyframes eZQwuUFy9oK17_s_do { 0% {stroke-dashoffset: 209.14} 60% {stroke-dashoffset: 209.14} 80% {stroke-dashoffset: 0} 100% {stroke-dashoffset: 0}}]]></style><g id="eZQwuUFy9oK2" mask="url(#eZQwuUFy9oK4)"><path id="eZQwuUFy9oK3" d="M122.993,166.03C14.2,160.413,52.34,57.608,63.516,47.9C74.692,38.192,36.138,-23.948,9.708,10.1C-16.722,44.148,14.149,164.035,62.113,178.548C77.222,183.12,100.158,170.932,119.674,171.078C159.1,171.382,155.4,153.006,122.993,166.03Z" transform="matrix(0.945519 -0.325568 0.325568 0.945519 73.596001 125.646004)" fill="rgb(0,119,255)" fill-rule="evenodd" stroke="none" stroke-width="1"/><mask id="eZQwuUFy9oK4" mask-type="alpha"><path id="eZQwuUFy9oK5" d="M242.759952,263.651411Q99.628086,251.898649,116.417748,133.531534" transform="matrix(1 0 0 1 0.000001 0.000001)" fill="none" stroke="rgb(63,87,135)" stroke-width="70" stroke-linecap="round" stroke-dashoffset="210.56" stroke-dasharray="210.56"/></mask></g><g id="eZQwuUFy9oK6" mask="url(#eZQwuUFy9oK8)"><path id="eZQwuUFy9oK7" d="M519.108,300.568C464.208,323.768,378.553,409.637,348.452,382.63C341.407,376.308,339.813,365.93,340.702,359.38C343.345,339.914,370.483,328.78,384.102,323.572C445.845,299.962,507.479,283.172,539.622,240.544C563.865,208.394,570.291,163.171,555.122,129.458C528.72,70.783,436.672,35.88,374.671,55.9C312.67,75.92,285.612,133.654,286.993,191.019C288.374,248.384,335.328,313.751,374.671,289.827C414.014,265.903,437.488,224.979,468.243,212.738C482.514,207.058,513.567,203.7,522.738,210.345C531.909,216.99,509.915,236.386,504.928,239.32C495.628,244.794,497.635,217.646,460.835,232.652C424.035,247.658,390.478,315.411,344.7,300.568C298.922,285.725,275.586,234.568,275.573,183.937C275.56,133.306,302.334,56.348,374.667,30.117C447,3.886,519.7,24.3,568.04,74.321C616.38,124.342,594.094,187.514,568.04,230.209C533.423,286.938,440.163,319.853,389.787,333.545C381.339,335.839,356.36,342.329,353.619,356.796C352.664275,363.792915,355.644561,370.746276,361.37,374.88C372.791,382.889,389.798,368.352,402.97,361.38C423.091,350.704,513.854,281.457,555.12,275.455C596.386,269.453,534.184,364.955,568.037,343.755C601.89,322.555,574.458,376.781,555.12,367.028C522.179,350.412,546.721,288.9,519.108,300.568Z" transform="matrix(1 0 0 1 -275.575989 -18.639)" fill="rgb(0,119,255)" fill-rule="evenodd" stroke="none" stroke-width="1"/><mask id="eZQwuUFy9oK8" mask-type="alpha"><g id="eZQwuUFy9oK9" transform="matrix(1 0 0 1 0.000001 0.000001)"><path id="eZQwuUFy9oK10" d="M297.802441,180.295631Q251.852337,265.923525,133.593912,294.357245C133.593912,294.357245,55.689339,342.60648,73.141809,361.459079C90.259014,379.949516,124.060198,353.79703,158.379275,332.44207C204.287223,303.875962,258.125244,275.617093,258.125244,275.617093" fill="none" stroke="rgb(63,87,135)" stroke-width="30" stroke-linecap="round" stroke-dashoffset="513.83" stroke-dasharray="513.83"/><path id="eZQwuUFy9oK11" d="M279.283479,263.52667L250.26647,378.385666L353.035045,293.752722" transform="matrix(1 0 0 1 0.000001 0.000002)" fill="none" stroke="rgb(63,87,135)" stroke-width="40" stroke-linecap="round" stroke-linejoin="round" stroke-dashoffset="251.6" stroke-dasharray="251.6"/><path id="eZQwuUFy9oK12" d="M233.180351,204.852025Q196.991982,166.078771,114.275706,263.011906C31.55943,359.945041,-72.482134,34.249707,138.8321,20.032848" transform="matrix(1 0 0 1 0.646221 0)" fill="none" stroke="rgb(93,143,244)" stroke-width="40" stroke-linecap="round" stroke-linejoin="round" stroke-dashoffset="545.63" stroke-dasharray="545.63"/><path id="eZQwuUFy9oK13" d="M151.110297,17.447964Q303.618429,13.570638,299.741104,166.078771" transform="matrix(1 0 0 1 0.000001 0.000001)" fill="none" stroke="rgb(63,87,135)" stroke-width="55" stroke-linecap="round" stroke-dashoffset="244.23" stroke-dasharray="244.23"/></g></mask></g><g id="eZQwuUFy9oK14" mask="url(#eZQwuUFy9oK16)"><path id="eZQwuUFy9oK15" d="M69.530488,165.899536C84.317488,166.899536,31.575,146.756,27.318,108.988C23.061,71.22,52.466,42.5,59.924,33.906C67.382,25.312,36.632,-13.745,20.415,5.057C4.198,23.859,-6.88,74.2,4.938,110.636C16.756,147.072,54.743488,164.900536,69.530488,165.899536Z" transform="matrix(0.454 -0.891 0.891 0.454 38.731998 249.707001)" fill="rgb(0,119,255)" fill-rule="evenodd" stroke="none" stroke-width="1"/><mask id="eZQwuUFy9oK16" mask-type="alpha"><path id="eZQwuUFy9oK17" d="M207.081921,291.774095C123.395835,304.123335,46.000042,213.367735,25.753576,125.976186" fill="none" stroke="rgb(63,87,135)" stroke-width="70" stroke-linecap="round" stroke-linejoin="round" stroke-dashoffset="209.14" stroke-dasharray="209.14"/></mask></g><mask id="eZQwuUFy9oK18" mask-type="alpha"/></svg>