<svg xmlns="http://www.w3.org/2000/svg" viewBox="0 0 320.961 369.186">
  <g id="blender-test" transform="translate(-0.001 -0.003)">
    <path id="big_stroke" data-name="big stroke" d="M122.993,166.03C14.2,160.413,52.34,57.608,63.516,47.9S36.138-23.948,9.708,10.1s4.441,153.935,52.405,168.448c15.109,4.572,38.045-7.616,57.561-7.47C159.1,171.382,155.4,153.006,122.993,166.03Z" transform="translate(73.596 125.646) rotate(-19)" fill="#07f" fill-rule="evenodd"/>
    <path id="loop" d="M519.108,300.568c-54.9,23.2-140.555,109.069-170.656,82.062-7.045-6.322-8.639-16.7-7.75-23.25,2.643-19.466,29.781-30.6,43.4-35.808,61.743-23.61,123.377-40.4,155.52-83.028,24.243-32.15,30.669-77.373,15.5-111.086C528.72,70.783,436.672,35.88,374.671,55.9s-89.059,77.754-87.678,135.119,48.335,122.732,87.678,98.808,62.817-64.848,93.572-77.089c14.271-5.68,45.324-9.038,54.495-2.393s-12.823,26.041-17.81,28.975c-9.3,5.474-7.293-21.674-44.093-6.668S390.478,315.411,344.7,300.568s-69.114-66-69.127-116.631,26.761-127.589,99.094-153.82S519.7,24.3,568.04,74.321s26.054,113.193,0,155.888c-34.617,56.729-127.877,89.644-178.253,103.336-8.448,2.294-33.427,8.784-36.168,23.251a19.117,19.117,0,0,0,7.751,18.084c11.421,8.009,28.428-6.528,41.6-13.5,20.121-10.676,110.884-79.923,152.15-85.925s-20.936,89.5,12.917,68.3,6.421,33.026-12.917,23.273C522.179,350.412,546.721,288.9,519.108,300.568Z" transform="translate(-275.576 -18.639)" fill="#07f" fill-rule="evenodd"/>
    <path id="small_stroke" data-name="small stroke" d="M74.962,161.364c14.787,1-43.387-14.608-47.644-52.376S52.466,42.5,59.924,33.906,36.632-13.745,20.415,5.057-6.88,74.2,4.938,110.636,60.175,160.365,74.962,161.364Z" transform="matrix(0.454, -0.891, 0.891, 0.454, 38.732, 249.707)" fill="#07f" fill-rule="evenodd"/>
  </g>
</svg>
