<svg xmlns="http://www.w3.org/2000/svg" xmlns:xlink="http://www.w3.org/1999/xlink" viewBox="0 0 2018.048 646.515"
  preserveAspectRatio="none">
  <defs>
    <linearGradient id="linear-gradient" x1="1.272" y1="-0.03" x2="0.16" y2="0.838" gradientUnits="objectBoundingBox">
      <stop offset="0" stop-color="#f5f5f5"/>
      <stop offset="0.297" stop-color="#fff"/>
      <stop offset="0.523" stop-color="#24d2ff"/>
      <stop offset="0.853" stop-color="#009aff"/>
      <stop offset="1" stop-color="#07f"/>
    </linearGradient>
    <filter id="Union_47" x="0" y="0" width="2018.048" height="646.515" filterUnits="userSpaceOnUse">
      <feOffset dx="-9" dy="58" input="SourceAlpha"/>
      <feGaussianBlur stdDeviation="16" result="blur"/>
      <feFlood flood-color="#00327e" flood-opacity="0.529"/>
      <feComposite operator="in" in2="blur"/>
      <feComposite in="SourceGraphic"/>
    </filter>
  </defs>
  <g id="logo_bg" data-name="logo bg" transform="translate(-718.519 -147.528)" opacity="0.38" style="isolation: isolate">
    <g transform="matrix(1, 0, 0, 1, 718.52, 147.53)" filter="url(#Union_47)">
      <path id="Union_47-2" data-name="Union 47" d="M194.713,533.874l-61.365-24.416c-12.339-4.91-8.056-11.679,9.57-15.119l87.636-17.095c17.626-3.44,41.923-2.245,54.265,2.665l61.362,24.416c6.171,2.456,8.185,5.375,6.454,8.111s-7.209,5.288-16.023,7.007l-87.632,17.1a119.507,119.507,0,0,1-22.316,1.964C214.378,538.5,202.291,536.891,194.713,533.874Zm179.9-34.744-60.869-24.868c-11.914-4.866-7.719-11.492,9.451-14.931l87.724-17.567c17.782-3.56,42.6-2.341,54.932,2.7l60.869,24.866c5.957,2.434,7.886,5.307,6.181,8s-7.049,5.21-15.632,6.93l-87.724,17.568a118.7,118.7,0,0,1-22.7,2.041C394.409,503.87,382.173,502.217,374.615,499.13ZM67.645,484.049,6.776,459.182c-11.914-4.867-7.719-11.492,9.451-14.931l87.724-17.567c17.779-3.56,42.593-2.341,54.932,2.7l60.869,24.867c5.957,2.433,7.886,5.307,6.178,8s-7.046,5.211-15.629,6.93l-87.724,17.568a118.75,118.75,0,0,1-22.7,2.041C87.439,488.79,75.2,487.136,67.645,484.049ZM248.683,448.6l-61.365-24.416c-12.342-4.911-8.056-11.68,9.566-15.119l87.639-17.095c17.626-3.44,41.92-2.246,54.265,2.665l61.362,24.416c6.171,2.455,8.185,5.375,6.454,8.11s-7.209,5.288-16.023,7.008l-87.632,17.095a119.511,119.511,0,0,1-22.319,1.965C268.345,453.232,256.26,451.618,248.683,448.6Zm-97.988-71.316-11.22-22.247c-2.259-4.475,8.934-8.612,24.991-9.241l79.852-3.126c16.061-.629,30.907,2.488,33.166,6.963l11.223,22.246c1.126,2.238-1.106,4.39-5.63,6.063s-11.335,2.863-19.364,3.178l-79.852,3.127c-1.385.054-2.762.081-4.122.081C165.332,384.329,152.759,381.374,150.695,377.286Zm163.49-6.184-10.339-22.5c-2.021-4.4,8.934-8.455,24.685-9.127l80.491-3.434c16.309-.7,31.479,2.488,33.571,7.048l10.339,22.5c1.014,2.2-1.221,4.315-5.678,5.963s-11.131,2.827-19.007,3.164l-80.488,3.434c-1.506.064-3.006.1-4.483.1C328.754,378.247,316.084,375.241,314.185,371.1Zm1198.767-27.043-30.567-8.6c-6.2-1.743-6.022-4.566.391-6.249l31.625-8.3a44.615,44.615,0,0,1,11.019-1.187,42.906,42.906,0,0,1,10.862,1.293l30.567,8.6c6.192,1.744,6.015,4.567-.391,6.249l-31.625,8.3a44.324,44.324,0,0,1-10.743,1.187A43.289,43.289,0,0,1,1512.952,344.059ZM126.557,331.711l-10.339-22.5c-2.024-4.4,8.934-8.455,24.685-9.127l80.488-3.433c16.313-.7,31.482,2.488,33.574,7.048L265.3,326.2c1.01,2.2-1.221,4.315-5.678,5.963s-11.131,2.827-19.007,3.164l-80.488,3.434c-1.506.064-3.006.1-4.483.1C141.126,338.856,128.456,335.85,126.557,331.711Zm1156.879,3.131-9.961-8.692c-2.017-1.761,1.568-3.64,7.94-4.159l31.431-2.56a40.2,40.2,0,0,1,8.859.253c2.63.39,4.733,1.054,5.705,1.9l9.961,8.691c2.021,1.763-1.565,3.642-7.937,4.16L1298,337c-1.106.09-2.222.133-3.32.133C1289.673,337.132,1285.035,336.237,1283.436,334.842ZM291.67,325.165l-11.223-22.247c-2.255-4.475,8.934-8.611,24.991-9.24l79.852-3.127c16.061-.628,30.907,2.489,33.166,6.964l11.223,22.246c1.126,2.238-1.106,4.39-5.627,6.062s-11.335,2.864-19.368,3.178l-79.848,3.127c-1.387.054-2.765.081-4.127.081C306.3,332.208,293.731,329.253,291.67,325.165Zm1055.465,4.194-9.481-8.641c-1.905-1.737,1.606-3.577,7.841-4.109l31.013-2.642a40.24,40.24,0,0,1,9,.242c2.667.4,4.8,1.075,5.75,1.943l9.481,8.64c1.909,1.738-1.6,3.577-7.842,4.109l-31.013,2.643c-1.149.1-2.312.144-3.454.144C1353.372,331.688,1348.692,330.776,1347.135,329.359Zm229.261-2.472-29.89-8.622c-6.011-1.734-5.838-4.5.388-6.174l30.948-8.327A44.375,44.375,0,0,1,1589,302.539a42.533,42.533,0,0,1,11,1.333l29.89,8.622c6.011,1.735,5.838,4.5-.388,6.174l-30.948,8.327a43.922,43.922,0,0,1-10.883,1.225A42.918,42.918,0,0,1,1576.4,326.887Zm-124.976-.607-29.887-8.623c-6.015-1.734-5.841-4.5.385-6.174l30.951-8.327a44.285,44.285,0,0,1,11.159-1.225,42.624,42.624,0,0,1,11,1.332l29.89,8.623c6.008,1.734,5.835,4.5-.388,6.174l-30.951,8.328a43.952,43.952,0,0,1-10.883,1.224A42.944,42.944,0,0,1,1451.42,326.28Zm-187.468-9.244-9.481-8.641c-1.905-1.737,1.606-3.577,7.842-4.109l31.013-2.641a40.175,40.175,0,0,1,9,.241c2.671.4,4.8,1.075,5.749,1.944l9.481,8.639c1.909,1.738-1.6,3.578-7.842,4.109l-31.012,2.642c-1.149.1-2.312.144-3.454.144C1270.189,319.365,1265.51,318.453,1263.953,317.036Zm-769.281-6.43L463.727,292.93c-6.226-3.556-.925-7.845,11.836-9.579l63.451-8.622c12.761-1.734,28.155-.257,34.381,3.3l30.945,17.678c3.113,1.777,3.344,3.738,1.2,5.472s-6.658,3.239-13.036,4.106L529.052,313.9a84.5,84.5,0,0,1-11.252.727C508.278,314.631,499.127,313.151,494.671,310.606Zm833.124.993-9.958-8.692c-2.021-1.761,1.565-3.64,7.937-4.159l31.435-2.559a40.115,40.115,0,0,1,8.855.253c2.63.389,4.732,1.054,5.709,1.9l9.957,8.691c2.021,1.763-1.565,3.641-7.937,4.16l-31.435,2.56c-1.1.09-2.218.133-3.314.133C1334.035,313.89,1329.4,312.995,1327.795,311.6Zm187.345-2.461-30.567-8.6c-6.195-1.744-6.018-4.568.391-6.249l31.625-8.3a44.657,44.657,0,0,1,11.019-1.188,42.941,42.941,0,0,1,10.862,1.294l30.567,8.6c6.192,1.743,6.015,4.567-.391,6.249l-31.625,8.3a44.292,44.292,0,0,1-10.744,1.188A43.289,43.289,0,0,1,1515.14,309.139ZM1176,304.1l-16.731-6.486c-3.392-1.316-2.232-3.15,2.572-4.061l23.685-4.5a33.6,33.6,0,0,1,7.621-.457,22.551,22.551,0,0,1,6.6,1.156l16.734,6.486c3.392,1.315,2.232,3.149-2.572,4.061l-23.685,4.5a31.934,31.934,0,0,1-5.818.5A25.417,25.417,0,0,1,1176,304.1Zm-551.21-10.962L594.34,275.18c-5.964-3.515-.776-7.713,11.689-9.459l63.682-8.927c12.907-1.809,28.628-.3,34.8,3.338l30.458,17.957c2.98,1.757,3.174,3.685,1.065,5.392s-6.522,3.193-12.754,4.067L659.6,296.474a84.1,84.1,0,0,1-11.536.766C638.44,297.24,629.194,295.729,624.794,293.136Zm598.923,1.6-16.285-6.479c-3.276-1.3-2.14-3.1,2.538-4.012l23.26-4.538a33.42,33.42,0,0,1,7.726-.477,22.272,22.272,0,0,1,6.675,1.185l16.285,6.48c3.276,1.3,2.136,3.1-2.541,4.012l-23.256,4.536a31.706,31.706,0,0,1-5.923.521A25.137,25.137,0,0,1,1223.717,294.731Zm-81.226-3.99-16.285-6.479c-3.276-1.3-2.136-3.1,2.541-4.012L1152,275.711a33.422,33.422,0,0,1,7.726-.477,22.3,22.3,0,0,1,6.678,1.185l16.282,6.48c3.276,1.3,2.14,3.1-2.538,4.012l-23.256,4.536a31.707,31.707,0,0,1-5.924.521A25.148,25.148,0,0,1,1142.491,290.741Zm47.88-9.339-16.734-6.486c-3.392-1.315-2.232-3.15,2.572-4.062l23.685-4.5a33.621,33.621,0,0,1,7.62-.457,22.61,22.61,0,0,1,6.6,1.155l16.731,6.486c3.392,1.315,2.232,3.15-2.568,4.062l-23.688,4.5a31.912,31.912,0,0,1-5.819.5A25.38,25.38,0,0,1,1190.371,281.4Zm-760.052-6.923-30.458-17.956c-5.96-3.515-.772-7.712,11.693-9.459l63.682-8.927c12.907-1.808,28.628-.3,34.8,3.339l30.458,17.957c2.98,1.756,3.174,3.684,1.065,5.392s-6.525,3.193-12.754,4.067l-63.682,8.925a84.094,84.094,0,0,1-11.536.766C443.964,278.584,434.718,277.072,430.319,274.479Zm845.5-10.9-29.805-.623c-6.042-.126-10.522-1.614-9.92-3.294l2.973-8.286c.293-.81,1.718-1.515,3.8-2a32.413,32.413,0,0,1,7.736-.694l29.805.623c6.038.127,10.519,1.615,9.917,3.294l-2.973,8.286c-.551,1.545-5.226,2.7-10.71,2.7C1276.37,263.593,1276.1,263.59,1275.823,263.584Zm-185.858-2.262-1.5-5.081c-.3-1.03,2.5-1.928,6.2-1.988l18.269-.292a19.466,19.466,0,0,1,4.712.447c1.255.3,2.1.74,2.249,1.238l1.5,5.08c.306,1.031-2.494,1.928-6.2,1.988l-18.272.293c-.128,0-.256,0-.382,0C1093.128,263.011,1090.249,262.282,1089.964,261.322Zm37.16-.755-1.262-5.037c-.255-1.013,2.487-1.892,6.124-1.963l18.078-.353a19.553,19.553,0,0,1,4.79.447c1.276.309,2.13.753,2.256,1.26l1.266,5.037c.252,1.013-2.49,1.891-6.124,1.963l-18.082.353q-.233,0-.463,0C1130.269,262.279,1127.368,261.538,1127.124,260.567Zm87.952,1.524-29.482-.719c-5.933-.145-10.322-1.6-9.8-3.254l2.575-8.214c.262-.827,1.7-1.545,3.81-2.039a32.493,32.493,0,0,1,7.869-.692l29.485.719c5.93.144,10.315,1.6,9.8,3.253l-2.578,8.216c-.49,1.562-5.2,2.741-10.73,2.741Q1215.554,262.1,1215.076,262.091Zm-298.734-.779-45.383-.949c-9.192-.192-16.017-2.458-15.1-5.014l4.528-12.616c.888-2.469,8.678-4.29,17.561-4.105l45.376.95c9.2.191,16.02,2.457,15.1,5.014L933.9,257.207c-.442,1.234-2.613,2.307-5.78,3.048a47.923,47.923,0,0,1-10.534,1.07Q916.968,261.325,916.343,261.312Zm-354.9-4.729-30.945-17.677c-6.226-3.556-.925-7.844,11.836-9.579l63.451-8.621c12.761-1.734,28.155-.258,34.381,3.3l30.945,17.678c3.113,1.777,3.344,3.738,1.2,5.472s-6.658,3.239-13.04,4.107l-63.447,8.621a84.5,84.5,0,0,1-11.25.727C575.047,260.608,565.9,259.128,561.439,256.583Zm262.417,2.454-44.893-1.095c-9.029-.22-15.707-2.438-14.918-4.953l3.926-12.506c.793-2.516,8.753-4.377,17.782-4.157l44.889,1.095c9.029.22,15.711,2.437,14.918,4.953l-3.922,12.506c-.4,1.259-2.586,2.352-5.8,3.105a47.866,47.866,0,0,1-10.531,1.07Q824.585,259.055,823.856,259.037Zm263.533-8.093-1.262-5.037c-.255-1.014,2.487-1.892,6.124-1.963l18.078-.353a19.589,19.589,0,0,1,4.79.447c1.276.308,2.13.753,2.255,1.259l1.266,5.038c.252,1.013-2.49,1.891-6.124,1.963l-18.082.352q-.236,0-.469,0C1090.53,252.655,1087.633,251.913,1087.389,250.944Zm37.218-.724-1.5-5.082c-.306-1.029,2.5-1.927,6.2-1.987l18.272-.293a19.5,19.5,0,0,1,4.708.448c1.255.3,2.1.739,2.249,1.237l1.5,5.081c.306,1.03-2.494,1.928-6.2,1.987l-18.269.294q-.192,0-.382,0C1127.771,251.908,1124.892,251.178,1124.607,250.22Zm156.335-3.527-29.485-.718c-5.93-.145-10.315-1.6-9.8-3.254l2.579-8.215c.262-.827,1.7-1.545,3.81-2.039a32.5,32.5,0,0,1,7.869-.691l29.485.718c5.93.144,10.315,1.6,9.8,3.254l-2.579,8.215c-.489,1.562-5.2,2.741-10.73,2.741Q1281.421,246.7,1280.942,246.693ZM1431,244.041l-20.327-11.611c-2.045-1.168-2.194-2.455-.789-3.593s4.375-2.128,8.563-2.7l41.675-5.663c8.383-1.139,18.49-.17,22.579,2.167l20.327,11.61c4.086,2.334.606,5.151-7.774,6.291l-41.674,5.662a55.567,55.567,0,0,1-7.393.477C1439.936,246.684,1433.929,245.712,1431,244.041ZM1220.39,245.18l-29.8-.624c-6.042-.126-10.522-1.613-9.92-3.294l2.97-8.285c.292-.811,1.718-1.516,3.8-2a32.347,32.347,0,0,1,7.736-.694l29.8.623c6.042.128,10.522,1.615,9.92,3.294l-2.973,8.286c-.551,1.546-5.229,2.7-10.719,2.705Q1220.8,245.189,1220.39,245.18Zm-245.451-5.565c-1.912-.463-3.2-1.126-3.423-1.883L969.227,230c-.463-1.568,3.8-2.935,9.441-3.025l27.818-.445c5.447-.087,10.145,1.051,10.594,2.565l2.289,7.738c.463,1.568-3.8,2.934-9.441,3.024l-27.818.446c-.2,0-.391,0-.585,0A29.015,29.015,0,0,1,974.939,239.616Zm56.589-1.116c-1.943-.47-3.239-1.147-3.433-1.917l-1.926-7.67c-.384-1.542,3.786-2.879,9.325-2.989l27.526-.536c5.538-.108,10.342,1.055,10.727,2.6l1.926,7.67c.384,1.542-3.79,2.879-9.325,2.988l-27.526.536q-.359.007-.713.007A28.96,28.96,0,0,1,1031.528,238.5ZM924.14,235.593,879.247,234.5c-9.029-.22-15.707-2.438-14.918-4.953l3.929-12.506c.789-2.516,8.75-4.377,17.779-4.157l44.889,1.095c9.032.22,15.71,2.437,14.918,4.952l-3.923,12.507c-.395,1.258-2.585,2.352-5.8,3.105a47.922,47.922,0,0,1-10.534,1.07Q924.869,235.611,924.14,235.593Zm592.33-3.027-20-11.794c-1.96-1.154-2.085-2.421-.7-3.542s4.283-2.1,8.376-2.671l41.828-5.863c8.474-1.188,18.8-.2,22.855,2.192l20,11.8c3.916,2.308.507,5.064-7.678,6.212l-41.824,5.862a55.245,55.245,0,0,1-7.577.5C1525.428,235.261,1519.357,234.269,1516.47,232.566Zm-684.524.724-45.379-.949c-9.2-.192-16.02-2.458-15.1-5.014l4.525-12.615c.888-2.469,8.678-4.291,17.561-4.1l45.376.949c9.2.192,16.02,2.458,15.1,5.014L849.5,229.185c-.439,1.235-2.609,2.308-5.78,3.049a47.873,47.873,0,0,1-10.531,1.069Q832.573,233.3,831.946,233.29Zm139.081-9.442c-1.939-.47-3.235-1.146-3.429-1.917l-1.929-7.669c-.384-1.543,3.79-2.88,9.328-2.989l27.526-.536c5.535-.108,10.339,1.055,10.723,2.6l1.929,7.669c.384,1.542-3.79,2.88-9.325,2.988l-27.529.536q-.363.007-.721.007A28.963,28.963,0,0,1,971.026,223.848Zm56.657-1.137c-1.912-.463-3.2-1.126-3.422-1.883l-2.286-7.737c-.463-1.569,3.8-2.934,9.441-3.025l27.815-.445c5.45-.087,10.148,1.051,10.594,2.566l2.29,7.737c.463,1.569-3.8,2.934-9.437,3.024l-27.822.446q-.294,0-.586,0A28.981,28.981,0,0,1,1027.684,222.71Zm361.051-2.4-20-11.794c-1.956-1.154-2.085-2.421-.7-3.542s4.283-2.1,8.376-2.671l41.824-5.863c8.474-1.188,18.8-.2,22.858,2.192l20,11.8c3.916,2.308.51,5.064-7.675,6.212l-41.828,5.862a55.25,55.25,0,0,1-7.578.5C1397.7,223.008,1391.624,222.015,1388.735,220.312Zm86.122-11.754-20.327-11.611c-2.041-1.167-2.194-2.455-.786-3.593s4.372-2.128,8.56-2.7l41.675-5.663c8.386-1.139,18.49-.17,22.579,2.167l20.327,11.61c4.086,2.335.606,5.151-7.773,6.291l-41.675,5.662a55.525,55.525,0,0,1-7.391.477C1483.791,211.2,1477.783,210.23,1474.856,208.558Zm-568.737.916a34.377,34.377,0,0,1-10.05-1.76l-25.478-9.875c-5.164-2-3.4-4.795,3.916-6.184L910.57,184.8c7.059-1.341,16.67-.869,21.654,1.063l25.478,9.875c5.164,2,3.4,4.795-3.912,6.184l-36.065,6.852a48.561,48.561,0,0,1-8.861.763C907.942,209.541,907.024,209.518,906.12,209.474Zm72.755-14.218a33.925,33.925,0,0,1-10.162-1.8l-24.794-9.865c-4.987-1.985-3.256-4.719,3.865-6.11l35.411-6.907c7.12-1.39,16.939-.907,21.922,1.077l24.8,9.865c4.984,1.985,3.256,4.72-3.868,6.11l-35.408,6.908a48.273,48.273,0,0,1-9.013.793C980.7,195.323,979.782,195.3,978.875,195.256Zm-513.022-1.441a65.341,65.341,0,0,1-16.541-1.971l-46.539-13.1c-9.43-2.654-9.162-6.953.6-9.514l48.152-12.638c9.424-2.474,24.212-2.4,33.319.162l46.536,13.1c9.43,2.654,9.162,6.953-.6,9.514l-48.149,12.638a67.414,67.414,0,0,1-16.358,1.809Zm389.352-4.635a33.959,33.959,0,0,1-10.162-1.8l-24.794-9.866c-4.987-1.984-3.256-4.719,3.865-6.11l35.411-6.907c7.12-1.389,16.935-.907,21.926,1.078l24.794,9.864c4.987,1.986,3.256,4.72-3.868,6.11l-35.408,6.908a48.27,48.27,0,0,1-9.013.793C857.033,189.247,856.112,189.225,855.205,189.18Zm767.931-5.47-7.369-14.612c-.742-1.47.725-2.884,3.695-3.982a43.761,43.761,0,0,1,12.72-2.088l52.445-2.053c10.55-.413,20.3,1.634,21.786,4.573l7.369,14.612c1.483,2.939-5.868,5.657-16.415,6.07l-52.445,2.053c-.91.036-1.815.053-2.709.053C1632.75,188.337,1624.492,186.4,1623.136,183.71Zm107.377-4.061-6.784-14.779c-.663-1.446.8-2.834,3.725-3.916a43.4,43.4,0,0,1,12.485-2.077l52.86-2.257c10.716-.457,20.681,1.635,22.055,4.63l6.79,14.779c1.327,2.893-5.868,5.552-16.21,5.994l-52.867,2.256c-.989.042-1.973.063-2.944.063C1740.088,184.342,1731.764,182.367,1730.514,179.649Zm-802.523-4.732a34.4,34.4,0,0,1-10.053-1.759l-25.474-9.876c-5.164-2-3.4-4.794,3.912-6.183l36.065-6.854c7.059-1.34,16.666-.868,21.654,1.064l25.478,9.876c5.161,2,3.4,4.794-3.912,6.183l-36.068,6.853a48.6,48.6,0,0,1-8.855.763C929.815,174.985,928.9,174.962,927.991,174.917Zm-240.722-5.666c-4-.593-7.206-1.606-8.689-2.9l-15.163-13.233c-3.075-2.681,2.385-5.543,12.084-6.332l47.856-3.9c9.369-.762,19.211.7,22.178,3.285L760.7,159.406c3.075,2.681-2.388,5.543-12.084,6.332l-47.859,3.9c-1.683.137-3.382.2-5.053.2A58.511,58.511,0,0,1,687.269,169.251Zm-124.612-1.523a64.739,64.739,0,0,1-16.745-2.028L500.4,152.571c-9.151-2.641-8.889-6.849.589-9.4l47.125-12.678c9.478-2.551,24.583-2.477,33.738.164l45.505,13.129c9.151,2.64,8.886,6.849-.589,9.4l-47.125,12.679a66.9,66.9,0,0,1-16.574,1.865ZM372.376,166.8a64.829,64.829,0,0,1-16.748-2.029l-45.505-13.128c-9.155-2.642-8.889-6.849.589-9.4l47.125-12.678c9.478-2.551,24.579-2.477,33.734.164l45.509,13.129c9.151,2.641,8.889,6.848-.592,9.4l-47.121,12.678a66.873,66.873,0,0,1-16.575,1.866Zm411.942-5.842c-4.062-.6-7.3-1.636-8.753-2.959l-14.438-13.155c-2.9-2.646,2.443-5.447,11.941-6.257l47.22-4.022c9.495-.808,19.548.681,22.453,3.327l14.435,13.154c2.905,2.647-2.439,5.447-11.941,6.257l-47.216,4.022c-1.752.149-3.524.221-5.266.221A58.477,58.477,0,0,1,784.318,160.961Zm822.969-7.184L1600.5,139c-.663-1.446.8-2.835,3.729-3.916A43.41,43.41,0,0,1,1616.71,133l52.864-2.255c10.71-.459,20.674,1.633,22.048,4.629l6.791,14.779c1.327,2.892-5.865,5.552-16.211,5.993l-52.867,2.257c-.99.042-1.973.063-2.944.063C1616.854,158.47,1608.534,156.5,1607.286,153.777Zm108.442-4.3-7.372-14.612c-.742-1.469.724-2.883,3.7-3.982a43.74,43.74,0,0,1,12.717-2.087l52.445-2.053c10.55-.414,20.3,1.634,21.786,4.573l7.372,14.612c1.48,2.938-5.869,5.656-16.418,6.069l-52.445,2.054c-.909.036-1.812.053-2.7.053C1725.345,154.1,1717.081,152.163,1715.729,149.477ZM657.671,142.2c-4.065-.6-7.3-1.636-8.753-2.959L634.48,126.086c-2.9-2.647,2.443-5.447,11.938-6.257l47.22-4.022c9.495-.809,19.548.681,22.453,3.326l14.438,13.155c2.9,2.647-2.443,5.447-11.941,6.257l-47.216,4.022c-1.753.149-3.526.221-5.268.221A58.419,58.419,0,0,1,657.671,142.2Zm-188.488-1.554a65.344,65.344,0,0,1-16.541-1.97l-46.539-13.1c-9.43-2.655-9.162-6.952.6-9.515l48.152-12.638c9.42-2.473,24.209-2.4,33.316.162l46.536,13.1c9.43,2.656,9.162,6.953-.6,9.515l-48.149,12.638a67.417,67.417,0,0,1-16.357,1.809Zm285.625-6.784c-4-.592-7.205-1.6-8.692-2.9l-15.163-13.233c-3.072-2.681,2.388-5.543,12.087-6.332l47.856-3.9c9.369-.763,19.208.695,22.178,3.285l15.166,13.233c3.072,2.681-2.388,5.543-12.087,6.332l-47.859,3.9c-1.682.137-3.379.2-5.05.2A58.408,58.408,0,0,1,754.809,133.862ZM1697.487,94.49l-40.3-16.035c-4.052-1.613-5.375-3.532-4.239-5.329s4.735-3.473,10.526-4.6L1721.029,57.3c11.574-2.259,27.533-1.475,35.64,1.752l40.3,16.035c8.11,3.225,5.293,7.672-6.284,9.93L1733.13,96.241a78.5,78.5,0,0,1-14.658,1.29C1710.4,97.531,1702.466,96.471,1697.487,94.49ZM1815.646,71.67l-39.977-16.333c-3.912-1.6-5.178-3.485-4.059-5.255s4.627-3.423,10.264-4.55l57.616-11.539c11.679-2.338,27.978-1.537,36.082,1.772L1915.549,52.1c7.824,3.2,5.072,7.548-6.205,9.805l-57.62,11.539a77.96,77.96,0,0,1-14.91,1.341C1828.646,74.783,1820.609,73.7,1815.646,71.67Zm-201.616-9.9-39.977-16.334c-3.912-1.6-5.178-3.485-4.058-5.255s4.627-3.422,10.264-4.55l57.616-11.539c11.679-2.338,27.978-1.537,36.082,1.772l39.977,16.333c7.824,3.2,5.073,7.548-6.205,9.806l-57.617,11.539a78,78,0,0,1-14.911,1.34C1627.031,64.879,1618.993,63.793,1614.029,61.766Zm118.9-23.281-40.3-16.037c-4.052-1.612-5.375-3.531-4.239-5.328s4.736-3.473,10.526-4.6l57.558-11.229c11.574-2.258,27.533-1.474,35.64,1.751l40.3,16.036c8.11,3.225,5.3,7.672-6.284,9.93l-57.555,11.229a78.538,78.538,0,0,1-14.657,1.289C1745.85,41.525,1737.912,40.465,1732.933,38.485Z" transform="translate(58.03 1.01)" stroke="#f5f5f5" stroke-linecap="round" stroke-width="2" fill="url(#linear-gradient)"/>
    </g>
  </g>
</svg>
