<svg xmlns="http://www.w3.org/2000/svg" xmlns:xlink="http://www.w3.org/1999/xlink" width="1920" height="506" viewBox="0 0 1920 506"><defs><clipPath id="a"><rect width="1920" height="506" transform="translate(0 97)" fill="#fff"/></clipPath><linearGradient id="b" x1="0.049" y1="0.562" x2="0.953" y2="0.549" gradientUnits="objectBoundingBox"><stop offset="0" stop-color="#3c9e5d"/><stop offset="0.527" stop-color="#ac8e44"/><stop offset="1" stop-color="#a6c53f"/></linearGradient><linearGradient id="c" x1="0.5" x2="0.5" y2="1" gradientUnits="objectBoundingBox"><stop offset="0" stop-color="#115e2b"/><stop offset="1"/></linearGradient><radialGradient id="d" cx="0.512" cy="0.361" r="0.5" gradientUnits="objectBoundingBox"><stop offset="0" stop-color="#225858"/><stop offset="1"/></radialGradient></defs><g transform="translate(0 -97)" clip-path="url(#a)"><g fill="#1a5045" stroke="#1a5045" stroke-linecap="round" stroke-linejoin="round" stroke-width="3"><rect width="1920" height="603" stroke="none"/><rect x="-1.5" y="-1.5" width="1923" height="606" fill="none"/></g><g transform="translate(728.047 150)"><g transform="translate(0.001 0)"><path d="M201.742,394.911A72.951,72.951,0,0,1,181,383.665a56.886,56.886,0,0,1-13.983-15.5,36.185,36.185,0,0,1-4.86-13.326,156.56,156.56,0,0,1-10.424-25.926c-5.746-19-5.088-44.8-9.112-47.208-8.265-4.94-12.739,23.442-14.493,23.442-1.449,0-24.314-31.257-30.776-46.41a115.9,115.9,0,0,1-7.261-22.933,65.418,65.418,0,0,1-.805-22.833c1.464-9.109,5.962-19.383,13.371-30.551a166.37,166.37,0,0,1,11.725-15.482c4.2-4.947,8.82-9.9,13.746-14.723a224.794,224.794,0,0,1,29.555-24.473c9.884-6.768,18.743-11.383,25.619-13.347a17.164,17.164,0,0,1,4.688-.708c4.117,0,7.548,1.863,10.2,5.538,2.4,3.334,4.177,8.165,5.275,14.358a99.683,99.683,0,0,1,1.291,18.327c-.145,12.372-1.953,24.238-3.581,29.121-.551,1.652-1.245,2.454-2.125,2.456-1.88,0-4.408-3.635-7.608-8.236l-.009-.009c-1.088-1.564-2.213-3.18-3.427-4.821-4.5-6.083-10.587-13.065-17.817-13.065a11.616,11.616,0,0,0-2.915.376c-16.648,4.407-35.434,21.4-34.705,43.91s34.5,26.208,37.62,40.661c.763,3.533-3.035,38.017-3.087,56.677,1.79-11.223,4.271-24.208,7.642-37.192,5.525-21.282,12.274-38.181,20.06-50.225,4.515-6.985,9.428-12.384,14.6-16.045a30.927,30.927,0,0,1,18.1-6.013c.147,0,.293,0,.44,0,5,1.987,29.062,13.972,29.062,60.47,0,13.1-6.606,29.04-13.005,45.563a54.308,54.308,0,0,0-7.141,1.235,44.65,44.65,0,0,1-5.239.953c-1.921.181-2.821.3-3.356.379a5.309,5.309,0,0,1-.69.07,5.785,5.785,0,0,1-.709-.07c-.56-.075-1.495-.2-3.472-.379a47.808,47.808,0,0,1-5.392-.95,46.317,46.317,0,0,0-9.775-1.341,22.517,22.517,0,0,0-10.08,2.291c-10.527,5.127-14.457,11.023-14.5,21.754-.045,11.2,6.854,17.788,14.316,23.237,5,3.644,10.656,7.775,15.053,13.718a117.883,117.883,0,0,1,11.324,18.569,64.358,64.358,0,0,1,3.168,7.543l.041-.118q.005.374.013.743a6.458,6.458,0,0,1-.055.955h0a32.235,32.235,0,0,0-11.487-2.436c-.346,0-.681.008-1,.024-4.257.2-13.119.621-13.775,2.459-.124.349.049.738.516,1.157.744.666,2.593.944,5.152,1.33h.01a63.017,63.017,0,0,1,8.1,1.625c5.779,1.652,11.582,3.967,12.391,4.294q.07.041.144.08c3.428,1.833,16.971,1.183,18.77,4.141a76.591,76.591,0,0,1-44.586-1.9ZM155.233,361.5a6.905,6.905,0,0,1-1.683-.263c-2.412-.634-5.847-2.578-10.207-5.778a170.636,170.636,0,0,1-13.472-11.232,317.5,317.5,0,0,1-25.739-26.384c-1.793-2.1-3.608-4.2-5.365-6.228l-.024-.027c-12.862-14.863-25.01-28.9-33.182-49.186a151.7,151.7,0,0,1-9.906-73.466C56.872,177.749,97.9,44.627,200.828,24.685a81.016,81.016,0,0,0-31.685,4.759c-29.005,10.876-38.433,17.706-58.009,29C91.418,69.825,71.367,71.95,71.008,71.089c-.618-1.478,2.023-4.153,5.079-7.246,2.589-2.628,5.526-5.6,7.205-8.53,1.942-3.391,1.842-6.108-.307-8.308-4.257-4.359-13.835-9.531-25.619-13.834a138.039,138.039,0,0,0-17.04-5.038,72.873,72.873,0,0,0-15.421-1.98,21.156,21.156,0,0,0-9.116,1.613,6.443,6.443,0,0,0-3.93,5.345c-.528,5.454.483,16.485,3.934,28.836,2.707,9.688,7.759,23.246,16.459,32.829,6.495,7.156,13.914,10.779,22.05,10.779a29.179,29.179,0,0,0,4.636-.38C48.215,126.3,45.9,138.085,41.7,159.478c-1.086,5.558-2.327,11.855-3.873,19.15-5.242,24.745.388,44.275,3.092,53.66.887,3.08,1.422,4.934,1.086,5.386a.263.263,0,0,1-.22.106h0a.828.828,0,0,1-.332-.091c-.988-.453-2.885-3.228-5.073-7.418A145.767,145.767,0,0,1,23.4,192.611,73.412,73.412,0,0,1,22.166,171.4q2.224-20.027,4.45-40.055l.37-3.337c-1.107-7.038-5.287-16.886-10.128-28.287C10.3,84.276,2.868,66.774.644,50.59A62.547,62.547,0,0,1,.065,38.8,40.678,40.678,0,0,1,2.058,27.935a31.8,31.8,0,0,1,5.163-9.558,35.192,35.192,0,0,1,8.919-7.889A41.465,41.465,0,0,1,26.359,5.755a33.809,33.809,0,0,1,9.633-1.414A42.988,42.988,0,0,1,52.579,8.025a135.287,135.287,0,0,1,15.16,7.867c7.012,4.025,13.636,7.826,20.118,9.058a14.561,14.561,0,0,0,2.674.22c7.042,0,19.24-3.509,33.362-7.573,16.777-4.827,52.649-11.9,52.649-11.9S213.9-1.752,226.847.386a12.333,12.333,0,0,0,.238,15.867c9.866,12.132,34.824,28.348,34.824,43.615,0,21.716-25.281,37.042-32.762,41.1-.694.32-1.225.56-1.565.726-.142.076-.278.153-.412.23-.012.012-.018.021-.018.028l-.015-.009-.015.009c0-.007-.007-.016-.018-.028-.133-.078-.271-.154-.412-.23-.462-.226-1.281-.59-2.379-1.1-7.364-2.984-20.471-5.2-26.734-5.112-22.336,0-51.609,16.265-80.312,44.624-6.032,5.96-11.829,12.263-17.23,18.734a227.964,227.964,0,0,0-14.116,18.707c-8.3,12.35-13.61,23.439-14.937,31.225-2.427,14.231,2.6,32.356,14.937,53.873,10.31,17.983,23.454,34.511,32.149,45.451l1.086,1.359a25.778,25.778,0,0,0,4.866,4.913,6.688,6.688,0,0,0,3.768,1.469c3.964,0,5.878-5.921,7.1-11.078.34-1.425.634-2.825.913-4.18v-.012c.8-3.847,1.435-6.884,2.429-6.884a.54.54,0,0,1,.245.06c1.929.92,2.085,5.763,2.306,12.464.208,6.388.468,14.334,2.29,22.49,1.661,7.442,5.842,15.1,9.2,21.257,2.9,5.306,5.184,9.5,4.313,10.961a1.436,1.436,0,0,1-1.356.584Zm61.891-7.288c-1.365-3.69-3.424-9.267-6.924-14.068a11.755,11.755,0,0,0-4.486-3.68,29.863,29.863,0,0,0-5.131-1.778c-5.57-1.555-10.378-2.9-7.949-14.568h0a17.091,17.091,0,0,0,1.326,4.117,9.708,9.708,0,0,0,2.055,2.927,5.482,5.482,0,0,0,3.339,1.529,2.258,2.258,0,0,0,.247.009c2.17,0,4.281-2.306,6.324-4.536l.09-.1c2.086-2.278,4.057-4.431,6.041-4.431a3.742,3.742,0,0,1,2.961,1.929c2.912,4.091,4.07,13.4,4.5,18.59.621,7.466.452,14.53-.06,16.8-.159.7-.326,1.025-.527,1.025C218.511,357.967,217.959,356.472,217.124,354.208Zm-54.273-127.9c-6.382-4.331-14.325-9.95-15.933-12.127-.379-.512-.513-.856-.415-1.053.064-.127.23-.19.5-.19,1.065,0,3.611,1,6.557,2.152,3.636,1.425,7.758,3.041,10.447,3.328a19.045,19.045,0,0,0,1.96.085,89.9,89.9,0,0,0,9.276-.706c.025-.01,2.545-1.07,2.674-2.7.073-.916-.624-1.835-2.071-2.729-3.117-1.924-7.864-3.222-12.455-4.474-2.782-.759-5.658-1.54-8.153-2.463a22.926,22.926,0,0,1-7.373-4.884c-2.493-2.4-4.018-4.826-4.295-6.83a3.613,3.613,0,0,1,1.54-3.647,36.461,36.461,0,0,1,18.693-5.987,17.5,17.5,0,0,1,7,1.326,13.187,13.187,0,0,1,5.652,4.661c4.423,6.379,4.949,15.8,4.611,22.584a80.088,80.088,0,0,1-1.63,12.358,65.887,65.887,0,0,1-2.984,10.257l0,0C176.176,235.1,169.635,230.919,162.851,226.311Z" transform="translate(0 0)" fill="#fff"/></g></g><g transform="translate(913.486 150)"><path d="M69.43,396.81h0c-1.04-1.707-5.929-2.2-10.656-2.686-3.428-.349-6.664-.679-8.113-1.453l-.139-.078.082.033.009,0c.656-.265,6.583-2.642,12.47-4.325a63.252,63.252,0,0,1,8.1-1.625c2.568-.386,4.423-.665,5.163-1.332.467-.419.64-.808.516-1.157-.654-1.836-9.516-2.257-13.775-2.459-.3-.016-.638-.024-1-.024A32.3,32.3,0,0,0,50.6,384.135a6.411,6.411,0,0,0,.055-.955c0-.247-.009-.494-.012-.744-.008.023-.016.046-.024.069l-.016.045a64.969,64.969,0,0,1,3.169-7.541A117.893,117.893,0,0,1,65.1,356.441c4.389-5.931,10.049-10.064,15.043-13.71l.011-.008c7.2-5.257,13.836-11.711,13.606-23.235-.214-10.721-4.144-16.617-14.5-21.754a21.655,21.655,0,0,0-9.839-2.291c-.743,0-1.522.035-2.316.1l1.4-3.6c5.969-15.335,11.607-29.82,11.607-41.965,0-19.683-4.258-35.471-12.656-46.926-6.557-8.944-13.657-12.452-16.405-13.545a30.858,30.858,0,0,1,17.627,6.009c5.156,3.658,10.042,9.057,14.524,16.045,7.722,12.036,14.39,28.935,19.819,50.226,2.831,11.1,5.307,23.374,7.359,36.466-.077-9.946-1.156-24.187-2.024-35.629-.791-10.438-1.416-18.68-1.061-20.324,1.344-6.216,8.448-10.5,15.969-15.032,9.954-6,21.236-12.8,21.651-25.629.7-21.55-17.1-39.249-34.705-43.91a11.619,11.619,0,0,0-2.915-.376c-7.228,0-13.318,6.982-17.817,13.065-1.23,1.665-2.4,3.342-3.427,4.822l-.009.009c-3.2,4.6-5.727,8.236-7.608,8.236-.88,0-1.575-.8-2.125-2.456-1.628-4.881-3.436-16.746-3.581-29.121a99.932,99.932,0,0,1,1.291-18.327c1.1-6.193,2.873-11.024,5.275-14.358,2.649-3.675,6.079-5.538,10.2-5.538a17.15,17.15,0,0,1,4.688.708c6.877,1.964,15.736,6.579,25.619,13.347a225.3,225.3,0,0,1,29.553,24.473c4.914,4.808,9.54,9.762,13.748,14.723a167,167,0,0,1,11.725,15.482c7.409,11.169,11.908,21.448,13.371,30.551a65.218,65.218,0,0,1-.805,22.833,116.129,116.129,0,0,1-7.262,22.933c-3.908,9.166-13.377,23.255-17.267,28.887-6.447,9.335-12.76,17.523-13.509,17.523-.522,0-1.274-2.481-2.316-5.914-2.187-7.21-5.493-18.1-10.263-18.1a3.725,3.725,0,0,0-1.913.577c-2.039,1.219-2.884,8.517-3.953,17.755-1.036,8.947-2.324,20.083-5.159,29.453a155.3,155.3,0,0,1-10.526,26.119,36.086,36.086,0,0,1-4.832,13.133,56.883,56.883,0,0,1-13.983,15.5,72.968,72.968,0,0,1-20.744,11.246c-2.044.719-4.14,1.357-6.23,1.9Zm52.52-35.3a1.44,1.44,0,0,1-1.164-.6c-.873-1.467,1.415-5.657,4.312-10.96l.008-.014c3.356-6.151,7.533-13.807,9.193-21.244,1.819-8.147,2.08-16.088,2.289-22.469V306.2l0-.047c.221-6.676.38-11.5,2.3-12.417a.543.543,0,0,1,.245-.06c.994,0,1.627,3.038,2.429,6.884v.012c.271,1.321.57,2.742.913,4.18,1.224,5.158,3.138,11.078,7.1,11.078a6.654,6.654,0,0,0,3.768-1.47,25.819,25.819,0,0,0,4.866-4.913l1.086-1.359.04-.05c8.687-10.93,21.815-27.446,32.109-45.4,12.339-21.518,17.364-39.644,14.937-53.873-1.327-7.782-6.632-18.871-14.937-31.225a228.9,228.9,0,0,0-14.116-18.707c-5.4-6.469-11.2-12.772-17.23-18.734C131.4,111.745,102.132,95.48,79.8,95.48l-.37,0c-6.487,0-19.14,2.187-26.364,5.114q-.433.2-.806.374c7.682-4.171,32.753-19.451,32.753-41.1,0-10.561-11.991-21.621-22.571-31.379-4.737-4.369-9.211-8.5-12.253-12.236A11.982,11.982,0,0,1,47.356,6.072,14.007,14.007,0,0,1,49.948.387c.1.016.206.034.305.052l.091.018.046-.009.046-.009A35.911,35.911,0,0,1,56.648,0c15.649,0,44.113,5.64,44.4,5.7.359.071,36.056,7.125,52.649,11.9,14.12,4.064,26.315,7.573,33.361,7.573h.147a14.605,14.605,0,0,0,2.527-.221c6.481-1.231,13.1-5.032,20.113-9.055a135.692,135.692,0,0,1,15.164-7.869A42.778,42.778,0,0,1,241.6,4.341a33.8,33.8,0,0,1,9.633,1.414,41.49,41.49,0,0,1,10.219,4.733,35.124,35.124,0,0,1,8.919,7.889,31.75,31.75,0,0,1,5.163,9.558A40.675,40.675,0,0,1,277.524,38.8a62.825,62.825,0,0,1-.579,11.793c-2.227,16.2-9.658,33.693-16.214,49.129-4.841,11.4-9.022,21.248-10.129,28.287l.371,3.337q1.116,10.046,2.232,20.09l.11.992q1.054,9.487,2.108,18.973a73.309,73.309,0,0,1-1.236,21.213,145.84,145.84,0,0,1-12.974,37.661c-2.19,4.191-4.086,6.964-5.073,7.418a.826.826,0,0,1-.332.091h-.014a.269.269,0,0,1-.212-.106c-.334-.45.2-2.3,1.08-5.356l.008-.029c2.7-9.388,8.332-28.922,3.092-53.66-1.523-7.185-2.749-13.4-3.874-19.15-4.2-21.391-6.514-33.174-17.237-54.3a29.231,29.231,0,0,0,4.636.38c8.138,0,15.557-3.627,22.05-10.779,8.7-9.582,13.752-23.141,16.459-32.829,3.451-12.351,4.462-23.383,3.934-28.836a6.431,6.431,0,0,0-3.93-5.345,21.163,21.163,0,0,0-9.116-1.613,73,73,0,0,0-15.421,1.98,138.643,138.643,0,0,0-17.041,5.038c-11.783,4.3-21.36,9.475-25.617,13.834-2.149,2.2-2.249,4.917-.307,8.308,1.66,2.9,4.559,5.843,7.116,8.439l.089.09c3.056,3.094,5.7,5.766,5.077,7.246-.046.11-.419.171-1.051.171a67.135,67.135,0,0,1-14.734-2.682,106.56,106.56,0,0,1-24.339-10.13c-3.3-1.9-6.285-3.666-9.171-5.37-14.352-8.47-24.72-14.59-48.838-23.634A79.286,79.286,0,0,0,80.515,24.61c-1.3,0-2.619.028-3.931.083a136.272,136.272,0,0,1,35.729,12.332A158.158,158.158,0,0,1,142.5,57.207c16.391,13.821,31.457,31.619,44.782,52.9A314.519,314.519,0,0,1,213,161.361c5.464,13.95,8.389,24.521,8.722,27.571a151.7,151.7,0,0,1-9.906,73.466c-8.173,20.287-20.321,34.325-33.182,49.186l-.024.027c-1.908,2.2-3.629,4.194-5.365,6.228A319.2,319.2,0,0,1,147.5,344.222a171.349,171.349,0,0,1-13.472,11.232c-4.361,3.2-7.795,5.143-10.207,5.778a6.917,6.917,0,0,1-1.683.263A1.367,1.367,0,0,1,121.95,361.508Zm-62.772-3.54c-.2,0-.368-.326-.527-1.025-.513-2.265-.681-9.331-.06-16.8.433-5.188,1.593-14.5,4.5-18.59a3.743,3.743,0,0,1,2.96-1.929c1.982,0,3.951,2.148,6.037,4.421l.009.01.091.1c2.041,2.231,4.151,4.537,6.324,4.537.088,0,.171,0,.247-.01a5.5,5.5,0,0,0,3.339-1.529,9.646,9.646,0,0,0,2.055-2.927,17.2,17.2,0,0,0,1.324-4.1v-.012c2.429,11.667-2.38,13.01-7.949,14.565a29.92,29.92,0,0,0-5.13,1.778,11.78,11.78,0,0,0-4.486,3.68c-3.521,4.831-5.568,10.388-6.922,14.065C60.155,356.471,59.6,357.967,59.178,357.967Zm42.478-122.685h0l0,0a66.089,66.089,0,0,1-2.982-10.258,80.521,80.521,0,0,1-1.631-12.356c-.338-6.781.187-16.2,4.611-22.584a13.175,13.175,0,0,1,5.654-4.663,17.38,17.38,0,0,1,6.68-1.329l.316,0a33.265,33.265,0,0,1,10.96,2.12,33.622,33.622,0,0,1,7.734,3.868,3.607,3.607,0,0,1,1.54,3.645c-.272,2-1.8,4.426-4.295,6.831a22.8,22.8,0,0,1-7.373,4.883c-2.473.912-5.32,1.69-8.074,2.443l-.079.021c-4.589,1.252-9.335,2.547-12.453,4.474-1.447.892-2.144,1.81-2.072,2.728.128,1.6,2.649,2.685,2.674,2.7a91.558,91.558,0,0,0,9.278.708h.134c.613,0,1.228-.029,1.827-.087,2.689-.287,6.809-1.9,10.443-3.326,2.947-1.156,5.491-2.154,6.561-2.154.268,0,.431.063.5.192.1.2-.035.542-.415,1.053-1.611,2.18-9.552,7.8-15.931,12.127-2.75,1.866-7.286,4.9-13.278,8.761l-.012.008-.305.2ZM0,5.627v0C4.023,4.837,24.838.877,39.592.123,24.525.911,2.466,5.147,0,5.627Z" transform="translate(0 0)" fill="#c94d4d"/></g><path d="M-7758.257-775.09A72.969,72.969,0,0,1-7779-786.335a56.907,56.907,0,0,1-13.984-15.5,36.252,36.252,0,0,1-4.86-13.325,156.751,156.751,0,0,1-10.424-25.927c-5.745-19-5.086-44.8-9.111-47.208-8.265-4.938-12.738,23.443-14.492,23.443-1.45,0-24.314-31.258-30.775-46.411a115.8,115.8,0,0,1-7.262-22.932,65.424,65.424,0,0,1-.805-22.834c1.462-9.108,5.961-19.382,13.371-30.549a166.1,166.1,0,0,1,11.725-15.484c4.195-4.946,8.82-9.9,13.746-14.723a224.894,224.894,0,0,1,29.554-24.472c9.885-6.768,18.743-11.383,25.619-13.347a17.188,17.188,0,0,1,4.688-.707c4.115,0,7.547,1.864,10.2,5.538,2.4,3.334,4.175,8.165,5.274,14.36a99.677,99.677,0,0,1,1.292,18.327c-.146,12.372-1.954,24.236-3.582,29.119-.549,1.652-1.245,2.455-2.124,2.455-1.88,0-4.409-3.634-7.607-8.235l-.01-.01c-1.088-1.564-2.213-3.178-3.428-4.82-4.5-6.083-10.586-13.065-17.816-13.065a11.481,11.481,0,0,0-2.915.376c-16.649,4.407-35.434,21.4-34.7,43.908s34.5,26.21,37.619,40.662c.763,3.534-3.035,38.017-3.086,56.677,1.79-11.223,4.269-24.206,7.641-37.192,5.526-21.284,12.274-38.183,20.062-50.225,4.513-6.986,9.427-12.384,14.6-16.046a30.924,30.924,0,0,1,18.1-6.011c.146,0,.293,0,.439,0,5,1.988,29.063,13.972,29.063,60.471,0,13.1-6.606,29.039-13.005,45.562a54.292,54.292,0,0,0-7.142,1.237,45.3,45.3,0,0,1-5.24.953c-1.92.18-2.819.3-3.356.378a5.345,5.345,0,0,1-.689.07,5.874,5.874,0,0,1-.709-.07c-.56-.076-1.495-.2-3.472-.378a48.216,48.216,0,0,1-5.392-.951,46.261,46.261,0,0,0-9.775-1.34,22.5,22.5,0,0,0-10.078,2.291c-10.528,5.126-14.458,11.021-14.5,21.753-.046,11.2,6.852,17.788,14.315,23.236,4.994,3.644,10.656,7.775,15.053,13.718a117.814,117.814,0,0,1,11.323,18.569,64.453,64.453,0,0,1,3.167,7.543c.016-.04.028-.078.042-.118q.006.375.012.743a6.069,6.069,0,0,1-.054.955,32.2,32.2,0,0,0-11.487-2.435c-.346,0-.682.006-1,.022-4.257.2-13.119.621-13.774,2.459-.124.35.05.739.516,1.157.745.667,2.593.945,5.154,1.33l.01,0a62.557,62.557,0,0,1,8.1,1.626c5.777,1.652,11.581,3.965,12.39,4.293l.144.08c3.428,1.834,16.971,1.183,18.771,4.141a76.416,76.416,0,0,1-19.178,2.439A76.427,76.427,0,0,1-7758.257-775.09Zm53.124,1.9c-1.039-1.706-5.927-2.2-10.656-2.685-3.428-.35-6.665-.679-8.113-1.454-.048-.026-.094-.052-.138-.078l.082.034.008,0c.657-.266,6.584-2.643,12.47-4.325a63.194,63.194,0,0,1,8.1-1.626c2.567-.386,4.423-.665,5.162-1.332.468-.418.642-.807.518-1.157-.655-1.836-9.517-2.255-13.774-2.457-.3-.016-.639-.024-1-.024a32.313,32.313,0,0,0-11.487,2.435,6.394,6.394,0,0,0,.056-.955q-.006-.368-.012-.743c-.007.021-.014.041-.021.061a64.8,64.8,0,0,1,3.151-7.488,117.9,117.9,0,0,1,11.321-18.569c4.389-5.931,10.048-10.063,15.043-13.708l.012-.008c7.2-5.258,13.836-11.711,13.6-23.236-.213-10.722-4.143-16.617-14.5-21.753a21.645,21.645,0,0,0-9.839-2.291c-.743,0-1.522.034-2.317.1l1.4-3.6c5.969-15.335,11.607-29.82,11.607-41.964,0-19.684-4.257-35.472-12.655-46.927-6.557-8.942-13.657-12.452-16.406-13.545a30.873,30.873,0,0,1,17.628,6.009c5.154,3.66,10.043,9.058,14.523,16.046,7.724,12.036,14.39,28.935,19.82,50.227,2.831,11.1,5.306,23.373,7.359,36.466-.078-9.947-1.157-24.188-2.023-35.629-.792-10.438-1.417-18.681-1.061-20.325,1.345-6.215,8.448-10.5,15.97-15.031,9.953-6,21.236-12.8,21.651-25.629.7-21.552-17.1-39.249-34.707-43.91a11.546,11.546,0,0,0-2.915-.376c-7.228,0-13.319,6.982-17.815,13.065-1.231,1.664-2.4,3.342-3.428,4.82l-.008.01c-3.2,4.6-5.727,8.237-7.609,8.237-.879,0-1.574-.805-2.124-2.457-1.628-4.88-3.436-16.745-3.582-29.119a99.817,99.817,0,0,1,1.292-18.327c1.1-6.193,2.873-11.025,5.274-14.36,2.649-3.674,6.079-5.538,10.2-5.538a17.149,17.149,0,0,1,4.688.707c6.878,1.964,15.736,6.58,25.619,13.347a225.323,225.323,0,0,1,29.554,24.474c4.915,4.809,9.539,9.761,13.747,14.723a166.819,166.819,0,0,1,11.725,15.482c7.41,11.167,11.908,21.448,13.371,30.549a65.224,65.224,0,0,1-.805,22.834,116.066,116.066,0,0,1-7.262,22.932c-3.907,9.168-13.376,23.255-17.266,28.887-6.447,9.335-12.76,17.524-13.509,17.524-.523,0-1.274-2.481-2.317-5.915-2.187-7.21-5.492-18.1-10.262-18.1a3.72,3.72,0,0,0-1.912.577c-2.04,1.219-2.885,8.516-3.954,17.754-1.037,8.948-2.326,20.083-5.158,29.452a155.5,155.5,0,0,1-10.526,26.12,36.136,36.136,0,0,1-4.833,13.131,56.873,56.873,0,0,1-13.982,15.5A72.957,72.957,0,0,1-7698.9-775.09c-2.043.719-4.139,1.358-6.231,1.9Zm-18.8-14.3,0-.007-.019.053Zm70.162-21.593c-.873-1.466,1.417-5.656,4.313-10.96l.008-.014c3.354-6.151,7.531-13.808,9.191-21.244,1.82-8.147,2.08-16.088,2.29-22.468v-.022l0-.046c.222-6.676.379-11.5,2.3-12.418a.564.564,0,0,1,.246-.06c1,0,1.628,3.039,2.429,6.884v.012c.272,1.32.569,2.741.913,4.179,1.225,5.158,3.139,11.079,7.1,11.079a6.661,6.661,0,0,0,3.768-1.47,25.762,25.762,0,0,0,4.867-4.912l1.086-1.358.04-.052c8.688-10.93,21.815-27.445,32.109-45.4,12.338-21.517,17.364-39.643,14.937-53.873-1.326-7.781-6.63-18.871-14.937-31.224a228.467,228.467,0,0,0-14.116-18.707c-5.4-6.469-11.2-12.771-17.23-18.735-28.7-28.358-57.976-44.623-80.311-44.623-.122,0-.246,0-.372,0-6.487,0-19.138,2.188-26.362,5.114q-.435.2-.807.374c7.683-4.169,32.752-19.45,32.752-41.1,0-10.56-11.99-21.621-22.57-31.378-4.736-4.371-9.211-8.5-12.252-12.236a11.98,11.98,0,0,1-2.829-10.182,14,14,0,0,1,2.591-5.686l.3.054.092.018.046-.01.048-.008a35.832,35.832,0,0,1,6.209-.439c15.65,0,44.114,5.64,44.4,5.7.359.07,36.057,7.126,52.65,11.9,14.12,4.065,26.314,7.573,33.36,7.573.05,0,.1,0,.148,0a14.476,14.476,0,0,0,2.527-.222c6.48-1.231,13.1-5.03,20.113-9.054a135.757,135.757,0,0,1,15.165-7.871,42.8,42.8,0,0,1,16.589-3.684,33.813,33.813,0,0,1,9.631,1.414,41.517,41.517,0,0,1,10.221,4.733,35.137,35.137,0,0,1,8.917,7.889,31.758,31.758,0,0,1,5.165,9.559,40.7,40.7,0,0,1,1.992,10.86,62.727,62.727,0,0,1-.58,11.795c-2.226,16.2-9.657,33.692-16.213,49.128-4.84,11.4-9.022,21.248-10.128,28.288l.372,3.336q1.115,10.048,2.231,20.091l.11.991q1.055,9.487,2.107,18.974a73.241,73.241,0,0,1-1.234,21.212,137.98,137.98,0,0,1-5.85,21.13,137.033,137.033,0,0,1-7.126,16.531c-2.189,4.191-4.085,6.964-5.072,7.418a.824.824,0,0,1-.334.092l-.012,0a.269.269,0,0,1-.212-.106c-.335-.45.2-2.3,1.079-5.356l.008-.03c2.7-9.387,8.333-28.921,3.09-53.661-1.522-7.184-2.747-13.4-3.874-19.148-4.2-21.392-6.513-33.174-17.236-54.3a29.168,29.168,0,0,0,4.635.382c8.139,0,15.558-3.628,22.051-10.78,8.7-9.581,13.752-23.142,16.459-32.829,3.45-12.35,4.463-23.381,3.933-28.835a6.431,6.431,0,0,0-3.929-5.346,21.151,21.151,0,0,0-9.116-1.614,73.118,73.118,0,0,0-15.42,1.98,138.915,138.915,0,0,0-17.042,5.04c-11.783,4.3-21.36,9.475-25.617,13.834-2.149,2.2-2.25,4.916-.308,8.308,1.66,2.9,4.559,5.843,7.118,8.438l.088.09c3.056,3.094,5.7,5.766,5.078,7.246-.046.11-.419.172-1.051.172a67.211,67.211,0,0,1-14.735-2.683,106.56,106.56,0,0,1-24.338-10.13c-3.3-1.9-6.285-3.666-9.171-5.37-14.352-8.47-24.72-14.589-48.838-23.633a79.271,79.271,0,0,0-27.93-4.834c-1.3,0-2.619.028-3.932.082a136.292,136.292,0,0,1,35.729,12.332,158.175,158.175,0,0,1,30.186,20.183c16.391,13.82,31.458,31.618,44.783,52.9a314.579,314.579,0,0,1,25.716,51.254c5.464,13.95,8.389,24.52,8.722,27.571a151.921,151.921,0,0,1-.4,37.348,151.817,151.817,0,0,1-9.509,36.119c-8.172,20.287-20.321,34.325-33.182,49.186l-.024.028c-1.908,2.2-3.63,4.193-5.364,6.227a319.351,319.351,0,0,1-25.739,26.384,171.556,171.556,0,0,1-13.473,11.233c-4.361,3.2-7.8,5.142-10.208,5.777a6.966,6.966,0,0,1-1.682.264,1.409,1.409,0,0,1-.192.012A1.442,1.442,0,0,1-7653.776-809.089Zm-150.99.585a6.876,6.876,0,0,1-1.684-.264c-2.413-.635-5.847-2.579-10.206-5.779a170.177,170.177,0,0,1-13.473-11.231,317.321,317.321,0,0,1-25.739-26.384c-1.794-2.1-3.608-4.2-5.366-6.227l-.024-.028c-12.862-14.863-25.01-28.9-33.181-49.186a151.688,151.688,0,0,1-9.907-73.466c1.217-11.181,42.244-144.3,145.173-164.245a81.038,81.038,0,0,0-31.686,4.757c-29,10.878-38.432,17.706-58.008,29-19.715,11.377-39.767,13.5-40.126,12.642-.619-1.478,2.024-4.153,5.079-7.246,2.589-2.627,5.525-5.594,7.206-8.53,1.942-3.39,1.842-6.107-.308-8.307-4.255-4.361-13.834-9.531-25.617-13.836a138.248,138.248,0,0,0-17.041-5.038,72.955,72.955,0,0,0-15.42-1.98,21.147,21.147,0,0,0-9.118,1.614,6.444,6.444,0,0,0-3.93,5.346c-.527,5.454.483,16.483,3.936,28.835,2.707,9.687,7.757,23.245,16.459,32.829,6.493,7.156,13.913,10.78,22.049,10.78a29.335,29.335,0,0,0,4.637-.382c-10.724,21.126-13.037,32.911-17.239,54.3-1.086,5.558-2.327,11.857-3.874,19.15-5.242,24.746.388,44.276,3.093,53.661.887,3.08,1.42,4.934,1.084,5.386a.259.259,0,0,1-.22.106l0,0a.832.832,0,0,1-.332-.092c-.989-.453-2.885-3.228-5.074-7.418a137.2,137.2,0,0,1-7.128-16.531,137.688,137.688,0,0,1-5.847-21.13,73.41,73.41,0,0,1-1.235-21.214q2.227-20.023,4.451-40.054l.37-3.336c-1.107-7.038-5.288-16.887-10.129-28.288-6.558-15.443-13.99-32.945-16.213-49.128a62.572,62.572,0,0,1-.579-11.795,40.708,40.708,0,0,1,1.994-10.862,31.866,31.866,0,0,1,5.162-9.557,35.22,35.22,0,0,1,8.92-7.889,41.534,41.534,0,0,1,10.218-4.733,33.753,33.753,0,0,1,9.633-1.414,42.974,42.974,0,0,1,16.587,3.684,135.5,135.5,0,0,1,15.161,7.867c7.012,4.026,13.634,7.827,20.119,9.058a14.427,14.427,0,0,0,2.673.22c7.042,0,19.24-3.508,33.362-7.573,16.777-4.827,52.648-11.9,52.648-11.9s33.774-6.735,48.224-5.56l.265-.014-.262.014c.747.061,1.442.143,2.078.248a12.333,12.333,0,0,0,.238,15.868c9.867,12.13,34.824,28.348,34.824,43.614,0,21.715-25.281,37.042-32.763,41.1-.693.32-1.225.561-1.564.727-.142.076-.277.152-.411.23a.051.051,0,0,0-.018.028l-.016-.008-.014.008a.069.069,0,0,0-.018-.028c-.134-.078-.272-.154-.412-.23-.461-.226-1.283-.591-2.379-1.1-7.364-2.985-20.471-5.2-26.733-5.112-22.337,0-51.609,16.266-80.312,44.623-6.031,5.961-11.831,12.264-17.23,18.735a227.8,227.8,0,0,0-14.116,18.707c-8.3,12.35-13.61,23.439-14.937,31.224-2.427,14.232,2.6,32.355,14.937,53.873,10.311,17.982,23.454,34.511,32.149,45.452l1.087,1.358a25.819,25.819,0,0,0,4.866,4.912,6.7,6.7,0,0,0,3.768,1.468c3.963,0,5.879-5.919,7.1-11.077.34-1.424.635-2.825.913-4.179v-.012c.8-3.848,1.437-6.884,2.429-6.884a.549.549,0,0,1,.246.06c1.928.921,2.084,5.763,2.306,12.464.208,6.389.467,14.336,2.29,22.49,1.66,7.442,5.843,15.1,9.2,21.256,2.9,5.308,5.184,9.5,4.313,10.962a1.436,1.436,0,0,1-1.165.6A1.492,1.492,0,0,1-7804.766-808.5Zm88.855-4.555c-.511-2.265-.681-9.331-.06-16.795.434-5.188,1.594-14.5,4.5-18.591a3.748,3.748,0,0,1,2.961-1.93c1.981,0,3.951,2.148,6.037,4.423l.008.008.092.1c2.042,2.232,4.151,4.537,6.325,4.537a2.387,2.387,0,0,0,.246-.01,5.493,5.493,0,0,0,3.338-1.528,9.671,9.671,0,0,0,2.056-2.929,17.139,17.139,0,0,0,1.325-4.1v-.012c2.429,11.667-2.381,13.009-7.949,14.565a29.8,29.8,0,0,0-5.13,1.778,11.768,11.768,0,0,0-4.487,3.68c-3.52,4.831-5.568,10.388-6.922,14.064-.835,2.267-1.386,3.762-1.812,3.762C-7715.585-812.033-7715.751-812.359-7715.911-813.058Zm-26.965-2.735c-1.364-3.69-3.424-9.267-6.924-14.068a11.768,11.768,0,0,0-4.485-3.678,29.837,29.837,0,0,0-5.132-1.778c-5.57-1.556-10.378-2.9-7.949-14.567h0a17.118,17.118,0,0,0,1.326,4.117,9.73,9.73,0,0,0,2.056,2.927,5.48,5.48,0,0,0,3.338,1.53c.08.008.164.008.246.008,2.169,0,4.281-2.305,6.325-4.535l.09-.106c2.086-2.277,4.056-4.431,6.042-4.431a3.747,3.747,0,0,1,2.96,1.93c2.913,4.091,4.069,13.4,4.5,18.591.621,7.465.454,14.529-.06,16.795-.158.7-.326,1.025-.525,1.025C-7741.488-812.033-7742.042-813.528-7742.876-815.793Zm69.966-118.927a66.068,66.068,0,0,1-2.982-10.258,80.855,80.855,0,0,1-1.632-12.356c-.337-6.782.188-16.206,4.611-22.584a13.185,13.185,0,0,1,5.654-4.663,17.358,17.358,0,0,1,6.68-1.328c.106,0,.21,0,.315,0a33.3,33.3,0,0,1,10.96,2.12,33.586,33.586,0,0,1,7.733,3.87,3.6,3.6,0,0,1,1.541,3.646c-.272,2-1.8,4.425-4.3,6.83a22.763,22.763,0,0,1-7.372,4.882c-2.473.913-5.32,1.69-8.075,2.443l-.078.022c-4.588,1.253-9.335,2.547-12.454,4.475-1.446.891-2.144,1.808-2.072,2.727.128,1.6,2.647,2.685,2.673,2.695a90.743,90.743,0,0,0,9.28.707c.044,0,.088,0,.132,0,.613,0,1.229-.03,1.828-.088,2.689-.288,6.809-1.9,10.442-3.326,2.947-1.157,5.492-2.154,6.563-2.154.268,0,.429.062.5.192.1.2-.034.541-.414,1.053-1.612,2.18-9.553,7.8-15.932,12.128-2.751,1.866-7.286,4.9-13.279,8.76l-.012.008c-.169.11-.273.176-.306.2Zm-124.238-8.97c-6.383-4.329-14.326-9.949-15.932-12.126-.379-.511-.513-.857-.416-1.053.064-.128.232-.192.5-.192,1.065,0,3.61.995,6.557,2.152,3.636,1.426,7.757,3.043,10.446,3.328a18.971,18.971,0,0,0,1.962.086,89.584,89.584,0,0,0,9.277-.707c.024-.008,2.545-1.069,2.673-2.693.074-.917-.625-1.836-2.07-2.731-3.119-1.924-7.865-3.222-12.456-4.473-2.783-.759-5.659-1.54-8.152-2.463a22.934,22.934,0,0,1-7.374-4.884c-2.493-2.4-4.018-4.827-4.3-6.83a3.614,3.614,0,0,1,1.541-3.648,33.61,33.61,0,0,1,7.733-3.866,33.387,33.387,0,0,1,10.961-2.12,17.464,17.464,0,0,1,7,1.324,13.2,13.2,0,0,1,5.654,4.661c4.423,6.381,4.948,15.8,4.608,22.586a80.16,80.16,0,0,1-1.628,12.356,66.092,66.092,0,0,1-2.984,10.256l0,0C-7783.824-934.9-7790.364-939.081-7797.148-943.69Z" transform="translate(8688.048 1320)" fill="url(#b)" style="mix-blend-mode:hard-light;isolation:isolate"/><path d="M-7758.257-775.09A72.969,72.969,0,0,1-7779-786.335a56.907,56.907,0,0,1-13.984-15.5,36.252,36.252,0,0,1-4.86-13.325,156.751,156.751,0,0,1-10.424-25.927c-5.745-19-5.086-44.8-9.111-47.208-8.265-4.938-12.738,23.443-14.492,23.443-1.45,0-24.314-31.258-30.775-46.411a115.8,115.8,0,0,1-7.262-22.932,65.424,65.424,0,0,1-.805-22.834c1.462-9.108,5.961-19.382,13.371-30.549a166.1,166.1,0,0,1,11.725-15.484c4.195-4.946,8.82-9.9,13.746-14.723a224.894,224.894,0,0,1,29.554-24.472c9.885-6.768,18.743-11.383,25.619-13.347a17.188,17.188,0,0,1,4.688-.707c4.115,0,7.547,1.864,10.2,5.538,2.4,3.334,4.175,8.165,5.274,14.36a99.677,99.677,0,0,1,1.292,18.327c-.146,12.372-1.954,24.236-3.582,29.119-.549,1.652-1.245,2.455-2.124,2.455-1.88,0-4.409-3.634-7.607-8.235l-.01-.01c-1.088-1.564-2.213-3.178-3.428-4.82-4.5-6.083-10.586-13.065-17.816-13.065a11.481,11.481,0,0,0-2.915.376c-16.649,4.407-35.434,21.4-34.7,43.908s34.5,26.21,37.619,40.662c.763,3.534-3.035,38.017-3.086,56.677,1.79-11.223,4.269-24.206,7.641-37.192,5.526-21.284,12.274-38.183,20.062-50.225,4.513-6.986,9.427-12.384,14.6-16.046a30.924,30.924,0,0,1,18.1-6.011c.146,0,.293,0,.439,0,5,1.988,29.063,13.972,29.063,60.471,0,13.1-6.606,29.039-13.005,45.562a54.292,54.292,0,0,0-7.142,1.237,45.3,45.3,0,0,1-5.24.953c-1.92.18-2.819.3-3.356.378a5.345,5.345,0,0,1-.689.07,5.874,5.874,0,0,1-.709-.07c-.56-.076-1.495-.2-3.472-.378a48.216,48.216,0,0,1-5.392-.951,46.261,46.261,0,0,0-9.775-1.34,22.5,22.5,0,0,0-10.078,2.291c-10.528,5.126-14.458,11.021-14.5,21.753-.046,11.2,6.852,17.788,14.315,23.236,4.994,3.644,10.656,7.775,15.053,13.718a117.814,117.814,0,0,1,11.323,18.569,64.453,64.453,0,0,1,3.167,7.543c.016-.04.028-.078.042-.118q.006.375.012.743a6.069,6.069,0,0,1-.054.955,32.2,32.2,0,0,0-11.487-2.435c-.346,0-.682.006-1,.022-4.257.2-13.119.621-13.774,2.459-.124.35.05.739.516,1.157.745.667,2.593.945,5.154,1.33l.01,0a62.557,62.557,0,0,1,8.1,1.626c5.777,1.652,11.581,3.965,12.39,4.293l.144.08c3.428,1.834,16.971,1.183,18.771,4.141a76.416,76.416,0,0,1-19.178,2.439A76.427,76.427,0,0,1-7758.257-775.09Zm53.124,1.9c-1.039-1.706-5.927-2.2-10.656-2.685-3.428-.35-6.665-.679-8.113-1.454-.048-.026-.094-.052-.138-.078l.082.034.008,0c.657-.266,6.584-2.643,12.47-4.325a63.194,63.194,0,0,1,8.1-1.626c2.567-.386,4.423-.665,5.162-1.332.468-.418.642-.807.518-1.157-.655-1.836-9.517-2.255-13.774-2.457-.3-.016-.639-.024-1-.024a32.313,32.313,0,0,0-11.487,2.435,6.394,6.394,0,0,0,.056-.955q-.006-.368-.012-.743c-.007.021-.014.041-.021.061a64.8,64.8,0,0,1,3.151-7.488,117.9,117.9,0,0,1,11.321-18.569c4.389-5.931,10.048-10.063,15.043-13.708l.012-.008c7.2-5.258,13.836-11.711,13.6-23.236-.213-10.722-4.143-16.617-14.5-21.753a21.645,21.645,0,0,0-9.839-2.291c-.743,0-1.522.034-2.317.1l1.4-3.6c5.969-15.335,11.607-29.82,11.607-41.964,0-19.684-4.257-35.472-12.655-46.927-6.557-8.942-13.657-12.452-16.406-13.545a30.873,30.873,0,0,1,17.628,6.009c5.154,3.66,10.043,9.058,14.523,16.046,7.724,12.036,14.39,28.935,19.82,50.227,2.831,11.1,5.306,23.373,7.359,36.466-.078-9.947-1.157-24.188-2.023-35.629-.792-10.438-1.417-18.681-1.061-20.325,1.345-6.215,8.448-10.5,15.97-15.031,9.953-6,21.236-12.8,21.651-25.629.7-21.552-17.1-39.249-34.707-43.91a11.546,11.546,0,0,0-2.915-.376c-7.228,0-13.319,6.982-17.815,13.065-1.231,1.664-2.4,3.342-3.428,4.82l-.008.01c-3.2,4.6-5.727,8.237-7.609,8.237-.879,0-1.574-.805-2.124-2.457-1.628-4.88-3.436-16.745-3.582-29.119a99.817,99.817,0,0,1,1.292-18.327c1.1-6.193,2.873-11.025,5.274-14.36,2.649-3.674,6.079-5.538,10.2-5.538a17.149,17.149,0,0,1,4.688.707c6.878,1.964,15.736,6.58,25.619,13.347a225.323,225.323,0,0,1,29.554,24.474c4.915,4.809,9.539,9.761,13.747,14.723a166.819,166.819,0,0,1,11.725,15.482c7.41,11.167,11.908,21.448,13.371,30.549a65.224,65.224,0,0,1-.805,22.834,116.066,116.066,0,0,1-7.262,22.932c-3.907,9.168-13.376,23.255-17.266,28.887-6.447,9.335-12.76,17.524-13.509,17.524-.523,0-1.274-2.481-2.317-5.915-2.187-7.21-5.492-18.1-10.262-18.1a3.72,3.72,0,0,0-1.912.577c-2.04,1.219-2.885,8.516-3.954,17.754-1.037,8.948-2.326,20.083-5.158,29.452a155.5,155.5,0,0,1-10.526,26.12,36.136,36.136,0,0,1-4.833,13.131,56.873,56.873,0,0,1-13.982,15.5A72.957,72.957,0,0,1-7698.9-775.09c-2.043.719-4.139,1.358-6.231,1.9Zm-18.8-14.3,0-.007-.019.053Zm70.162-21.593c-.873-1.466,1.417-5.656,4.313-10.96l.008-.014c3.354-6.151,7.531-13.808,9.191-21.244,1.82-8.147,2.08-16.088,2.29-22.468v-.022l0-.046c.222-6.676.379-11.5,2.3-12.418a.564.564,0,0,1,.246-.06c1,0,1.628,3.039,2.429,6.884v.012c.272,1.32.569,2.741.913,4.179,1.225,5.158,3.139,11.079,7.1,11.079a6.661,6.661,0,0,0,3.768-1.47,25.762,25.762,0,0,0,4.867-4.912l1.086-1.358.04-.052c8.688-10.93,21.815-27.445,32.109-45.4,12.338-21.517,17.364-39.643,14.937-53.873-1.326-7.781-6.63-18.871-14.937-31.224a228.467,228.467,0,0,0-14.116-18.707c-5.4-6.469-11.2-12.771-17.23-18.735-28.7-28.358-57.976-44.623-80.311-44.623-.122,0-.246,0-.372,0-6.487,0-19.138,2.188-26.362,5.114q-.435.2-.807.374c7.683-4.169,32.752-19.45,32.752-41.1,0-10.56-11.99-21.621-22.57-31.378-4.736-4.371-9.211-8.5-12.252-12.236a11.98,11.98,0,0,1-2.829-10.182,14,14,0,0,1,2.591-5.686l.3.054.092.018.046-.01.048-.008a35.832,35.832,0,0,1,6.209-.439c15.65,0,44.114,5.64,44.4,5.7.359.07,36.057,7.126,52.65,11.9,14.12,4.065,26.314,7.573,33.36,7.573.05,0,.1,0,.148,0a14.476,14.476,0,0,0,2.527-.222c6.48-1.231,13.1-5.03,20.113-9.054a135.757,135.757,0,0,1,15.165-7.871,42.8,42.8,0,0,1,16.589-3.684,33.813,33.813,0,0,1,9.631,1.414,41.517,41.517,0,0,1,10.221,4.733,35.137,35.137,0,0,1,8.917,7.889,31.758,31.758,0,0,1,5.165,9.559,40.7,40.7,0,0,1,1.992,10.86,62.727,62.727,0,0,1-.58,11.795c-2.226,16.2-9.657,33.692-16.213,49.128-4.84,11.4-9.022,21.248-10.128,28.288l.372,3.336q1.115,10.048,2.231,20.091l.11.991q1.055,9.487,2.107,18.974a73.241,73.241,0,0,1-1.234,21.212,137.98,137.98,0,0,1-5.85,21.13,137.033,137.033,0,0,1-7.126,16.531c-2.189,4.191-4.085,6.964-5.072,7.418a.824.824,0,0,1-.334.092l-.012,0a.269.269,0,0,1-.212-.106c-.335-.45.2-2.3,1.079-5.356l.008-.03c2.7-9.387,8.333-28.921,3.09-53.661-1.522-7.184-2.747-13.4-3.874-19.148-4.2-21.392-6.513-33.174-17.236-54.3a29.168,29.168,0,0,0,4.635.382c8.139,0,15.558-3.628,22.051-10.78,8.7-9.581,13.752-23.142,16.459-32.829,3.45-12.35,4.463-23.381,3.933-28.835a6.431,6.431,0,0,0-3.929-5.346,21.151,21.151,0,0,0-9.116-1.614,73.118,73.118,0,0,0-15.42,1.98,138.915,138.915,0,0,0-17.042,5.04c-11.783,4.3-21.36,9.475-25.617,13.834-2.149,2.2-2.25,4.916-.308,8.308,1.66,2.9,4.559,5.843,7.118,8.438l.088.09c3.056,3.094,5.7,5.766,5.078,7.246-.046.11-.419.172-1.051.172a67.211,67.211,0,0,1-14.735-2.683,106.56,106.56,0,0,1-24.338-10.13c-3.3-1.9-6.285-3.666-9.171-5.37-14.352-8.47-24.72-14.589-48.838-23.633a79.271,79.271,0,0,0-27.93-4.834c-1.3,0-2.619.028-3.932.082a136.292,136.292,0,0,1,35.729,12.332,158.175,158.175,0,0,1,30.186,20.183c16.391,13.82,31.458,31.618,44.783,52.9a314.579,314.579,0,0,1,25.716,51.254c5.464,13.95,8.389,24.52,8.722,27.571a151.921,151.921,0,0,1-.4,37.348,151.817,151.817,0,0,1-9.509,36.119c-8.172,20.287-20.321,34.325-33.182,49.186l-.024.028c-1.908,2.2-3.63,4.193-5.364,6.227a319.351,319.351,0,0,1-25.739,26.384,171.556,171.556,0,0,1-13.473,11.233c-4.361,3.2-7.8,5.142-10.208,5.777a6.966,6.966,0,0,1-1.682.264,1.409,1.409,0,0,1-.192.012A1.442,1.442,0,0,1-7653.776-809.089Zm-150.99.585a6.876,6.876,0,0,1-1.684-.264c-2.413-.635-5.847-2.579-10.206-5.779a170.177,170.177,0,0,1-13.473-11.231,317.321,317.321,0,0,1-25.739-26.384c-1.794-2.1-3.608-4.2-5.366-6.227l-.024-.028c-12.862-14.863-25.01-28.9-33.181-49.186a151.688,151.688,0,0,1-9.907-73.466c1.217-11.181,42.244-144.3,145.173-164.245a81.038,81.038,0,0,0-31.686,4.757c-29,10.878-38.432,17.706-58.008,29-19.715,11.377-39.767,13.5-40.126,12.642-.619-1.478,2.024-4.153,5.079-7.246,2.589-2.627,5.525-5.594,7.206-8.53,1.942-3.39,1.842-6.107-.308-8.307-4.255-4.361-13.834-9.531-25.617-13.836a138.248,138.248,0,0,0-17.041-5.038,72.955,72.955,0,0,0-15.42-1.98,21.147,21.147,0,0,0-9.118,1.614,6.444,6.444,0,0,0-3.93,5.346c-.527,5.454.483,16.483,3.936,28.835,2.707,9.687,7.757,23.245,16.459,32.829,6.493,7.156,13.913,10.78,22.049,10.78a29.335,29.335,0,0,0,4.637-.382c-10.724,21.126-13.037,32.911-17.239,54.3-1.086,5.558-2.327,11.857-3.874,19.15-5.242,24.746.388,44.276,3.093,53.661.887,3.08,1.42,4.934,1.084,5.386a.259.259,0,0,1-.22.106l0,0a.832.832,0,0,1-.332-.092c-.989-.453-2.885-3.228-5.074-7.418a137.2,137.2,0,0,1-7.128-16.531,137.688,137.688,0,0,1-5.847-21.13,73.41,73.41,0,0,1-1.235-21.214q2.227-20.023,4.451-40.054l.37-3.336c-1.107-7.038-5.288-16.887-10.129-28.288-6.558-15.443-13.99-32.945-16.213-49.128a62.572,62.572,0,0,1-.579-11.795,40.708,40.708,0,0,1,1.994-10.862,31.866,31.866,0,0,1,5.162-9.557,35.22,35.22,0,0,1,8.92-7.889,41.534,41.534,0,0,1,10.218-4.733,33.753,33.753,0,0,1,9.633-1.414,42.974,42.974,0,0,1,16.587,3.684,135.5,135.5,0,0,1,15.161,7.867c7.012,4.026,13.634,7.827,20.119,9.058a14.427,14.427,0,0,0,2.673.22c7.042,0,19.24-3.508,33.362-7.573,16.777-4.827,52.648-11.9,52.648-11.9s33.774-6.735,48.224-5.56l.265-.014-.262.014c.747.061,1.442.143,2.078.248a12.333,12.333,0,0,0,.238,15.868c9.867,12.13,34.824,28.348,34.824,43.614,0,21.715-25.281,37.042-32.763,41.1-.693.32-1.225.561-1.564.727-.142.076-.277.152-.411.23a.051.051,0,0,0-.018.028l-.016-.008-.014.008a.069.069,0,0,0-.018-.028c-.134-.078-.272-.154-.412-.23-.461-.226-1.283-.591-2.379-1.1-7.364-2.985-20.471-5.2-26.733-5.112-22.337,0-51.609,16.266-80.312,44.623-6.031,5.961-11.831,12.264-17.23,18.735a227.8,227.8,0,0,0-14.116,18.707c-8.3,12.35-13.61,23.439-14.937,31.224-2.427,14.232,2.6,32.355,14.937,53.873,10.311,17.982,23.454,34.511,32.149,45.452l1.087,1.358a25.819,25.819,0,0,0,4.866,4.912,6.7,6.7,0,0,0,3.768,1.468c3.963,0,5.879-5.919,7.1-11.077.34-1.424.635-2.825.913-4.179v-.012c.8-3.848,1.437-6.884,2.429-6.884a.549.549,0,0,1,.246.06c1.928.921,2.084,5.763,2.306,12.464.208,6.389.467,14.336,2.29,22.49,1.66,7.442,5.843,15.1,9.2,21.256,2.9,5.308,5.184,9.5,4.313,10.962a1.436,1.436,0,0,1-1.165.6A1.492,1.492,0,0,1-7804.766-808.5Zm88.855-4.555c-.511-2.265-.681-9.331-.06-16.795.434-5.188,1.594-14.5,4.5-18.591a3.748,3.748,0,0,1,2.961-1.93c1.981,0,3.951,2.148,6.037,4.423l.008.008.092.1c2.042,2.232,4.151,4.537,6.325,4.537a2.387,2.387,0,0,0,.246-.01,5.493,5.493,0,0,0,3.338-1.528,9.671,9.671,0,0,0,2.056-2.929,17.139,17.139,0,0,0,1.325-4.1v-.012c2.429,11.667-2.381,13.009-7.949,14.565a29.8,29.8,0,0,0-5.13,1.778,11.768,11.768,0,0,0-4.487,3.68c-3.52,4.831-5.568,10.388-6.922,14.064-.835,2.267-1.386,3.762-1.812,3.762C-7715.585-812.033-7715.751-812.359-7715.911-813.058Zm-26.965-2.735c-1.364-3.69-3.424-9.267-6.924-14.068a11.768,11.768,0,0,0-4.485-3.678,29.837,29.837,0,0,0-5.132-1.778c-5.57-1.556-10.378-2.9-7.949-14.567h0a17.118,17.118,0,0,0,1.326,4.117,9.73,9.73,0,0,0,2.056,2.927,5.48,5.48,0,0,0,3.338,1.53c.08.008.164.008.246.008,2.169,0,4.281-2.305,6.325-4.535l.09-.106c2.086-2.277,4.056-4.431,6.042-4.431a3.747,3.747,0,0,1,2.96,1.93c2.913,4.091,4.069,13.4,4.5,18.591.621,7.465.454,14.529-.06,16.795-.158.7-.326,1.025-.525,1.025C-7741.488-812.033-7742.042-813.528-7742.876-815.793Zm69.966-118.927a66.068,66.068,0,0,1-2.982-10.258,80.855,80.855,0,0,1-1.632-12.356c-.337-6.782.188-16.206,4.611-22.584a13.185,13.185,0,0,1,5.654-4.663,17.358,17.358,0,0,1,6.68-1.328c.106,0,.21,0,.315,0a33.3,33.3,0,0,1,10.96,2.12,33.586,33.586,0,0,1,7.733,3.87,3.6,3.6,0,0,1,1.541,3.646c-.272,2-1.8,4.425-4.3,6.83a22.763,22.763,0,0,1-7.372,4.882c-2.473.913-5.32,1.69-8.075,2.443l-.078.022c-4.588,1.253-9.335,2.547-12.454,4.475-1.446.891-2.144,1.808-2.072,2.727.128,1.6,2.647,2.685,2.673,2.695a90.743,90.743,0,0,0,9.28.707c.044,0,.088,0,.132,0,.613,0,1.229-.03,1.828-.088,2.689-.288,6.809-1.9,10.442-3.326,2.947-1.157,5.492-2.154,6.563-2.154.268,0,.429.062.5.192.1.2-.034.541-.414,1.053-1.612,2.18-9.553,7.8-15.932,12.128-2.751,1.866-7.286,4.9-13.279,8.76l-.012.008c-.169.11-.273.176-.306.2Zm-124.238-8.97c-6.383-4.329-14.326-9.949-15.932-12.126-.379-.511-.513-.857-.416-1.053.064-.128.232-.192.5-.192,1.065,0,3.61.995,6.557,2.152,3.636,1.426,7.757,3.043,10.446,3.328a18.971,18.971,0,0,0,1.962.086,89.584,89.584,0,0,0,9.277-.707c.024-.008,2.545-1.069,2.673-2.693.074-.917-.625-1.836-2.07-2.731-3.119-1.924-7.865-3.222-12.456-4.473-2.783-.759-5.659-1.54-8.152-2.463a22.934,22.934,0,0,1-7.374-4.884c-2.493-2.4-4.018-4.827-4.3-6.83a3.614,3.614,0,0,1,1.541-3.648,33.61,33.61,0,0,1,7.733-3.866,33.387,33.387,0,0,1,10.961-2.12,17.464,17.464,0,0,1,7,1.324,13.2,13.2,0,0,1,5.654,4.661c4.423,6.381,4.948,15.8,4.608,22.586a80.16,80.16,0,0,1-1.628,12.356,66.092,66.092,0,0,1-2.984,10.256l0,0C-7783.824-934.9-7790.364-939.081-7797.148-943.69Z" transform="translate(8688.048 1320)" fill="url(#c)" style="mix-blend-mode:exclusion;isolation:isolate"/><path d="M0,0H2136.413V1271.833H0Z" transform="translate(-108.207 -91.417)" fill="url(#d)" style="mix-blend-mode:overlay;isolation:isolate"/></g></svg>