<svg xmlns="http://www.w3.org/2000/svg" xmlns:xlink="http://www.w3.org/1999/xlink" width="1920" height="506" viewBox="0 0 1920 506">
  <defs>
    <clipPath id="clip-path">
      <rect id="Rectangle_144" data-name="Rectangle 144" width="1920" height="506" transform="translate(0 97)" fill="#fff"/>
    </clipPath>
    <linearGradient id="linear-gradient" x1="0.624" y1="1.226" x2="0.166" y2="0.027" gradientUnits="objectBoundingBox">
      <stop offset="0" stop-color="#473dbf"/>
      <stop offset="1" stop-color="#080456"/>
    </linearGradient>
    <linearGradient id="linear-gradient-2" x1="0.5" x2="0.5" y2="1" gradientUnits="objectBoundingBox">
      <stop offset="0" stop-color="#98e1f8"/>
      <stop offset="1" stop-color="#37437e"/>
    </linearGradient>
    <linearGradient id="linear-gradient-6" x1="0.5" x2="0.5" y2="1" gradientUnits="objectBoundingBox">
      <stop offset="0" stop-color="#dcffff"/>
      <stop offset="1" stop-color="#9ae5fb"/>
    </linearGradient>
    <linearGradient id="linear-gradient-14" x1="0.5" x2="0.5" y2="1" gradientUnits="objectBoundingBox">
      <stop offset="0" stop-color="#005de8"/>
      <stop offset="1" stop-color="#fff"/>
    </linearGradient>
    <linearGradient id="linear-gradient-39" x1="0.5" x2="0.5" y2="1" gradientUnits="objectBoundingBox">
      <stop offset="0" stop-color="#3d4e86"/>
      <stop offset="0.176" stop-color="#6086b1"/>
      <stop offset="1" stop-color="#9ce7fc"/>
    </linearGradient>
    <linearGradient id="linear-gradient-40" x1="0.5" x2="0.5" y2="1" gradientUnits="objectBoundingBox">
      <stop offset="0" stop-color="#9eebff"/>
      <stop offset="1" stop-color="#37437e"/>
    </linearGradient>
    <linearGradient id="linear-gradient-43" x1="0.5" x2="0.5" y2="1" gradientUnits="objectBoundingBox">
      <stop offset="0" stop-color="#9de9fe"/>
      <stop offset="1" stop-color="#38457f"/>
    </linearGradient>
    <linearGradient id="linear-gradient-51" x1="0.5" x2="0.5" y2="1" gradientUnits="objectBoundingBox">
      <stop offset="0" stop-color="#48d2ff"/>
      <stop offset="1" stop-color="#3a44d4"/>
    </linearGradient>
    <radialGradient id="radial-gradient" cx="0.503" cy="0.349" r="0.5" gradientUnits="objectBoundingBox">
      <stop offset="0" stop-color="#fff"/>
      <stop offset="0.494" stop-color="#b1eff5"/>
      <stop offset="1" stop-color="#2ddae4" stop-opacity="0"/>
    </radialGradient>
    <radialGradient id="radial-gradient-2" cx="0.5" cy="0.5" r="0.5" gradientUnits="objectBoundingBox">
      <stop offset="0" stop-color="#fff"/>
      <stop offset="0.21" stop-color="#00a8ff"/>
      <stop offset="1" stop-color="#1b16a2" stop-opacity="0"/>
    </radialGradient>
  </defs>
  <g id="SS_cover" data-name="SS cover" transform="translate(0 -97)" clip-path="url(#clip-path)">
    <path id="Path_2" data-name="Path 2" d="M0,0H1920V1143H0Z" transform="translate(0 -63)" fill="url(#linear-gradient)"/>
    <g id="Group_58" data-name="Group 58" transform="matrix(0.995, 0.105, -0.105, 0.995, -53.103, -1121.351)">
      <g id="siren_girl" data-name="siren girl" transform="matrix(0.995, -0.105, 0.105, 0.995, 773.546, 971.934)" style="isolation: isolate">
        <g id="layer8" transform="translate(0 495.611)" style="isolation: isolate">
          <path id="path992" d="M39.015,0c-8.243,7.994-13.5,18.854-18.831,28.984C2.823,65.211-2.216,106.239.837,146.009c2.42,28.065,8.638,56.576,22.935,81.135,26.666,42.8,68.749,72.589,110.488,99.358,10.7,7.85,21.736,17.428,25.68,30.55,3.1,8.6-1.452,19.067-10.593,21.409-20.05,5.641-41.386,2.134-61.443-1.738-17.4-3.754-34.391-9.889-49.354-19.621-3.237-.863.565,3.966,1.1,5.017,18.253,26.335,47,43.153,76.892,53.159,29.341,11.133,61.536,17.047,87.194,36.093,11.081,5.532,41.921,59.375,40.157,67.751s-5.308.9-11.063,4.482-19.572,13.174-21.1,19.76c-2.041,8.778,9.093-5.089,21.218-5.4,12.1-.312,25.492,5.315,26.55,7.082C262,547.9,245.747,504.1,245.17,503.169c-14.391-43.073-32.309-85.63-40.227-130.5-3.631-25.558-2.233-51.459-2.559-77.184a661.522,661.522,0,0,1,29.509-68.072c-16.554-15.349-32.368-32.561-41.58-53.415-.1-6.965-6.247-1.819-10.387-1.432-5.874,1.184-8.273-6.531-11.406-10.1-6.994-11.069-13.388-23.443-12.258-36.949-.5-9.668,2.682-18.889,4.231-28.247-1.681-4.864-8.531-5.033-12.347-7.734-21.034-10.1-45.548-10.717-65.539-23.39C61.637,54.189,47.677,32.727,41.8,9.647,40.5,6.725,40.5,2.458,39.015,0ZM34.523,9.553c4.037,3.083,2.179,9.678,3.864,14.056,3.515,17.432,15.685,31.8,30.628,40.876C79.949,71.4,91.966,80.81,92.23,94.982c2.609,21.353-11.235,39.833-13.116,60.635-5.733,42.463,11.572,85.349,39.867,116.6,10.985,13.174,25.049,23.143,37.55,34.693,2.486,2.256-1.46,4.107-3.175,2.12-26.644-16.366-49.965-37.625-72.045-59.623-26.688-27.095-44.055-61.932-54.62-98.17-9.454-30.512-12.7-63.328-7.314-94.906C22.623,40.881,25.283,24.82,32.622,10.7a2.287,2.287,0,0,1,1.9-1.149Zm83.59,78.381c12.207,1.574,26.607,8.8,28.227,22.4,4.7,29.535-13.047,56.884-11.443,86.339-.393,28.025,13.708,53.883,31.879,74.343,4.7,6.118,10.737,11.752,14.034,18.673-3.47,1.647-7.371-2.928-10.116-4.84-25-23.47-50.017-48.471-65.07-79.733-9.2-17.724-7.273-38.206-6.506-57.447,1.461-17.576,3.142-35.373,8.011-52.37a10.065,10.065,0,0,1,10.984-7.367ZM106.1,280.733c17.024,12.855,33.86,26.064,50.206,39.8,17.934,15.05,33.725,33.723,40.456,56.545,6.876,20.476,14.289,40.883,19.288,61.907,1.1,2.828-1.13,6.1-3.932,3.412-11.014-8.622-22.911-16.155-36.066-21.121-17.872-7.835-37.271-12.762-53.777-23.384-3.021-1.4-1.515-5.6,1.726-4.268,12.206,3.184,25.328,4.075,37.717,1.492,8.614-3.239,14.4-12.582,11.941-21.77-4.287-20.894-21.08-35.993-36.165-49.788-11.436-10.65-25.571-19.973-32.047-34.72-.53-1.959-2.264-7.338.651-8.1Z" transform="translate(0 0)" fill="url(#linear-gradient-2)"/>
          <path id="path996" d="M220.581.011c-2.275,1.1-1.339,4.922-2.2,6.982A80.77,80.77,0,0,1,189.408,56.1C172.823,70.158,151.83,77.377,130.9,82.016A88.679,88.679,0,0,0,104.906,92.4c-2.153,1.563-7.868,1.7-6.2,5.652,3.356,13.926,6.165,28.565,2.536,42.754-2.669,12.428-10.113,23.161-18.593,32.371-3.862-.841-7.85-3.165-11.73-3.011-2.667,5.339-4.739,11.117-8.273,16.06-9.277,14-19.589,27.834-33.029,38.1-.827,1.4-3.867-.441-2.512,1.82,11.75,26.626,27.924,52.441,30.31,82.116C60,341.078,53.8,373.837,46.575,405.716,38.837,438.731,11.5,513.069,0,544.912c.95.3,16.053-8.113,25.745-7.127,10.284,1.046,22.979,8.733,18.236,2.731-20.752-26.255-32.924-9.464-30.329-21.6,1.3-6.1,6.534-16.939,6.534-16.939,11.546-21.094,27.07-47.948,48.748-59.91,21.339-10.576,44.565-16.519,67.023-24.2,31.267-9.388,61.314-26.241,81.317-52.6,2.5-3.631,5.985-7.23,7.439-11.257-8.218,4.967-16.32,10.336-25.425,13.661C174.7,377.2,148.081,382.6,121.652,380.9c-9-.564-19.925-3.763-22.666-13.5-2.879-11.435,5.334-21.882,12.911-29.517,14.908-13.913,33.149-23.5,49.495-35.551,26.947-19.109,52.714-41.2,70.54-69.348a171.884,171.884,0,0,0,22.947-60.548c3.55-15.966,4.362-32.333,3.949-48.64.177-29.723-6.034-59.35-16.844-86.976-5.39-12.657-11.2-25.517-20.051-36.153-.377-.319-.813-.73-1.351-.648Zm3.082,8.531c6.506,4,7.508,12.59,9.768,19.3,6.229,22.32,10.582,45.467,8.851,68.734A263.565,263.565,0,0,1,205.373,214.4c-13.07,20.827-31.151,37.857-48.69,54.857-14.742,13.417-29.378,27.377-46.631,37.554-2.1.5-5.112,3.762-7.132,1.9-.233-3.138,3.846-4.88,5.647-7.029,19.748-16.206,38.557-34.235,51.716-56.353,20.6-32.474,28.231-74.139,15.572-110.984-4.554-13.111-11.313-26.538-8.708-40.835,1.619-13.919,13.67-22.859,24.6-29.811,14.515-10.213,27.331-24.975,30.514-42.884.868-3.987-.472-8.491,1.009-12.228a.719.719,0,0,1,.393-.045ZM144.546,86.575c5.811.528,7.257,7.65,9.04,12.145,4.5,16.279,5.135,33.314,6.977,50.029,2.108,18.623,1.765,38.256-6.557,55.452-11.9,25.008-30.643,45.916-49.531,65.849-7.455,7.088-14.483,15.313-23.956,19.715-2.388.97-2.655-2.241-.871-3.243,15.965-18.765,33.124-37.792,40.8-61.722,6.577-20.053,5.6-41.889-.222-62-4.123-17.878-11.876-36.361-6.672-54.885,1.933-7.639,7.317-14.374,14.978-16.8,5.179-1.891,10.443-4.257,16.015-4.542Zm9.585,193.665c4,1.248,1.125,6.535-.149,9-12.323,20.833-34.017,33.35-49.576,51.416-8.765,10.174-18.354,21.356-19.93,35.205-.925,10.652,9.372,17.946,18.652,20.136,10.833,2.551,22.065.409,32.607-2.415,2.024-.911,4.267.821,2.093,2.578-6.77,6.914-16.673,9.339-25.259,13.258C98.025,415.523,82.74,420,68.739,427.317c-8,4.1-14.6,10.341-22.126,15.1-2.608,1.608-4.218-1.55-3.28-3.745,3.851-15.965,9.819-31.351,14.574-47.066,7.286-22.627,17.132-45.3,34.675-61.941,18.4-17.862,40.256-31.624,59.409-48.6a3.766,3.766,0,0,1,2.14-.826Z" transform="translate(431.339 0.199)" fill="url(#linear-gradient-2)"/>
          <path id="path1002" d="M2.463,0C-.618,3.014.607,8.7,0,12.705,1.185,35.732,14.676,55.6,25.831,74.988c1.956,2.543,3.5,6.782,6.067,8.25,7.52-18.965,13.056-39.033,14.963-59.4-.241-3.681-5.973-3.49-8.33-5.541C26.15,12.957,14.317,6.142,2.463,0Z" transform="translate(422.672 135.894)" fill="url(#linear-gradient-2)"/>
          <path id="path1004" d="M38.19,3.98C25.91,11.576,11.876,16.428,0,24.453c.824,16.109,5.743,31.813,10.053,47.3,1.58,3.7,2.126,9.257,5.191,11.6A197.1,197.1,0,0,0,41.221,36.921C45.364,25.277,49.327,12.09,44.65,0L38.19,3.981Z" transform="translate(221.485 134.945)" fill="url(#linear-gradient-2)"/>
        </g>
        <g id="layer9" transform="translate(21.156 512.958)" style="isolation: isolate">
          <path id="path1009" d="M12.891,0C9.31,5.525,8.591,12.585,6.78,18.881,2.2,38.3-.756,58.2.17,78.2c1.588,36.931,13.763,72.9,31.632,105.05,15.009,26.817,34.692,51.2,58.774,70.385,2.324,2.146,2.111.639.416-1.043-24.934-27.8-41.762-64.421-40.255-102.284.3-17.324,5.818-33.9,12.161-49.828,4.5-11.867,6.917-26.877-2.014-37.386C52.21,52.5,38.9,47.2,29.877,36.908,20.752,27.7,14.156,15.52,13.8,2.361c-.256-.6-.087-2.222-.912-2.36Z" transform="translate(0 1.076)" fill="url(#linear-gradient-6)"/>
          <path id="path1011" d="M15.443.028C9.2-.5,7.509,6.681,6.561,11.448A438.116,438.116,0,0,0,.05,75.992c-.492,14.605,2.6,29.325,9.933,42.047,11.461,20.738,26.87,39.051,43.139,56.156,2.054,1.847.723-1.051-.1-1.778-12.065-17.283-22.807-36.7-24.366-58.119-.682-15.806,0-31.832,4.779-47.029,4.206-15.322,9.38-31.18,7.357-47.257C39.606,10.57,32.016,2.963,22.8,1.072A26.294,26.294,0,0,0,15.443.028Z" transform="translate(80.922 73.979)" fill="url(#linear-gradient-6)"/>
          <path id="path1013" d="M24.083.008A160.776,160.776,0,0,0,.019,8.612c-.287,3.265,2.684,6.34,3.961,9.316C13.8,34.05,24.18,50.516,39.033,62.5c1.273,1.489,2.327.4,1.147-1.066-6.844-13.79-10.6-28.954-13.356-44.038C25.832,11.672,25.331,5.558,24.4.009L24.312,0Z" transform="translate(172.183 142.85)" fill="url(#linear-gradient-6)"/>
          <path id="path1015" d="M0,0C1.065,3.873,4.62,7.291,7.221,10.5,25.413,31.028,50.649,45.072,64.675,69.267c5.765,9.8,10.582,22.911,3.823,33.442-6.664,10.07-19.854,11.143-30.822,12.014-1.117-.128-4.088.966-1.729,1.84,21.638,8.471,45,14.265,63.5,29.043.932,1.231,3.321,1.5,2.115-.637-6.174-18.964-11.911-38.1-18.844-56.8-8.064-21.909-23.623-40.127-41.551-54.7C27.858,22.491,14.449,11.621,1.206.575A2.831,2.831,0,0,0,0,0Z" transform="translate(87.049 270.17)" fill="url(#linear-gradient-6)"/>
          <path id="path1017" d="M102.024.018C91.849,7.746,82.309,16.444,72.182,24.305c-17.926,13.871-35.71,29.221-45.84,49.962C14.8,96.551,9.391,121.245.62,144.622c-1.657,3.276.323,2.714,2.267.844,10.512-8.5,22.868-14.109,35.478-18.72,10.082-4.111,20.828-7.3,30.558-11.85-11.166-1.338-24.13-.359-32.871-8.841-8.375-7.391-6.453-19.976-2.1-29C44.751,53.9,65.488,37.841,84.32,21.5,91.2,15.282,98.2,8.5,102.284.121c-.014-.13-.162-.138-.259-.1Z" transform="translate(459.169 270.271)" fill="url(#linear-gradient-6)"/>
          <path id="path1019" d="M78.235,0c-1.542,5.884-1.312,12.338-3.919,18.038-6.088,16.238-19.843,27.946-34.18,36.874-9.2,6.05-16.05,16.08-16.078,27.353.218,14.925,8.832,27.981,11.935,42.32,8.022,31.59,4.143,66.083-11.307,94.852C18.458,232.361,8.819,243.187,0,254.312c.742,1.487,2.859-1.666,3.8-2.052,45.436-39.24,78.04-94.522,85.352-154.536,4.385-31.98-.547-64.5-9.526-95.26C79.22,1.71,79.094.372,78.235,0Z" transform="translate(557.368 0)" fill="url(#linear-gradient-6)"/>
          <path id="path1021" d="M34.6.083C25.284,1.035,15.032,5.845,12.162,15.5,7.8,25.347,9.234,36.348,12.046,46.386c4.523,19.661,12.226,39.091,10.933,59.607.434,15.77-4.232,31.2-11.641,45C8.191,157.952,3.394,164.1,0,170.84c2.783-.95,4.841-4.472,7.125-6.53C25.3,144,44.035,121.861,49.5,94.376c4.4-21.364-.255-43.092-2.192-64.458-1.509-8.86-1.3-18.528-5.834-26.533A6.81,6.81,0,0,0,34.6.083Z" transform="translate(516.574 73.625)" fill="url(#linear-gradient-6)"/>
          <path id="path1023" d="M17.027,0c-2.557,1.557-1.6,5.8-2.5,8.373A217.992,217.992,0,0,1,.158,62.24c-.7,1.461,1.116,2.706,1.839.921C15.834,47.548,29.352,31.238,38.752,12.494c1.156-1.917,1.644-4.847-1.406-5.178C30.731,4.615,24.091,1.19,17.027,0Z" transform="translate(436.302 143.192)" fill="url(#linear-gradient-6)"/>
        </g>
        <g id="layer6" transform="translate(143.468 0)" style="isolation: isolate">
          <path id="path903" d="M67.7,0C60.44.091,53.367,2.171,46.579,4.6A126.087,126.087,0,0,0,13.6,22.976c-4.678,3.8-9.371,7.917-12.231,13.313C0,38.829-.707,42.135,1.019,44.7c.347.632,1.122,1.817,1.885.971,1.788-2.165,2.407-5.026,3.835-7.417,3.842-6.824,10.64-11.421,17.749-14.339,8.077-3.471,16.724-5.235,25.051-7.961,7.154-2.5,14.385-5.342,20.348-10.134A40.156,40.156,0,0,0,74.548.6,31.522,31.522,0,0,0,67.7,0Z" transform="translate(72.42 192.341)" fill="url(#linear-gradient-14)"/>
          <path id="path905" d="M56.756,0c-9.984.174-19.72,3.157-28.8,7.152-8.113,3.727-16.032,8.271-22.4,14.615C3.016,24.444.493,27.579.03,31.362c-.285,2.809,1.5,5.2,2.658,7.611.769,1.176,1.445,2.932,3.006,3.151,1.233-.393,1.551-1.929,2.114-2.944,2.3-5.9,7.042-10.354,11.69-14.449A117.818,117.818,0,0,1,48.231,6.817c5.105-2.163,10.494-3.961,16.094-4.024.917-.169,2.125.027,2.83-.658-.447-.762-1.586-.871-2.363-1.185A29.488,29.488,0,0,0,56.756,0Z" transform="translate(64.738 188.279)" fill="url(#linear-gradient-14)"/>
          <path id="path907" d="M24.178.02A68.28,68.28,0,0,0,12.736,2.415C8.491,3.673,4.159,6.046,2.261,10.258A24.7,24.7,0,0,0,.034,21.575c.126.677.143,1.97,1.031,2.014,1.383-1.023,2.027-2.769,3.073-4.106a36.235,36.235,0,0,1,7.2-8.378c4.1-3.7,8.883-6.529,13.108-10.067.533-.281.9-1.18-.043-1.02h-.107Z" transform="translate(62.206 191.565)" fill="url(#linear-gradient-14)"/>
          <path id="path909" d="M13.91,0c-1.876.738-3.256,2.359-4.774,3.639C5.048,7.574,1.344,12.357.216,18.037.025,19.532-.251,21.1.461,22.5c2.082,5.805,3.578,11.791,5.181,17.737a94.69,94.69,0,0,1,15.632,2.265C36.383,46.251,50.34,53.937,62.339,63.762c9.616,8.126,18.143,17.918,23.143,29.585.213.3.326,1.22.774,1.131.227-2.919-.083-5.876-.077-8.808q-.093-3.926-.183-7.852c-5.65-5.016-11.508-9.991-15.658-16.39a49.75,49.75,0,0,1-5.256-10.413c-1.242-2.567-3.658-4.3-5.829-6.046-2.965-2.058-5.809-4.287-8.565-6.609-.577-.175-1.054.563-1.668.52-4.547.682-9.189.015-13.663-.874-5.056-1.122-10.224-2.461-14.6-5.329-4.368-3.249-6.849-8.52-7.774-13.783a35.423,35.423,0,0,1,.743-14.377c.236-1.421.93-2.9.6-4.336A.433.433,0,0,0,13.91,0Z" transform="translate(77.981 222.821)" fill="url(#linear-gradient-14)"/>
          <path id="path911" d="M1.875.016A1.672,1.672,0,0,0,.027,2a34.236,34.236,0,0,0,13.4,24.269c5.411,4.242,11.889,6.747,18.327,8.967,9.434,3.417,18.711,7.824,26.308,14.489C63.072,54.19,67.314,60.044,68.1,66.873a24.3,24.3,0,0,1-1.929,12.163c.869-.141,1.6-1,2.346-1.488,2.921-2.45,5.971-4.9,8.113-8.1,2-3.336,2.438-7.389,2.276-11.206-.679-1.543-1.79-2.893-2.511-4.435-3.978-7.773-8.372-15.418-14.173-21.994C52.707,20.844,40.033,13.04,26.619,7.724A198.769,198.769,0,0,0,4.806.443,13.068,13.068,0,0,0,1.875.016Z" transform="translate(85.367 266.438)" fill="url(#linear-gradient-14)"/>
          <path id="path913" d="M5.266,0c-.961.555-1,1.934-1.343,2.894C2.55,8.774,1.434,14.713.059,20.593c-.422,2.058,1.5,3.582,2.924,4.71C8.9,29.42,15.8,31.764,22.477,34.323,35.609,39.3,48.684,45.025,59.883,53.64a53.008,53.008,0,0,1,9.133,9.152c.494.5,1.525,1.288,2,.353,2.691-4.967,1.846-11.257-1.145-15.9-4.281-6.6-10.887-11.314-17.765-14.916-6.663-3.579-13.881-5.893-21-8.357-6.613-2.34-13.241-5.666-17.571-11.378C10.588,8.962,8.619,4.69,6.165.741,5.927.457,5.684.011,5.266,0Z" transform="translate(79.024 279.6)" fill="url(#linear-gradient-14)"/>
          <path id="path915" d="M.056,0C-.171.513.361,1.242.447,1.8,4.043,12.6,10.72,22.29,12.629,33.643c.713,4.055.477,8.2.4,12.3-.711,8.333-2.312,16.609-2.162,25-.148,6.053,1.382,12.364,5.421,17.02A24.322,24.322,0,0,0,28.52,95.455c1.08.14,2.7.44,3.337-.683-.1-2-1.16-3.828-1.9-5.654a31.213,31.213,0,0,1-3.6-15.474,53.208,53.208,0,0,1,2.088-15.368,25.612,25.612,0,0,0-.32-12.083C25.2,35.959,18.927,27.141,12.663,18.7A116.364,116.364,0,0,1,1.252,1.7C.867,1.191.65.283.056,0Z" transform="translate(45.767 233.469)" fill="url(#linear-gradient-14)"/>
          <path id="path917" d="M12.708,0C10.8,1.119,9.413,2.958,7.932,4.572,3.693,9.524.228,15.568.006,22.23c-.17,6.737,3.134,12.926,6.633,18.464,6.3,9.9,14.5,18.705,18.935,29.7,1.517,3.584,2.118,7.441,3.1,11.18.276.555.27,1.662,1,1.793.848-1.225.7-2.9.848-4.335.323-8.808-.015-17.824-2.782-26.264-3.6-10.981-11.169-20.109-14.894-31.036-2.287-6.489-2.893-13.82-.394-20.344,0-.356.554-1.168.255-1.39Z" transform="translate(48.703 200.597)" fill="url(#linear-gradient-14)"/>
          <path id="path921" d="M21.576,0C16.8.8,12.01,1.579,7.258,2.528,4.466,3.28,1.548,4.713.135,7.366c-.416.646.206,1.266.818,1.416,1.787.625,3.729.335,5.578.244C9.971,8.712,13.064,6.965,15.9,5.11a34.309,34.309,0,0,0,5.716-5.1c0-.018-.036.012-.039,0Z" transform="translate(0 291.596)" fill="url(#linear-gradient-14)"/>
          <path id="path932" d="M8.517.008A108.069,108.069,0,0,1,.427,9.361C-.718,10.085.777,11,1,11.81c3.748,7.106,4.814,15.205,6.242,23.007,1.43,8.153,2.418,16.671,6.487,24.027C17.3,65.628,23.967,69.8,30.1,74.011c3.181,1.745,6.811,2.537,10.26,3.619,7.1,1.82,14.428,2.565,21.624,3.919a12.776,12.776,0,0,0,5.8-2.06c1-1-.638-1.9-1.514-2.062-6.217-1.7-12.881-1.4-18.9-3.925-5.57-2.207-11.313-5.3-14.523-10.559-3.982-9.219-5.747-19.165-8.364-28.814-2.219-8.54-4.141-17.492-9.513-24.717A93.133,93.133,0,0,1,8.561,0l-.02,0Z" transform="translate(246.964 284.917)" fill="url(#linear-gradient-14)"/>
          <path id="path934" d="M9.9,1.324c-1.77,1.6-3.872,3.035-5.085,5.124C4.132,10.257,2.073,13.658,0,16.865c3.018,1.572,5.381,4.177,7.669,6.649,6.187,7.049,8.252,16.479,10.614,25.291,1.082,4.052,1.949,8.214,3.29,12.167.724.119.978-1.22,1.462-1.642a194.629,194.629,0,0,0,9.908-17.524A110.39,110.39,0,0,0,31.416,30.73c-1.138-7.371-4.014-14.682-9.408-19.987C18.9,7.263,15.1,4.41,12.23.723c-.56-1.756-1.389.186-2.326.6Z" transform="translate(255.926 267.158)" fill="url(#linear-gradient-14)"/>
          <path id="path936" d="M17.4,0c-1.864,2.111-3.108,4.749-4.989,6.879A86.555,86.555,0,0,1,0,19.187c.59.684,1.911.9,2.758,1.392,9.106,4.154,14.872,13.226,17.773,22.5,1.151,3.415,1.581,7.039,2.717,10.443.5.629.766-.865,1-1.175a52.625,52.625,0,0,0,1.6-34.488A68.957,68.957,0,0,0,17.93.484C17.776.321,17.641.038,17.4,0Z" transform="translate(269.126 246.911)" fill="url(#linear-gradient-14)"/>
          <path id="path938" d="M5.011,0C4.085.482,3.9,1.873,3.343,2.716-1.188,13.1-.685,25.038,2.3,35.772,4.43,42.918,7.781,50.27,14.06,54.681c3.718,2.3,8.184,2.841,12.2,4.468,2.126.523,4.247,2.065,6.489,1.491.935-1.008.525-2.682.838-3.947A26.077,26.077,0,0,1,41.27,41.619a17.042,17.042,0,0,0,1.964-2.406c-8.053-5.292-16.988-9.494-23.907-16.34-4.081-3.849-5.508-9.406-7.446-14.463C10.4,5.391,8.557,2.344,5.836.286A1.614,1.614,0,0,0,5.011,0Z" transform="translate(330.909 274.592)" fill="url(#linear-gradient-14)"/>
          <path id="path940" d="M.342,0c-.82.68.066,2.067.283,2.9A26.634,26.634,0,0,0,11.392,15.137c8.624,5.14,18.077,9.357,25.045,16.81,1.744,1.566,3.189,3.66,5.341,4.652,2.371-2.005,4.275-4.579,6.838-6.4,1.622-1.186,4.162-2.36,3.737-4.8-.529-3.89-3.249-7-5.335-10.174C44.586,11.632,41.1,8.486,36.686,7.75c-8.066-1.617-16.572-.2-24.413-3.111C8.2,3.336,4.376,1.363.342,0Z" transform="translate(346.981 284.275)" fill="url(#linear-gradient-14)"/>
          <path id="path942" d="M6.724,0C4.959,1.382,3.251,2.859,1.631,4.4c-.437,2.03-.445,4.139-.68,6.2a150.753,150.753,0,0,0-.93,16.171A21.819,21.819,0,0,0,3.883,39.7,54.648,54.648,0,0,0,16.038,52.192a71.8,71.8,0,0,0,12.3,7.191c.12-.236-.416-.474-.55-.66a38.237,38.237,0,0,1-6.669-6.891c-4.274-6.041-6.045-13.4-7.231-20.6-1.468-8.885-2.693-17.857-5.3-26.5A28.016,28.016,0,0,0,6.724,0Z" transform="translate(238.252 296.402)" fill="url(#linear-gradient-14)"/>
          <path id="path946" d="M.455,0C-.415.54.242,1.95.176,2.792c1.4,8.888,3.42,17.677,5.693,26.38,3.349,12.136,7.908,24.6,17.183,33.525,6.726,6.772,15.7,10.53,24.578,13.575,10.357,3.809,17.446,13.79,19.836,24.3,1.048,4.5.486,9.19,1.36,13.7.188,1.228,1.133.014,1.344-.5,5.819-11.3,5.585-24.88,1.667-36.747-5.539-16.871-16.981-31.116-29.892-43-8.6-7.817-18.285-14.311-27.09-21.885C10.38,8.542,6.332,4.461,1.962.753A2.932,2.932,0,0,0,.455,0Z" transform="translate(337.344 212.826)" fill="url(#linear-gradient-14)"/>
          <path id="path948" d="M0,0C4.486,8.325,10.89,16.41,12.433,26.22c.1,14.456.667,20.741,2.778,32.757.726,4.706-1.023,10.254,1.005,14.538,6.044.651,7.613-7.46,9.063-11.931,3.175-14.618,3.964-30.812-2.45-44.862C21.318,13.412,8.217,4.353,0,0Z" transform="translate(442.922 260.852)" fill="url(#linear-gradient-14)"/>
          <path id="path950" d="M3.031.036C.35-.336-1.581,2.268,1.815,3.571c15.031,11.813,29.945,25.4,36.506,43.9a78.507,78.507,0,0,1,2.5,47.241c-.7,3.073-5.522,8.38-7.763,3.711-2.457-3.768.763-11.079-4.3-12.821-8.6,3.862-12.018,16.952-5.51,24.31,8.066,9.468,18.928,18.186,20.14,31.546.034,1.818,1.252,7.018,3.417,3.528,2.846-5.555,3.151-35.115-1.975-34.865-6-.514-13.728.8-18.249-3.8.713-4.288,6.126.252,8.787-.613,13.979,1.374,28.783-3.458,37.369-15.007,11.752-13.61,9.667-34.462-.676-48.254C59.116,23.193,37.788,11.855,16.019,5.472,11.257,4.6,7.821.241,3.031.036Z" transform="translate(370.534 231.354)" fill="url(#linear-gradient-14)"/>
          <path id="path952" d="M231.664.008c-14.5.261-31.306,2.512-40.034,15.653C180.445,30.34,175.678,50.268,181.411,68.1c-.012,2.04,2.034,6.337-.039,7.54C173.727,63,176.552,44.1,179.395,30.155c-3.456,1.361-7.21,7.426-9.708,11.035-8.116,11.728-10.163,28.4-6.011,32.459,1.48,4.925,9.62,4.795,9.833,9.99-3.9,1.486-8.774-1.5-12.913-1.813-7.358-1.089-13.768-4.864-19.578-9.211-4.1,1.874-6.77,7.117-8.671,10.969,11.234,1.707,23.007-.294,34.029,2.369-1.277,2.625-6.428,1.256-9,2.2-9.3,1.419-19.187.59-28.153,3.405-.09,5.491-5.982,9.328-8.731,13.828-3.37,4.94-8.8,9.355-10.066,15.281,6.065.591,12.472-1.426,18.615-2,8.229-6.815,15.14-15.768,24.8-20.565,3.666-.026-1.245,3.635-2.108,4.674-4.428,4.741-10.6,8.754-13.979,13.989a65.5,65.5,0,0,0,32.306-14.874c5.991-4.715,8.3-12.093,11.617-18.541,3.124-2.527,2.106,3.1,1.622,4.658-2.155,15.883-17.273,25.061-31.4,29.179-29.281,9.9-61.938,8.363-89.582,23.213-14.616,9.39-27.826,22.433-34.66,38.615-5.856,14.786-.379,30.35,2.992,44.965,2.336,19.713-.558,42.005-15.335,56.574C6.825,290.918-2.54,304.158.632,318.283c2.927,8.1,11.723,14.691,20.518,11.6,4.547-.89,8.613-3.189,12.487-5.633-5.626.3-12.878-3.308-11.538-9.958.925-18.581,17.718-30.137,26.122-45.333,6.841-10.571,4.482-23.683-.27-34.539C43.1,221.7,35.3,207.169,42.559,193.729c14.387-27.239,43.035-43.3,71.812-51.374,14.755-4.857,30.407-5.8,45.291-9.987,16.1-5.769,31.836-17.423,37.387-34.17,2.282-6.509-.846-12.851-4.167-18.275-1.689-3.149,2.107-2.888,3.277-.831,8.358,6.786,4.75,19.019,1.509,27.594-.209,1.591-5.892,8.207-4.082,9.114,10.3-6.813,21.841-23.138,11.144-35.991-2.357-3.134,1.764-2.8,2.725-.663,7.664,8.14,5.045,21.9-1.8,29.741-15.508,19.684-40.373,28.568-64.409,32.058-24.164,5.149-49.235,11.035-69.665,25.58-2.546,1.445-.879,3.005,1.226,1.543,22.4-5.558,45.923-6.81,68.582-1.941,17.55,3.9,35.9,6.059,53.555,1.491,9.84-2.141,21.314-5.775,24.64-16.546,7.658-19.968,7.078-43.065-.769-62.884-3.474-9.486-13.885-16.949-24.073-14.394-1.936.928-5.479,5.426-7.312,2.636,1.51-6.809,10.669-7.509,16.388-7.3,15.117,2.109,21.808,18.386,24.653,31.593,2.981,15.552,1.206,31.43-1.067,46.921-.721,17.081,10.8,32.821,24.8,40.187,15.136,7.963,32.926,29.129,35.244,31.8,10.624,12.244,13.147,30.324,10.375,46.573-1.854,16.763-12.112,30.62-19.037,45.459-3.317,11.734,8.089,20.782,18.425,22.885,19.511,3.567,40.262-3.357,59.15,4.623,12.015,4.05,21.982,12.093,30.954,20.755,2.06-2.859-.393-7.795-.92-11.183-5.811-19.738-25.552-31.406-44.83-34.806-12.559-3.47-26.872-3.83-37.526-12.04-.764-1.207-4.194-4.723-2.295-5.71,3.242.38,6.957,5.56,9.7,5.682-3.244-9.551-6.215-20.675-4.819-30.794,1.549-17.9,7.121-37.663-2.08-54.432-14.111-23.234-37.134-39.546-51.393-62.665-8.4-15.089-11.641-32.624-13.006-49.6,2.506-.535,2.445,4.785,3.458,6.446,4.509,17.81,8.1,36.917,20.941,50.959,6.788,7.663,13.028,16.465,21.465,22.271-1-14.358-4.138-28.905-8.032-42.87-3.345-12.909-12.317-23.259-18.218-34.818,1.729-1.523,4.043,2.88,5.518,3.863,17.213,19.6,20.594,46.695,24.392,71.519,1.61,12.213,13.114,19.433,18.006,30.2,8.988,14.7,7.989,32.773,4.106,48.893-3.012,14.767-2.515,31.734,7.357,43.9,4.842,2.133,10.368,2.572,15.624,2.667-11.346-12.816-10.371-31.414-6.47-46.972,1.626-6.144,1.289-12.557-2.416-17.922-9.924-15.989-14.895-34.306-17.571-52.782-4.868-27.28-10.179-56.541-28.944-78.1-9.683-11.322-24.033-16.541-38.041-20.088-2.234-.177-2.827-2.337-.163-1.92,23.957,1.225,45.507,17.407,55.18,39.1,13.808,27.283,13.755,58.578,22.191,87.456,6.042,18.035,15.537,37.075,32.908,46.5,5.9,2.63,12.392,4.916,18.938,3.814a58.094,58.094,0,0,1-30.739-37.257c-7.231-22.67-10.188-46.734-20.954-68.222-8.462-19.274-18.991-37.678-26.628-57.278-1.238-3.8,2.661-1.333,2.973.638C309.576,129.7,321.49,156.41,334.305,182.6c6.805,13.741,21.376,21.956,36.393,23,23.7,2.593,49.18,2.533,70.3,15.05,1.6.931,7.07,4.756,3.577,6.026-11.456-4.334-22.7-9.706-34.815-12.266-4.8-.632-10.106-3.149-14.758-2.179,2,3.524,7.672,3.514,10.9,5.947,11.146,4.64,20.549,13.366,32.778,15.145,12.544,4.826,22.116,15.927,35.952,17.75,14.846,2.826,28.417,9.656,40.807,18.123,1.981,1.861,6.634,2.764,6.144-1.333-.427-13.332-12.4-22.637-22.631-29.355-14.432-8.327-31.812-12.39-42.889-25.711-9.866-8.9-16.062-21.858-27.873-28.449-12.874-4.354-26.863-2.071-40.2-1.955-15.018.994-31.734,7.025-45.624-1.542-13.81-11.044-16.681-29.754-23.948-44.958-1.753-5.312-6.756-9.09-8.526-14.13,4.193-1.394,7.007,4.553,9.562,7.056,9.8,13.947,10.338,32.971,22.278,45.589,7.288,6.7,18.906,8.284,28.03,5.049,16.76-8.49,33.813-16.8,51.709-22.606,6.124-1.026,13.406-2.2,19.095.5-1.566,2.881-6.765,1.864-9.673,2.913-14.828,1.625-36.154,10-48.843,17.478,6.452-.293,23.3-3.968,37.448-.692,22.255,5.154,39.46,20.507,56.766,34.058,12.011,8.657,30.235,13.6,42.821,3.355,12.961-11.406,14.024-31.33,9.62-46.974-1.84-4.048-3.149-10.4-7.908-11.7-4.738,3.571-4.622,10.978-8.876,15.262-11.642,16.381-35.289,18.16-52.367,9.938-6.981-3.412-15.16-5.322-21.184-10.2-1.158-4.306,5.367-1.889,7.4-1.413,9.029,2.278,18.543,6.819,27.931,4.564,3.672-3.32-2.933-5.91-5.353-7.078-16.272-5.872-26.4-20.944-41.368-28.839-12.935-6.34-30.563-2.911-40.225-15.34-1.717-3.669,3.694-1.446,4.81-.141,4.658,2.7,10.362,6.345,15.727,5.315-4.051-5.25-8.023-11.346-11.433-16.7-5.3,2.419-10.139,9.889-16.385,7.944,7.934-8.589,17.227-15.885,21.529-29.026,1.453-1.679,2.534-6.612,5-6.27.09,8.548-6.742,16.389-5.476,25.055,4.048,17.677,20.693,24.241,35.982,22.646,14.13-1,30.516-.8,40.784,10.582.989,2.291,6.566,8.8,5.188,4.354-2.827-12.842-20.691-18.31-32.775-21.889-13.923-4.64-30.27-10.076-36.405-24.822-2.8-8.282-4.8-17.953-2.027-26.413,2.279,1.262,1.168,6.163,2.144,8.553a37.871,37.871,0,0,0,24.186,33.3c5.48,2.042,19.132,7.576,24.847,7.211-9.2-3.071-21.389-11.684-26.22-23.395-6.875-16.668-12.049-31.726-19.78-33.516-7.545-4.805-14.845,3.434-19.887,8.29-10.964,11.474-20.392,28.013-37.748,29.944-18.353,1.691-32.075-13.7-41.745-27.312-13.159-17.971-21.717-38.856-34.8-56.828-5.739-6.491-15.07-1.209-21.766.848-24.477,9.916-46.08,25.467-66.695,41.7-3.18,2.093-1.008-2.32.382-3.079C211.09,42.145,232,29.723,253.231,19.072c6.386-3.6,13.752-4.83,20.415-7.454-5.032-4.846-12.874-6.835-19.5-9.216A83.639,83.639,0,0,0,231.664.008Zm16.393,52.422c20.089.958,33.9,17.724,47.451,30.518,11.8,11.088,22.215,25.117,38.376,29.993,15.841,6.735,34.094,7.72,48.548,17.527,8.966,6.534,11.724,22.181,1.253,28.667-12.341,7.118-28.1,5.393-40.833.293-4.281-1.2-6.74-7.143-1.957-9.51,8.527-5.086,19.132-6.149,26.462-13.366,1.512-1.848,6.066-1.832,3.814,1.351-6.251,9.309-18.838,10.34-27.673,15.76,1.146,4.227,7.615,4.395,11.159,5.683,10.826,1.724,24.859.766,31.667-9.021,3.491-9.117-5.093-17.849-13.2-20.649-21.6-8.849-47-10.435-64.757-27.071C292.1,89.426,279.324,71.86,261.013,61.3c-13.352-7.213-29.109-2.415-42.5,2.149-1.776.1-6.38,2.58-7.044.588,10.649-6.8,23.846-11.5,36.586-11.61Z" transform="translate(2.108 21.075)" fill="url(#linear-gradient-14)"/>
          <path id="path954" d="M.418,0C-1.348,1.216,3.013,3.984,3.639,5.358c5.333,4.727,8.516,11.751,14.08,16.016C20.3,17.617,23.66,9.162,19.494,8.087,13.583,4.64,7.254,1,.418,0Z" transform="translate(351.872 363.01)" fill="url(#linear-gradient-14)"/>
          <path id="path956" d="M71.3,0C62.319.281,53.817,3.68,45.675,7.211c-9.364,4.025-18.218,9.222-27.865,12.58C13.219,21.4,8.13,22.267,3.4,20.736,2.3,20.565,1.112,19.9.022,20.255c-.184.929.836,1.642,1.262,2.39,6.28,7.894,13.782,15.349,23.38,19A29.428,29.428,0,0,0,38.039,43.46a20.734,20.734,0,0,0,12.437-5.543c9.361-8.356,15.59-19.556,24.766-28.087,2.105-2.131,5.016-3.219,7.126-5.324.614-.533.271-1.294-.334-1.66A19.4,19.4,0,0,0,71.3,0Z" transform="translate(324.338 76.649)" fill="url(#linear-gradient-14)"/>
          <path id="path958" d="M42.4,0C34.286.181,26.843,4.442,20.97,9.781,13.213,16.846,7.734,25.931,2.52,34.928,1.636,36.7.392,38.39,0,40.351c.292.561,1.051-.289,1.394-.457,6.99-5.844,12.872-12.917,20.1-18.5,5.479-4.242,11.544-8.286,18.52-9.4A14.142,14.142,0,0,1,53.318,16.83,8.772,8.772,0,0,1,55.231,23.7c-.44,4.208-3.1,7.779-5.74,10.919-6.121,6.992-14.153,11.856-21.956,16.725C20.207,56.184,13.286,62.162,9.05,69.977A20.61,20.61,0,0,0,6.316,81.543c.324,5.395,4.1,10.045,8.655,12.664a23.414,23.414,0,0,0,9.65,3.349c.624.056,1.833-.36,1.153-1.1a22.572,22.572,0,0,1-2.781-13.889C23.873,74.791,27.416,67.6,31.451,61a153.439,153.439,0,0,1,15.4-20.056c5.208-6.179,10.443-12.522,13.824-19.925,1.631-3.73,2.8-8.282.763-12.091-2.255-4.114-6.761-6.234-11.012-7.688A24.625,24.625,0,0,0,42.4,0Z" transform="translate(137.143 0)" fill="url(#linear-gradient-14)"/>
          <path id="path966" d="M60.323.018c-9.993.571-20.184.668-29.83,3.65a37.067,37.067,0,0,0-15.57,9.516C9.733,18.426,5.641,24.621,1.743,30.846,1.056,32.138.054,33.414,0,34.927c.228.993,1.5.8,2.273.789a25.149,25.149,0,0,0,7.224-1.4c2.507-1.229,3.942-3.783,5.477-5.991a112.072,112.072,0,0,1,8.154-11.82,84.359,84.359,0,0,1,10.29-11.08,3.09,3.09,0,0,1,1.714-.792c.34-.488-.157-1.476.687-1.555C43.874.719,52.356,1.114,60.618.157c.457-.022.189-.21-.1-.142l-.108,0Z" transform="translate(95.948 109.352)" fill="url(#linear-gradient-14)"/>
          <path id="path968" d="M52.325.008A98.362,98.362,0,0,0,37.383,6.515C23.527,13.864,11.55,25.4,5.348,39.967A65.879,65.879,0,0,0,.112,69.9c.4,14.339,5.308,28.161,11.71,40.859,1.218,2.139,2.113,4.726,4.147,6.217,1.291.085,1.507-1.759,1.926-2.665,2.557-7.978,1.636-16.628-.379-24.618-1.941-7.059-4.242-14.07-4.977-21.394a57.946,57.946,0,0,1,6.473-35.314c6.142-11.4,15.981-20.3,26.46-27.666,2.3-1.773,4.988-3.142,7.042-5.189.031-.12-.1-.139-.188-.118Z" transform="translate(11.42 156.79)" fill="url(#linear-gradient-14)"/>
          <path id="path974" d="M26.438,7.455c-7.741,2.16-16.64,3.027-23,8.272C-2.193,25.347-1.387,40.814,9.455,46.6c5.85,3.29,12.7,4.45,19.346,4.327-8.578-9.673-15.05-24.707-7.806-36.872,3.469-6.585,16.5-6.008,17.574-6.3,5.442-1.484,14.739-12.372,1.39-5.5Z" transform="translate(94.772 206.051)" fill="url(#linear-gradient-14)"/>
        </g>
        <g id="layer7" transform="translate(161.271 176.173)" style="isolation: isolate">
          <path id="path981" d="M96.32.014c-4.267,2.539-7.251,6.791-11.353,9.6-11.878,8.526-27.079,10.21-41.3,9.625-7.107-.164-14.119-1.563-21.153-2.3-1.974,1.877-2.982,4.636-5.035,6.513-1.923,2.373-4.5,4.121-6.813,6,.986.194,2.429.769,1.444,2.031A15.62,15.62,0,0,1,4.12,37.721c-1.283.463-3.065-.216-4.12.629,2.116,1.092,4.187,2.858,4.628,5.385,4.325,16.774,7.2,33.94,12.588,50.43a42.758,42.758,0,0,0,13.14,20.073c8.075,6.783,17.39,11.887,26.53,17.066,5.639,3.032,11.921,5.806,18.48,4.769,6.751-.8,12.568-4.736,18.451-7.842,8.029-4.8,16.232-9.5,23.364-15.6,8.418-7.752,11.221-19.348,14.213-29.951,2.881-10.836,5.341-21.777,7.873-32.7-6.56-5.958-14.181-10.567-21.326-15.761-4.128-1.761-8.814-1.121-13.2-1.307-4.81-.406-9.422,1.93-14.2,1.274-1.3-.191-1.089-1.788.037-2.1,5.725-3.858,12.877-3.018,19.405-3.14,3.3.615.785-1.245-.4-2.545C103.008,19.484,97.19,10.888,96.834,1.047c-.12-.312.055-1.167-.514-1.033ZM40.888,28.72c4.72.271,10,.49,13.855,3.537.993.673.8,2.629-.716,2.152-4.485-.221-8.924-1.155-13.443-.964-5.723.1-11.584-.147-17.17,1.238-3.684,1.289-6.861,3.911-10.578,4.977,1.046-1.941,3.175-3.4,4.9-4.847,6.618-4.781,15.167-6.105,23.153-6.093ZM126.94,52.681c2.1.481,2.07,3.318,2.638,5,.547,1.4-.054,3.632-1.937,3.17-2.755-.563-5.534-1.919-8.372-.8-4.635,1.486-9.441,2.6-14.345,2.146-5.765-.416-11.273-2.586-16.526-4.882-.952-.675-2.929-1.087-3-2.426,2.383-.978,5.163.027,7.64.319,6.639,1.42,13.534,3.686,20.311,1.635,4.634-1.011,8.946-3.33,13.6-4.161Zm-107.721.278c6.59,1.257,12.687,5.34,19.621,4.709,6.2-.292,12.058-2.823,18.222-3.247,1.3.122,3.407.915,3.372,2.4-2.088.434-4.454.288-6.23,1.767-5.593,3.43-12.5,3.594-18.871,3.475-5.141-.332-10.105-3.569-15.313-1.974-1.092.985-3.621,2.122-4.014-.12-.339-2.33-.313-5.962,2.331-6.932a3.041,3.041,0,0,1,.882-.076Z" transform="translate(111.471 0)" fill="url(#linear-gradient-39)"/>
          <path id="path983" d="M9.945,0A12.821,12.821,0,0,0,.133,10.884C-.8,19.424,3.342,27.669,8.409,34.266A55.476,55.476,0,0,0,22.39,46.814c.893-.75-.045-2.488-.008-3.519C19.95,31.865,18.374,20.271,15.869,8.859,15,5.636,14.035,1.635,10.789.046A4.38,4.38,0,0,0,9.945,0Z" transform="translate(99.049 41.19)" fill="url(#linear-gradient-40)"/>
          <path id="path985" d="M6.666.005C4.172,11.54,2.391,23.271.195,34.884c-.608,1.61.321,1.471,1.237.5,7.039-5.628,14.882-11.212,18.537-19.776.591-1.645-1.9-3-2.61-4.51C14.058,7.209,10.841,3.073,6.75.006L6.7,0Z" transform="translate(246.295 52.26)" fill="url(#linear-gradient-40)"/>
          <path id="path987" d="M205.43,5.37c-12.971,9.3-30.7,7.774-43.735-.56-3.315-1-8.161-5.477-10.93-4.655-.757,12.7,4.564,28.155-6.593,37.892-17.99,18.447-43.728,25.666-68.551,28.942C57.777,68.927,40.136,80.539,36.206,98.873c-6.851,32.1-3.594,65.444-10.728,97.562C19.546,232.193,12.5,267.784,2.2,302.563c-6.164,18.315,1.454,37.95,12.46,52.685,5.225,5.765,13.311-3.427,19.77-4.107,40.7-15.322,80.23-37.224,108.081-71.427,4.962-4.3,9.094-12.075,15.881-13.028,2.034,5.837-5.829,10.582-8.32,15.308-12.22,14.292-24.782,28.6-39.947,39.864,4.62,19.192.5,39.152-8.73,56.319-20.7,40.378-49.839,78.572-54.36,125.168-4.789,49.267,11.749,97.208,26,143.624,19.856,59.367,40.43,119.185,71.957,173.541,9.731,15.018,20.682,31.458,37.661,38.751,15.064-2.317,24.462-16.828,33.008-28.189,30.97-47.026,51.112-100.151,70.05-152.887,15.238-46.674,29.79-94.12,35.219-143.086,2.113-20.592,2.51-41.96-5.81-61.375-12.408-36.445-35.011-68-51.493-102.5a74.238,74.238,0,0,1-5.713-49.434c-18.382-15.032-36.029-32.024-48.236-52.526-.758-5.226,6.071-1.126,7.294,1.189,19.806,21.4,40.113,43.081,66.119,57.059,21.723,12.768,45.271,21.94,68.883,30.532,8.608-11.308,15.03-25.212,16.362-39.457-1.406-22.481-11.334-43.371-14.959-65.525-8-40.348-16.519-80.9-17.006-122.2-1.812-19.322-1.8-43.341-19.726-55.483-23.215-12.941-52.437-8.307-75.083-22.993-15.589-8.957-26.785-26.59-23.747-45,3.523-12.5-4.836-6.177-11.557-2.455ZM89.8,125.057c3.312,5.49.759,13.509,1.237,19.855-.826,16.188-4.817,31.983-5.969,48.148-2.035,9.017,6.753,16.177,9.631,23.959.971,14.421-.467,28.912-.559,43.356,6.953-2.329,14.917-7.5,22.255-5.353-5.108,7.336-15.5,9.588-23.231,13.686C67.4,279.747,38.838,281.4,12.5,290.51c-3.3-4.5,4.531-8.928,8.294-10.1,10.857-4.673,23.37-4.856,34.028-9.381,11.3-39.021,19.878-78.857,31.532-117.745,2.107-9.188.089-19.664,3.326-28.246Zm189.1.583c4.031,10.086.13,22.121,4.049,32.6,11.907,37.459,20.6,75.924,30.18,113.946,14.259,3.712,30.972,3.436,42.7,13.314,2.537,5.762-6.8,3.727-9.448,2.448-28.128-8.7-58.555-10.543-84.581-25.455-3.3-2.659-10.737-3.779-11.051-8.594,6.413-2.932,13.349,3.849,19.786,4.92,5.207,1.369,2.424-7.281,3.223-9.978.838-13.247-2.314-27.2,1.507-40.011,13.508-19.508,2.085-43.1,2.155-64.431.425-5.944-1.857-13.745,1.34-18.779Z" transform="translate(0 129.06)" fill="url(#linear-gradient-40)"/>
        </g>
        <g id="layer11" transform="translate(161.655 360.908)" style="isolation: isolate">
          <path id="path1087" d="M223.166.007c-4.993,1.632-10.011,10.045.929,9.643-14.356,7.375-29.121,17.415-46.139,19.251C136.585,37.487,88.75,31.055,54.187,59.963c-14.17,12.23-30.468,28.649-39.347,45.02C-17.08,167.951,6.948,217.562,44.8,164.014c5.608-12.287,16.907-45.793,11.057-40.861-14.833,12.506-34.813,36.308-39.448-1.834C14.147,102.7,60.178,91.085,64.082,91.433c2.669-6.55-.269-16.318,3.937-21.47,2.817,8.58.974,18.11,1.538,27.039,38.488-7.735,82.129,5.547,116.369-18.95,32.976-20.491,64.88-43.495,98.855-61.868C265.716,8.155,243.448,9.57,224.478.239a2.858,2.858,0,0,0-1.312-.232Zm13.415,14.8c5.99,8.106-2.721,19.027-9.651,24.241C198.034,60.86,162.577,78.86,125.7,78.2c-11.917,1.633-24.278-12.626-14.549-22.739,14.239-15.7,38.34-10.88,57.233-14.494a116.683,116.683,0,0,0,63.786-24.382c1.395-.6,2.8-1.876,4.408-1.78Z" transform="translate(21.809 0)" fill="#fff"/>
          <path id="path1093" d="M44.872,0C34.949,15.666,21.032,47.151,0,48.607,1.614,60.966,5.159,73.112,8.386,84.4c11.627,1.437,36.368,3.59,47.441,2.579C51.238,61.283,42.627,32.72,44.872,0Z" transform="translate(288.316 67.669)" fill="#fff"/>
          <path id="path1095" d="M18.13.5C15.49-.056-5.689,3,1.47,6.359c22.874,7.11,52.862,18.129,71.5,38.113.363-5.328,5.692-23.437-.949-23.476C52.488,19.46,39.081-3.655,18.13.5Z" transform="translate(205.11 97.283)" fill="#fff"/>
          <path id="path1105" d="M0,0C4.562,29.077,34.165,41.66,55.236,57.481c12.3,7.366,18.518,20.3,24.828,32.374,6.022,4.567,14.329,7.858,21.195,9.5,6.234-9.088,13.42-20.485,14.093-30.807C101.831,43.432,70.723,41.424,48.536,28.065c-4.362-4.278-9.122-8.814-14.148-12.07C23.7,9.067,11.8,4.9,0,0Z" transform="translate(250.389 202.58)" fill="#fff"/>
          <path id="path1109" d="M.778,0c-2.32,3.221,1.188,8.161,2.228,11.526C8.678,24.784,24.04,28.247,36.06,33.447c34.374,12.076,69.027,24,100.976,41.784,6.738,2.983,13.061,8.285,20.4,9.244,3-4.4-1.468-10.167-2.776-14.547C144.5,47.016,125.928,25.988,100.7,20.131c-27.135-7.037-55.613-4.4-82.963-9.8C10.918,8.925,6.55,3.16.778,0Z" transform="translate(119.823 303.103)" fill="#fff"/>
          <path id="path1111" d="M11.6,0C5.956,6.816,3.18,15.992,1.27,24.613c-4.834,29.5,4.624,59.337,20.051,84.31,15.215,24.734,34.142,47.716,58.539,63.885,27.062,19.977,57.745,36.027,80.006,61.779,17.615,20.584,23.908,47.592,29.941,73.269,2.541.13,2.869-5.106,4.1-6.925,11.2-33.683,21.047-67.913,28.218-102.69,1.293-8.985-3.651-17.5-5.533-26.123C208.807,145.288,198.1,117.271,175,99.835,144.09,76.333,105.31,67.8,69.163,55.695,50.8,50.649,32.564,41.9,20.6,26.613,15.361,18.7,15.862,8.063,11.6,0ZM9.059,21.356c4.85,4.812,5.416,12.784,10.149,17.966C32.143,57.793,53.43,67.285,74.14,74.211c26.02,9.825,54.229,15.486,77.382,31.615,28.968,20.07,46.187,55.79,43.838,90.96.352,8.8-2.179,19.452-10.357,24.026-12.239,2.6-21.375-8.061-29.779-15.125-24.336-23.119-48.577-46.481-70.751-71.7-4.374-5.222,2.544-11.05,7.939-10,15.117,1.323,25.693,14.017,36.531,23.264,12.4,10.963,23.037,24.5,37.7,32.547,3.524,2.012,8.454.908,8.723-3.715,2.688-15.056-6.989-29.444-17.823-38.987-27.9-24.612-66.254-29-98.845-44.557C33.391,79.641,10.915,55.992,7.77,26.74c.156-1.37-.713-5.033,1.289-5.383Z" transform="translate(93.451 316.035)" fill="#fff"/>
          <path id="path1117" d="M.247,0c-.858,4.727.781,9.938.982,14.812C3.67,38.406,8.478,62.341,20.935,82.876c18.444,31.742,44.518,58.075,64.791,88.539,11.161,17.2,17.128,36.928,24.137,56,5.229,12.489,10.451,26.6,22.389,34.226,11.6,6.971,29.06,1.382,33.695-11.6,5.842-15.756,1.52-33.1-3.732-48.4-12.393-34.078-36.284-63.212-65.569-84.284C76.216,102.089,54.292,88.3,37.458,68.819A148.863,148.863,0,0,1,2.669,5.336C1.885,3.813,1.8.791.247,0Z" transform="translate(83.188 402.086)" fill="#fff"/>
          <path id="path1119" d="M.175.013C-.591,5.775,1.361,11.853,2.15,17.645c7.036,33.941,19.731,66.4,33.081,98.279,13.065,28.481,29.136,55.448,43.483,83.284,8.666,16.5,18.107,32.805,23.045,50.918,6.79,23.638,11.411,48.67,7.713,73.249a28.661,28.661,0,0,1-7.286,15.791c.3,2,3.226,3.711,4.185.971,12.056-13.65,16.345-32.119,18.007-49.791,1.527-27.742.324-56.785-11.93-82.251-10.89-21.861-26.482-40.882-39.916-61.169C48.5,112.242,27.751,75.194,11.757,36.124,6.973,24.571,4.495,12.267.809.379.646.231.439-.066.175.013Z" transform="translate(68.14 457.377)" fill="#fff"/>
          <path id="path1121" d="M111.859,0c-6.744,3.176-13.452,6.51-20.328,9.433-2.018,7.973-8.325,13.854-15.249,17.8-13.161,8.34-29.11,9.469-43.362,15.12C20.288,46.916,7.788,53.9.133,65.256c-.7,3.7,1.544,7.329,2.539,10.832,3.549,8.322,7.262,17.141,14.211,23.227,8.278-3.9,16.993-6.763,25.488-10.142,5.123-11.576,15.17-19.9,24.583-27.937C79.638,51,93.437,41.42,102.782,27.8c5.5-8.231,8.2-18.078,9.171-27.8L111.929,0Z" transform="translate(0 203.678)" fill="#fff"/>
          <path id="path1127" d="M184.965,68.842c-.713.8-30.367-2.012-55.743-15.218C94.841,35.73,64.494,5.143,49.6.845,35.487-3.227,16.931,8.533,10.311,12.31c-2.7,1.542-10.15,5.1-10.306,9.9C-.238,29.661,7.982,40.1,8.453,50.652c.783,17.513-1.893,35.3-3.857,34.9C.441,84.432,38.633,71.936,57.918,76.182c13.723,3.021,10.431,22.173,9.064,25.4-12.19,15.423-26.331,29.18-40.994,42.157C22.544,157.8,41.735,166.6,51.352,170.834c20.689,11.619,47.851,8.225,67.858-2.541,17.111-8.045,31.953-18.473,48.7-27.23-15.3-15.287-30.675-30.728-44.03-47.682-5.149-2.321-11.584,4.287-16.1-1.382-.992-.767,7.551-18.629,28.3-19.165,16.291-.422,40.9,17.9,48.887,9.049,2.976-3.3,2.01-11.836,0-13.04ZM107.206,96.676c20.226,1.832,31.834,31.077,15.646,45.036-13.447,14.02-35.18,14.236-52.95,10.654-6.681-2.626-17.67-5.267-18.294-13.761,4.483-4.448,14.911.412,19.681-4.623,13.3-10.739,15.224-37.167,35.916-37.306Z" transform="translate(84.96 122.245)" fill="#fff"/>
        </g>
        <g id="layer10" transform="translate(245.426 497.261)" style="isolation: isolate">
          <path id="path1028" d="M1.4,0C-.56.155-.165,2.8.784,3.877a127.362,127.362,0,0,1,7.21,14.071c1.829,3.847,5.3,6.447,8.944,8.434,2.544,1.436,4.674,3.868,7.539,4.6,1.089-1.256-.058-3.438.855-4.9,1.594-2.652,5.449-1.547,7.678-.348a9.745,9.745,0,0,1,5.5,8.618c.531,4.933.027,9.991.848,14.866,1.2-.034.829-2.161,1.041-3.018.467-6.369-.281-12.833.745-19.149.8-2.653,2.075-6.627,5.46-6.556,4.239,1.055,6.39,5.582,7.626,9.422,2.117,6.044.8,12.535,1.206,18.788A11.523,11.523,0,0,0,57.653,56.3c.635.794,1.11,2.378,2.025,2.659,2.176-4.173.95-9.08,1.364-13.583-.045-3.431.915-8.168,4.839-8.988,4.651-.325,7.545,4.526,8.514,8.488,2.516,9.4,1.88,19.8,7.2,28.323,1.308,2.255,4.167,5.262,6.905,3.274,3.5-3.027,5.93-8.722,3.333-13.04-.84-1.428-3-3.342-4.488-1.583-1.743,1.649-1,4.462-2.65,6.235-.251.58-1.361,1.733-1.432.394-.72-3.619.3-8.076,3.989-9.658,2.534-1.334,5.487-.117,7.061,2.093.721.619,1.46,1.925,2.279,2.148.336-6.562.244-13.483-2.406-19.617-2.29-5.2-7.569-8.223-12.908-9.441-5.584-1.43-11.5-2.694-15.926-6.675-4.6-3.778-9.7-7.564-15.849-8.02-9.384-1.205-19.108.07-28.275-2.635-3.869-1.107-5.962-4.733-7.753-8.032C10.6,4.674,6.54.465,1.4,0Z" transform="translate(0 1.125)" fill="url(#linear-gradient-43)"/>
          <path id="path1032" d="M2.923,0C1.105,1.263,1.1,4,.622,5.988A77.951,77.951,0,0,0,.29,21.933c.942,4.264,2.925,8.205,4.4,12.295,2.3.9,5.088,2.287,7.493,1.082.5-2.166-1.278-4.2-1.886-6.224C6.516,20.246,7.682,10.2,4.207,1.293,3.923.813,3.609-.04,2.923,0Z" transform="translate(64.505 41.596)" fill="url(#linear-gradient-43)"/>
          <path id="path1034" d="M3.849,0C1.976.681,2.281,3.352,1.78,4.958.8,12.453-.881,20.139.559,27.679,2.358,33.8,6.909,38.571,9.7,44.226a4.943,4.943,0,0,0,5.331,3.151,18.29,18.29,0,0,0,7.045-1.317c-1.844-3.471-3.706-7.282-7.311-9.215-3.689-3.764-5.237-9.161-5.978-14.257C8.3,16.619,9.6,10.5,8.163,4.628,7.515,2.653,6.261.04,3.849,0Z" transform="translate(42.666 26.533)" fill="url(#linear-gradient-43)"/>
          <path id="path1036" d="M3.179,0C1.058.085,1.264,2.432,1.027,3.938.5,11.226-.408,18.567.2,25.872c.835,6.14,6.021,10.386,10.454,14.156,1.575,1.064,3.346,2.692,5.336,2.49,1.8-.543,3.231-2.512,2.064-4.3-2.6-6.008-7.616-11.028-8.619-17.668-.861-6.407.581-13.75-3.768-19.178A3.324,3.324,0,0,0,3.179,0Z" transform="translate(26.75 28.634)" fill="url(#linear-gradient-43)"/>
          <path id="path1038" d="M95.193.005C89.31.567,85.285,5.711,82.225,10.29a14.628,14.628,0,0,1-10.444,7.166c-9.411,1.76-19.147.376-28.511,2.406-8.4,2.221-13.29,11-22.026,12.444-4.657,1.326-9.842,1.618-13.922,4.425C2.762,40.236,1.988,46.375.74,51.6.172,55.277-.67,59.407.906,62.912c1.821-1.241,2.42-4.534,5.149-4.623,5.229-.507,9.854,6.508,6.275,10.755-1.6.33-1.492-2.174-1.72-3.2-.187-1.883-.316-5.343-3.035-4.982-3.11.8-3.371,4.8-3.178,7.483.374,3.465,2.315,7.4,5.892,8.371,4.657-1.158,6.56-6.267,7.96-10.352,2.99-8.536,1.874-18.072,5.828-26.307,1.247-2.586,4.228-5.895,7.36-4.178,4.25,2.925,4.221,8.709,4.616,13.329.333,3.021-.1,6.29,1.006,9.141,1.676-.824,2.14-3.189,3.095-4.733,2.108-3.468,1.933-7.6,1.386-11.462-.6-5.366-2.129-11.783,1.915-16.229,2.354-2.9,6.4-5.815,10.237-4.107,3.1,1.937,2.142,6.091,2.466,9.16.228,4.856-.141,9.857.587,14.624,1.109-2.245.854-5.1,1.217-7.587.367-4.048.086-8.914,3.65-11.694,2.7-2.694,8.231-2.78,9.76,1.213.6.706.284,2.583,1.1,2.848,6.588-3.448,13.305-7.753,17.084-14.361a76.487,76.487,0,0,1,7.373-13.26c.881-.929.757-2.964-.9-2.74C95.749,0,95.471,0,95.193.005Z" transform="translate(103.871 0)" fill="url(#linear-gradient-43)"/>
          <path id="path1040" d="M9.018,0c-3.185,1.074-3.559,5.072-4.2,7.9C3.713,15.567,3.112,23.392.3,30.679c-.787,1.712,0,4.044,2.13,4.052,1.643,0,3.6-.35,4.037-2.24,2.479-4.772,4.459-9.885,4.6-15.329.27-5.448.7-11.155-1.075-16.394C9.805.395,9.491-.05,9.018,0Z" transform="translate(125.045 40.965)" fill="url(#linear-gradient-43)"/>
          <path id="path1042" d="M18.127,0c-2.657.884-3.147,4.267-3.9,6.629-1.147,7.629.552,15.582-1.793,23.074-1.011,3.715-2.933,7.552-6.653,9.163-2.566,2.107-3.5,5.55-5.169,8.324-1.072,1.276-.721,2.1.971,2.036a8.469,8.469,0,0,0,9.661-2.559c3.686-4.565,6.265-9.894,9.62-14.7,1.563-2.578.789-5.836,1.123-8.706C22,16.077,22.3,8.651,20.118,1.713,19.776.891,19.133-.053,18.127,0Z" transform="translate(135.603 24.142)" fill="url(#linear-gradient-43)"/>
          <path id="path1044" d="M16.19,0c-3.509.01-4.267,3.964-4.783,6.681-1.358,6.888-.339,14.472-4.332,20.635C4.841,31.549,1.852,35.438,0,39.835c2.277,2.72,6.714,2.069,9.178-.121,4.477-3.548,9.212-7.894,10.38-13.739.644-6.628-1.347-13.173-1.33-19.805-.343-1.949.333-4.609-1.273-6.058A1.822,1.822,0,0,0,16.19,0Z" transform="translate(154.754 27.486)" fill="url(#linear-gradient-43)"/>
        </g>
      </g>
      <g id="siren_girl-2" data-name="siren girl" transform="matrix(0.995, -0.105, 0.105, 0.995, 773.547, 971.934)" style="mix-blend-mode: overlay;isolation: isolate">
        <path id="Union_40" data-name="Union 40" d="M335.226,1159.668a1.483,1.483,0,0,1-.713.177,2.9,2.9,0,0,1-2.533-2.393l.1-.106c-10.616-8.4-18.556-20.4-25.818-31.6-31.526-54.356-52.1-114.175-71.957-173.542-14.251-46.416-30.79-94.357-26-143.624,4.378-45.12,31.841-82.361,52.369-121.336a44.728,44.728,0,0,1,3.613-6.985c7.124-14.5,10.592-30.775,8.324-46.79a13.066,13.066,0,0,1-.392-2.448q-.352-1.968-.823-3.927c3.455-2.566,6.774-5.289,9.986-8.135q5.6-5.186,11.016-10.582c6.592-6.8,12.811-13.973,18.945-21.147a19.3,19.3,0,0,1,2.6-3.521,32.362,32.362,0,0,0,.956-9.876c-4.2,2.808-7.428,7.921-11.115,11.117-25.869,31.769-61.812,52.925-99.414,68.054q-.175.376-.344.757c-8.494,3.379-17.209,6.245-25.487,10.141-6.95-6.086-10.662-14.9-14.211-23.226-.995-3.5-3.24-7.128-2.539-10.832l.168-.247a44.76,44.76,0,0,1,1.517-21.8c8.471-28.6,14.738-57.743,20-87.078-.1-9.434,1.7-20.822,5.819-33.291,3.856-27.658,2.346-55.941,8.189-83.321,3.931-18.334,21.572-29.947,39.416-31.885,24.823-3.276,50.561-10.495,68.55-28.942,11.157-9.736,5.837-25.2,6.593-37.891,2.768-.823,7.614,3.655,10.93,4.655,13.03,8.334,30.764,9.863,43.735.56l.83-.433c6.72-3.722,15.08-10.041,11.557,2.455-3.038,18.406,8.158,36.04,23.746,45,22.647,14.685,51.868,10.051,75.083,22.993,17.923,12.142,17.914,36.161,19.726,55.483.487,41.3,9,81.851,17.006,122.2,3.624,22.154,13.553,43.044,14.958,65.525-1.331,14.244-7.754,28.148-16.362,39.457q-3.161-1.15-6.316-2.316-1.23-.43-2.468-.916c-20.645-7.693-41.071-16.117-60.1-27.3-26.006-13.977-46.313-35.658-66.119-57.059a8.981,8.981,0,0,0-3.383-2.961,7.3,7.3,0,0,1-1.962.232,2.3,2.3,0,0,1-1.581-.585,2.506,2.506,0,0,0-.368,2.125,144.773,144.773,0,0,0,9.885,14.462c8.165,9.343,16.824,18.3,25.582,27.128,4.175,3.767,8.452,7.405,12.769,10.936a74.244,74.244,0,0,0,5.714,49.434c16.481,34.5,39.084,66.055,51.493,102.5,8.32,19.414,7.923,40.783,5.81,61.375-1.183,10.669-2.8,21.267-4.761,31.8a21.278,21.278,0,0,1-.213,3.052c-7.17,34.777-17.014,69.008-28.218,102.69-.685,1.013-1.089,3.087-1.753,4.7l-.275.842c-18.938,52.737-39.08,105.862-70.05,152.888-8.546,11.361-17.944,25.871-33.008,28.189A50.588,50.588,0,0,1,335.226,1159.668Zm-119.134-583.4c-10.658,4.526-23.171,4.708-34.027,9.382-3.764,1.166-11.592,5.6-8.294,10.094,25.867-8.946,53.879-10.7,79.282-21.218q.07-.25.133-.5c6.779-2.883,13.395-6.164,20.043-9.3a19.779,19.779,0,0,0,4.018-3.889q-.218-.231-.431-.467c-11.005,2.033-20.995,5.2-24.546,7.013,1.725-4.4,3.446-19.083,2.8-33.575-.471-10.549-8.69-20.992-8.447-28.442q.006-.2.029-.391a14.472,14.472,0,0,1-.56-2.86c-.766-1.033-1.07-3.073.207-3.6.015-.072.03-.143.047-.215,1.152-16.165,5.143-31.961,5.969-48.148-.3-4.049.624-8.778.476-13.1a31.5,31.5,0,0,0-1.141-5.661q-.1-.228-.214-.45a9.259,9.259,0,0,0-1.52,2.875c-1.733,7.825-.462,16.751-2.288,24.712-2.5,8.329-4.851,16.7-7.121,25.1,2.058,1.061-3.266,18.3-8.157,31.287C227.12,535.416,221.975,555.951,216.092,576.266Zm291.559,16.91c2.645,1.279,11.985,3.314,9.448-2.448-11.726-9.878-28.438-9.6-42.7-13.315-5.52-21.91-10.746-43.967-16.462-65.893-1.735-6.064-3.533-12.365-5.051-18.8-2.722-9.8-5.586-19.557-8.667-29.249-3.919-10.473-.019-22.509-4.05-32.6l-.142-.025c-3.2,5.035-.915,12.835-1.34,18.779-.051,15.606,6.047,32.416,4.039,47.954a11.006,11.006,0,0,1,1.761-.314c.278,0,.556,0,.833.012,1.658-.224,1.782,1.811.9,2.74a76.493,76.493,0,0,0-7.373,13.26,25.573,25.573,0,0,1-3.218,4.415c-2.365,11.787.153,24.372-.606,36.377-.777,2.622,1.829,10.864-2.8,10.07a5.306,5.306,0,0,1-.645.894c-2.082,2.306-5.293,2.767-9.191,2.2.242.159.469.322.68.492.527.3,1.059.6,1.59.892,4.969,2.047,9.87,4.187,14.606,6.687C461.251,583.654,485.185,586.232,507.65,593.177Zm-295.928,445.8c1.532-6.585,15.349-16.18,21.1-19.759a7.114,7.114,0,0,1,6-.68c2.363.566,4.019,1.133,5.059-3.8,1.764-8.376-29.075-62.22-40.157-67.751-25.657-19.046-57.853-24.961-87.194-36.094C86.646,900.881,57.9,884.063,39.645,857.729c-.53-1.05-4.332-5.88-1.1-5.018C53.513,862.444,70.5,868.579,87.9,872.333c20.057,3.871,41.393,7.379,61.443,1.738,9.141-2.342,13.69-12.812,10.593-21.409-3.944-13.121-14.977-22.7-25.68-30.55-41.739-26.769-83.822-56.555-110.489-99.358C9.474,698.195,3.256,669.685.837,641.619c-3.054-39.77,1.985-80.8,19.346-117.024,5.326-10.13,10.588-20.99,18.831-28.985,1.485,2.459,1.481,6.725,2.786,9.647,5.876,23.081,19.837,44.542,40.808,56.5,19.99,12.674,44.5,13.3,65.538,23.39,3.817,2.7,10.666,2.87,12.347,7.735-1.55,9.357-4.73,18.579-4.231,28.247-1.13,13.506,5.263,25.88,12.257,36.949,3.134,3.57,5.532,11.284,11.407,10.1,4.14-.387,10.291-5.533,10.387,1.432,9.212,20.854,25.025,38.066,41.58,53.415A661.518,661.518,0,0,0,202.383,791.1c.326,25.726-1.072,51.626,2.559,77.185,7.918,44.866,25.837,87.423,40.227,130.5.578.927,16.826,44.734,14.321,41.873-1.057-1.767-14.45-7.394-26.549-7.081-9.218.238-17.863,8.31-20.581,8.31C211.5,1041.881,211.234,1041.079,211.722,1038.974ZM122.272,893.5c16.506,10.623,35.906,15.549,53.777,23.384,13.156,4.966,25.052,12.5,36.067,21.121,2.8,2.686,5.03-.583,3.932-3.412-5-21.024-12.413-41.431-19.289-61.906-6.73-22.822-22.523-41.5-40.456-56.545-16.347-13.732-33.183-26.941-50.207-39.8-2.915.762-1.181,6.142-.651,8.1,6.476,14.747,20.611,24.07,32.046,34.719,15.085,13.8,31.878,28.9,36.165,49.789,2.46,9.187-3.327,18.531-11.941,21.769C149.326,893.3,136.2,892.413,124,889.229a3.178,3.178,0,0,0-1.2-.256C120.436,888.973,119.655,892.286,122.272,893.5ZM32.621,506.312c-7.339,14.118-10,30.179-13.245,45.627-5.383,31.578-2.14,64.394,7.314,94.906,10.565,36.238,27.932,71.076,54.62,98.17,22.08,22,45.4,43.257,72.045,59.623,1.715,1.987,5.661.136,3.175-2.12-12.5-11.552-26.566-21.52-37.551-34.694-28.3-31.25-45.6-74.136-39.867-116.6,1.881-20.8,15.725-39.281,13.117-60.635-.264-14.171-12.281-23.583-23.215-30.5-14.943-9.078-27.112-23.445-30.628-40.877-1.686-4.378.173-10.973-3.865-14.055h0q-.063-.005-.127-.005A2.386,2.386,0,0,0,32.621,506.312Zm74.507,84.6c-4.869,17-6.55,34.794-8.011,52.37-.768,19.241-2.7,39.723,6.505,57.447,15.053,31.262,40.069,56.263,65.07,79.733,2.746,1.912,6.646,6.487,10.116,4.84-3.3-6.921-9.334-12.556-14.034-18.673C148.6,746.168,134.5,720.311,134.9,692.285c-1.6-29.455,16.144-56.8,11.443-86.339-1.62-13.607-16.02-20.829-28.227-22.4a11.089,11.089,0,0,0-1.19-.065A10.025,10.025,0,0,0,107.128,590.911Zm324.21,449.81c11.5-31.844,38.837-106.181,46.575-139.2,7.228-31.879,13.422-64.638,10.844-97.46-2.387-29.676-18.56-55.49-30.31-82.116-.757-1.263-.143-1.246.69-1.228.66.013,1.457.027,1.823-.592,13.439-10.263,23.751-24.1,33.028-38.1,3.534-4.943,5.606-10.72,8.274-16.06,3.879-.154,7.868,2.17,11.73,3.011,8.479-9.211,15.924-19.944,18.592-32.372,3.629-14.189.819-28.828-2.536-42.754-1.671-3.953,4.044-4.089,6.2-5.652a88.7,88.7,0,0,1,25.993-10.38c20.932-4.639,41.925-11.858,58.51-25.915A80.772,80.772,0,0,0,649.719,502.8c.86-2.06-.076-5.878,2.2-6.982.539-.081.974.33,1.352.649,8.855,10.636,14.661,23.5,20.05,36.153,10.811,27.626,17.022,57.253,16.844,86.976.414,16.307-.4,32.674-3.948,48.641a171.872,171.872,0,0,1-22.947,60.547c-17.826,28.144-43.592,50.239-70.54,69.349-16.345,12.047-34.586,21.637-49.495,35.551-7.576,7.635-15.79,18.082-12.911,29.517,2.741,9.742,13.67,12.94,22.666,13.5,26.429,1.706,53.044-3.7,77.635-13.219,9.105-3.326,17.207-8.694,25.425-13.661-1.453,4.027-4.939,7.626-7.438,11.256-20,26.357-50.05,43.209-81.317,52.6-22.459,7.676-45.684,13.62-67.023,24.2-21.678,11.962-37.2,38.816-48.749,59.91,0,0-5.229,10.839-6.533,16.939-2.595,12.137,9.577-4.653,30.329,21.6,4.743,6-7.952-1.685-18.236-2.731-5.03-.512-11.516,1.507-16.727,3.527-4.654,1.8-8.289,3.608-8.956,3.608A.211.211,0,0,1,431.338,1040.721Zm151.99-263.848c-19.154,16.979-41.013,30.742-59.409,48.6-17.542,16.639-27.388,39.315-34.675,61.942-4.755,15.715-10.722,31.1-14.573,47.065-.939,2.2.671,5.353,3.28,3.745,7.525-4.762,14.125-11,22.126-15.1,14-7.318,29.287-11.794,43.831-17.9,8.586-3.919,18.489-6.343,25.258-13.258,2.174-1.757-.068-3.488-2.092-2.578-10.541,2.824-21.774,4.966-32.606,2.415-9.281-2.19-19.578-9.483-18.652-20.135,1.575-13.849,11.164-25.032,19.93-35.205C551.3,818.4,573,805.881,585.32,785.048c1.273-2.463,4.149-7.751.148-9h-.076A3.889,3.889,0,0,0,583.328,776.874ZM654.609,504.4c-1.481,3.737-.141,8.24-1.009,12.227-3.182,17.909-16,32.672-30.514,42.885-10.931,6.953-22.982,15.892-24.6,29.811-2.606,14.3,4.154,27.724,8.708,40.835,12.659,36.845,5.028,78.51-15.573,110.984-13.159,22.117-31.967,40.147-51.716,56.354-1.8,2.149-5.88,3.892-5.647,7.029,2.021,1.863,5.034-1.4,7.132-1.9,17.253-10.177,31.889-24.137,46.631-37.554,17.539-17,35.619-34.03,48.69-54.856a263.567,263.567,0,0,0,36.909-117.831c1.731-23.267-2.622-46.414-8.851-68.734-2.26-6.708-3.262-15.294-9.768-19.3a1.123,1.123,0,0,0-.123-.007A.641.641,0,0,0,654.609,504.4Zm-94.74,82.529c-7.661,2.425-13.045,9.16-14.978,16.8-5.2,18.524,2.55,37.007,6.673,54.885,5.818,20.109,6.8,41.945.222,62-7.675,23.929-24.836,42.957-40.8,61.722-1.784,1-1.517,4.213.87,3.243,9.473-4.4,16.5-12.626,23.956-19.714,18.888-19.932,37.633-40.841,49.531-65.849,8.322-17.2,8.665-36.829,6.557-55.452-1.842-16.716-2.478-33.75-6.977-50.029-1.783-4.495-3.229-11.616-9.04-12.145C570.312,582.668,565.048,585.034,559.868,586.925ZM480.945,927.851c8.771-23.378,14.184-48.072,25.722-70.356,10.13-20.74,27.914-36.09,45.84-49.962,10.127-7.861,19.667-16.559,29.842-24.286.1-.036.246-.028.259.1-4.085,8.38-11.082,15.161-17.963,21.377-18.833,16.344-39.569,32.406-50.374,55.554-4.349,9.028-6.27,21.613,2.105,29,8.741,8.483,21.7,7.5,32.871,8.842-9.73,4.553-20.476,7.738-30.558,11.849-12.609,4.612-24.965,10.225-35.477,18.721a4.788,4.788,0,0,1-2.44,1.508C480.2,930.2,480.093,929.534,480.945,927.851Zm-273.3.884c-18.491-14.778-41.857-20.573-63.5-29.043-2.361-.875.612-1.968,1.728-1.84,10.968-.871,24.158-1.944,30.821-12.014,6.76-10.531,1.941-23.647-3.823-33.442-14.027-24.2-39.262-38.239-57.454-58.771-2.6-3.2-6.156-6.623-7.221-10.5a2.823,2.823,0,0,1,1.206.574c13.243,11.047,26.651,21.916,39.957,32.9,17.928,14.571,33.487,32.79,41.551,54.7,6.934,18.7,12.67,37.836,18.844,56.8.636,1.128.272,1.585-.352,1.585A2.449,2.449,0,0,1,207.649,928.735ZM108.205,783.129Zm0,0h0Zm3.526-15.459C87.649,748.487,67.965,724.1,52.957,697.285c-17.869-32.151-30.044-68.119-31.631-105.05-.926-20,2.03-39.9,6.61-59.32,1.811-6.3,2.531-13.356,6.111-18.881.825.139.656,1.76.913,2.361.352,13.16,6.949,25.344,16.074,34.547,9.02,10.288,22.334,15.593,31.007,26.186,8.931,10.509,6.519,25.52,2.014,37.386-6.343,15.932-11.866,32.5-12.162,49.828-1.507,37.863,15.322,74.485,40.255,102.284,1.1,1.089,1.572,2.1,1.143,2.1C113.056,768.73,112.551,768.427,111.731,767.669Zm466.792-.4c8.819-11.125,18.458-21.951,24.686-34.876,15.451-28.768,19.33-63.261,11.308-94.851-3.1-14.34-11.718-27.4-11.936-42.321.028-11.273,6.879-21.3,16.078-27.352C633,558.941,646.751,547.233,652.839,531c2.606-5.7,2.377-12.154,3.919-18.038.859.372.985,1.71,1.391,2.463,8.978,30.76,13.91,63.281,9.526,95.26-7.312,60.014-39.916,115.3-85.352,154.536-.763.313-2.3,2.448-3.25,2.448A.6.6,0,0,1,578.524,767.27ZM155.2,761.131c-16.268-17.1-31.677-35.418-43.139-56.156-7.33-12.722-10.426-27.442-9.933-42.047a438.1,438.1,0,0,1,6.511-64.544c.949-4.767,2.635-11.953,8.882-11.42a26.28,26.28,0,0,1,7.357,1.044c9.217,1.892,16.807,9.5,17.99,18.94,2.023,16.076-3.151,31.934-7.357,47.256-4.78,15.2-5.462,31.223-4.78,47.029,1.559,21.424,12.3,40.837,24.367,58.119.632.556,1.559,2.384,1.04,2.384C155.977,761.737,155.682,761.565,155.2,761.131Zm393.868-23.557c7.409-13.8,12.075-29.228,11.641-45,1.294-20.516-6.41-39.946-10.932-59.608-2.812-10.037-4.246-21.038.116-30.884,2.87-9.656,13.122-14.466,22.434-15.419a6.811,6.811,0,0,1,6.88,3.3c4.533,8.005,4.325,17.673,5.834,26.533,1.937,21.366,6.594,43.094,2.192,64.458-5.467,27.485-24.2,49.625-42.377,69.935-2.283,2.058-4.342,5.58-7.124,6.529C541.124,750.686,545.921,744.534,549.068,737.574ZM457.616,718.39a217.943,217.943,0,0,0,14.366-53.868c.9-2.577-.054-6.816,2.5-8.373,7.064,1.191,13.7,4.615,20.318,7.316,3.05.331,2.562,3.262,1.407,5.179-9.4,18.743-22.918,35.053-36.754,50.666-.255.629-.645.882-1.014.882A1.176,1.176,0,0,1,457.616,718.39Zm-225.244-.084c-14.854-11.983-25.233-28.449-35.052-44.57-1.277-2.977-4.248-6.052-3.962-9.317a160.8,160.8,0,0,1,24.063-8.6l.229-.008.091.009c.929,5.549,1.429,11.663,2.421,17.386,2.755,15.084,6.512,30.247,13.356,44.038.782.97.583,1.777-.011,1.777A1.67,1.67,0,0,1,232.372,718.306ZM448.5,706.493c-11.156-19.389-24.646-39.257-25.831-62.283.607-4.01-.617-9.692,2.463-12.705,11.854,6.142,23.687,12.956,36.068,18.3,2.356,2.05,8.088,1.859,8.329,5.54-1.907,20.37-7.442,40.437-14.962,59.4C452.005,713.275,450.458,709.035,448.5,706.493Zm-216.964-4.184c-4.31-15.486-9.23-31.19-10.053-47.3,11.876-8.026,25.909-12.877,38.189-20.473l6.46-3.981c4.677,12.091.715,25.277-3.428,36.922a197.111,197.111,0,0,1-25.978,46.431C233.663,711.566,233.118,706.007,231.538,702.309ZM251.211,568.7c-.673-.182-.234-.661,1.058-1.321-.337.859-.673,1.327-.993,1.327A.4.4,0,0,1,251.211,568.7ZM498.978,368.368c-.625-1.374-4.985-4.142-3.221-5.358,6.836,1,13.165,4.64,19.076,8.087,4.167,1.075.807,9.53-1.775,13.288C507.495,380.12,504.311,373.1,498.978,368.368Zm2.965-8.121c-11.087-4.684-22.813-4.234-34.555-3.784-8.265.316-16.537.634-24.6-.84-10.336-2.1-21.741-11.151-18.425-22.885,6.925-14.839,17.183-28.7,19.037-45.459,2.773-16.249.249-34.329-10.375-46.573-2.317-2.67-20.108-23.837-35.244-31.8-14-7.366-25.523-23.106-24.8-40.187,2.273-15.491,4.048-31.369,1.066-46.921-2.845-13.208-9.535-29.484-24.653-31.594-5.719-.212-14.878.488-16.387,7.3,1.831,2.79,5.375-1.708,7.311-2.636,10.188-2.555,20.6,4.908,24.073,14.394,7.847,19.819,8.427,42.916.768,62.884-3.326,10.771-14.8,14.4-24.639,16.546-17.657,4.568-36,2.413-53.555-1.491-22.659-4.868-46.18-3.616-68.583,1.942-2.105,1.462-3.771-.1-1.226-1.544,20.43-14.544,45.5-20.431,69.665-25.579,24.035-3.491,48.9-12.374,64.41-32.058,6.844-7.844,9.462-21.6,1.8-29.741-.961-2.136-5.082-2.471-2.724.663,10.7,12.853-.843,29.178-11.146,35.991-1.809-.906,3.874-7.523,4.082-9.113,3.24-8.576,6.849-20.808-1.508-27.594-1.171-2.057-4.967-2.318-3.279.831,3.321,5.424,6.449,11.767,4.168,18.275-5.552,16.748-21.283,28.4-37.387,34.17-14.883,4.183-30.535,5.13-45.292,9.986-28.776,8.069-57.425,24.136-71.811,51.375-7.258,13.44.545,27.967,5.393,40.688,4.751,10.856,7.111,23.967.271,34.538-8.405,15.2-25.2,26.753-26.122,45.333-1.34,6.65,5.91,10.258,11.537,9.958-3.873,2.443-7.94,4.742-12.487,5.632-8.795,3.094-17.59-3.5-20.518-11.6-3.173-14.125,6.193-27.365,14.686-37.735,14.777-14.569,17.672-36.861,15.336-56.574-3.372-14.615-8.849-30.179-2.993-44.965,6.834-16.183,20.044-29.226,34.66-38.615,27.645-14.851,60.3-13.311,89.582-23.214,14.129-4.118,29.246-13.3,31.4-29.179.485-1.561,1.5-7.185-1.622-4.658-3.318,6.449-5.625,13.827-11.616,18.542a65.5,65.5,0,0,1-32.306,14.873c3.38-5.234,9.551-9.247,13.98-13.989.863-1.039,5.773-4.7,2.108-4.674-9.665,4.8-16.576,13.751-24.8,20.565-6.143.575-12.55,2.592-18.616,2,1.268-5.926,6.7-10.34,10.066-15.281,2.741-4.487,8.609-8.316,8.729-13.783-.2.342,0,.961-.251,1.316a3.091,3.091,0,0,0-1.714.792,84.356,84.356,0,0,0-10.29,11.08,112.071,112.071,0,0,0-8.155,11.82c-1.535,2.208-2.97,4.762-5.477,5.991a25.15,25.15,0,0,1-7.223,1.4c-.773.014-2.045.2-2.273-.788.054-1.513,1.056-2.788,1.743-4.081,3.9-6.226,7.989-12.42,13.179-17.662a37.081,37.081,0,0,1,15.57-9.517c9.646-2.983,19.838-3.079,29.83-3.65h.089l.106,0c.29-.068.558.12.1.141-8.262.958-16.745.563-24.8,2.924a.538.538,0,0,0-.4.183c8.955-2.8,18.824-1.976,28.114-3.393,2.574-.94,7.725.429,9-2.2-11.023-2.663-22.8-.662-34.031-2.369,1.9-3.852,4.572-9.1,8.672-10.969,5.81,4.347,12.219,8.122,19.578,9.212,4.14.315,9.014,3.3,12.913,1.813-.212-5.195-8.353-5.065-9.834-9.99-4.151-4.058-2.105-20.731,6.011-32.459,2.5-3.608,6.251-9.673,9.707-11.034-2.842,13.941-5.667,32.846,1.977,45.488,2.074-1.2.028-5.5.039-7.541-5.732-17.834-.966-37.761,10.22-52.44,8.727-13.141,25.538-15.392,40.034-15.653a83.639,83.639,0,0,1,22.483,2.394c6.624,2.381,14.466,4.37,19.5,9.216-6.664,2.624-14.029,3.856-20.416,7.454C377.573,50.8,356.665,63.22,339.781,80.115c-1.39.759-3.562,5.172-.382,3.079,20.615-16.233,42.216-31.784,66.694-41.7,6.7-2.057,16.026-7.339,21.766-.848C440.94,58.617,449.5,79.5,462.656,97.474c9.671,13.612,23.394,29,41.746,27.312,17.356-1.931,26.783-18.47,37.748-29.944,5.041-4.856,12.342-13.1,19.887-8.29,7.73,1.791,12.9,16.848,19.779,33.516,4.829,11.712,17.023,20.325,26.219,23.4-5.716.365-19.366-5.17-24.846-7.211A37.874,37.874,0,0,1,559,102.953c-.976-2.389.135-7.29-2.144-8.553-2.769,8.46-.778,18.131,2.028,26.413,6.134,14.746,22.483,20.183,36.405,24.823,12.083,3.578,29.948,9.046,32.775,21.888,1.378,4.447-4.2-2.063-5.188-4.354-10.267-11.378-26.654-11.582-40.784-10.582-15.289,1.6-31.934-4.969-35.981-22.646-1.266-8.667,5.565-16.508,5.476-25.055-2.471-.342-3.551,4.591-5,6.27-4.3,13.14-13.6,20.436-21.529,29.025,6.245,1.946,11.085-5.525,16.385-7.943,3.411,5.352,7.383,11.449,11.434,16.7-5.366,1.031-11.069-2.613-15.727-5.314-1.116-1.3-6.526-3.527-4.81.141,9.661,12.429,27.29,9,40.225,15.34,14.965,7.9,25.1,22.968,41.368,28.84,2.422,1.167,9.025,3.757,5.353,7.078-9.386,2.254-18.9-2.286-27.931-4.565-2.036-.475-8.559-2.893-7.4,1.414,6.025,4.882,14.2,6.791,21.184,10.2,17.078,8.221,40.725,6.442,52.367-9.939,4.253-4.285,4.136-11.692,8.875-15.262,4.758,1.3,6.069,7.648,7.909,11.7,4.4,15.644,3.34,35.568-9.622,46.974-12.586,10.241-30.81,5.3-42.821-3.354-17.306-13.55-34.51-28.9-56.766-34.058-14.149-3.277-31,.4-37.448.692,12.689-7.474,34.016-15.853,48.843-17.478,2.91-1.049,8.107-.031,9.674-2.912-5.689-2.7-12.972-1.526-19.1-.5-17.895,5.8-34.949,14.117-51.709,22.606-9.124,3.235-20.741,1.65-28.03-5.049-11.939-12.617-12.476-31.641-22.279-45.589-2.554-2.5-5.368-8.449-9.562-7.056,1.77,5.04,6.774,8.819,8.528,14.131,7.267,15.2,10.138,33.914,23.947,44.958,13.891,8.567,30.606,2.536,45.625,1.542,13.335-.116,27.324-2.4,40.2,1.956,11.812,6.592,18.007,19.552,27.872,28.449,11.078,13.322,28.458,17.383,42.89,25.711,10.231,6.719,22.2,16.024,22.63,29.355.49,4.1-4.163,3.194-6.143,1.333-12.39-8.467-25.961-15.3-40.808-18.123-13.837-1.823-23.407-12.924-35.951-17.75-12.227-1.778-21.632-10.5-32.777-15.145-3.227-2.433-8.9-2.423-10.9-5.946,4.651-.97,9.955,1.546,14.757,2.178,12.115,2.561,23.359,7.933,34.815,12.266,3.493-1.271-1.977-5.095-3.576-6.026-21.121-12.517-46.6-12.457-70.3-15.05-15.018-1.049-29.588-9.264-36.393-23-12.815-26.194-24.728-52.906-39.269-78.232-.311-1.97-4.21-4.44-2.972-.637,7.637,19.6,18.165,38,26.627,57.278,10.767,21.488,13.722,45.552,20.954,68.222a58.1,58.1,0,0,0,30.739,37.257c-6.547,1.1-13.042-1.184-18.938-3.814-17.372-9.422-26.868-28.462-32.909-46.5-8.436-28.879-8.383-60.174-22.19-87.457-9.672-21.69-31.223-37.872-55.18-39.1-2.664-.418-2.071,1.742.164,1.92,14.008,3.547,28.357,8.766,38.04,20.087,18.764,21.555,24.076,50.816,28.943,78.1,2.677,18.476,7.647,36.793,17.573,52.782,3.7,5.365,4.04,11.777,2.415,17.922-3.9,15.557-4.875,34.155,6.47,46.972-5.255-.095-10.781-.534-15.624-2.667-9.872-12.166-10.369-29.134-7.357-43.9,3.883-16.12,4.882-34.194-4.106-48.893-4.893-10.762-16.4-17.981-18.007-30.2-3.8-24.824-7.178-51.924-24.393-71.519-1.475-.983-3.789-5.386-5.517-3.863,5.9,11.56,14.873,21.909,18.218,34.818,3.893,13.964,7.033,28.511,8.031,42.87-8.437-5.806-14.676-14.608-21.464-22.271-12.837-14.043-16.432-33.15-20.942-50.96-1.013-1.661-.951-6.981-3.457-6.446,1.365,16.977,4.607,34.512,13.006,49.6,14.259,23.118,37.281,39.43,51.393,62.664,9.2,16.77,3.628,36.531,2.079,54.433-1.4,10.119,1.576,21.243,4.82,30.794-2.747-.122-6.461-5.3-9.7-5.683-1.9.987,1.532,4.5,2.3,5.711,10.652,8.209,24.966,8.569,37.526,12.039,19.277,3.4,39.018,15.068,44.829,34.806.528,3.388,2.981,8.323.922,11.182C523.924,372.341,513.957,364.3,501.943,360.247Zm10.991-202.621c-7.33,7.218-17.935,8.28-26.462,13.367-4.783,2.368-2.324,8.307,1.957,9.51,12.732,5.1,28.493,6.826,40.833-.293,10.471-6.486,7.714-22.133-1.254-28.667-14.454-9.807-32.707-10.793-48.547-17.528-16.162-4.876-26.578-18.9-38.376-29.992C427.53,91.23,413.723,74.463,393.633,73.506c-12.74.105-25.938,4.809-36.586,11.61.665,1.991,5.268-.491,7.043-.589,13.389-4.564,29.146-9.362,42.5-2.149,18.311,10.557,31.088,28.123,47.355,41.3,17.76,16.636,43.162,18.223,64.757,27.071,8.107,2.8,16.691,11.533,13.2,20.65-6.808,9.787-20.842,10.745-31.668,9.021-3.544-1.288-10.013-1.456-11.159-5.683,8.835-5.421,21.423-6.452,27.673-15.761,1.282-1.812.359-2.6-.953-2.6A3.909,3.909,0,0,0,512.933,157.627Zm44.458,215.182c-1.212-13.36-12.074-22.078-20.14-31.546-6.509-7.358-3.094-20.448,5.51-24.31,5.064,1.742,1.845,9.053,4.3,12.821,2.241,4.668,7.064-.639,7.763-3.712a78.517,78.517,0,0,0-2.5-47.24c-6.562-18.5-21.474-32.085-36.507-43.9-3.395-1.3-1.465-3.907,1.217-3.534,4.79.205,8.227,4.561,12.988,5.436,21.77,6.383,43.1,17.721,56.044,36.968,10.343,13.793,12.428,34.645.676,48.254-8.586,11.549-23.39,16.381-37.37,15.007-1.01.328-2.417-.123-3.813-.574-2.281-.736-4.531-1.473-4.972,1.187,4.52,4.6,12.253,3.289,18.247,3.8,5.126-.249,4.822,29.31,1.976,34.865-.523.842-.99,1.178-1.4,1.178C558.124,377.514,557.417,374.188,557.392,372.809ZM430.786,362.547c-3.449-1.081-7.079-1.874-10.259-3.619-6.129-4.208-12.794-8.383-16.367-15.167-4.069-7.356-5.057-15.874-6.486-24.027-1.428-7.8-2.494-15.9-6.242-23.007-.221-.807-1.717-1.724-.573-2.449a107.81,107.81,0,0,0,8.09-9.353l.024-.008.021,0a93.216,93.216,0,0,0,6.4,9.409c5.374,7.225,7.295,16.177,9.515,24.717,2.616,9.649,4.381,19.595,8.363,28.814,3.21,5.264,8.954,8.352,14.524,10.559,6.018,2.526,12.683,2.224,18.9,3.925.876.164,2.51,1.06,1.514,2.062a12.784,12.784,0,0,1-5.8,2.06C445.215,365.112,437.89,364.367,430.786,362.547Zm-33.028-13.954A54.663,54.663,0,0,1,385.6,336.1a21.819,21.819,0,0,1-3.862-12.923,150.843,150.843,0,0,1,.931-16.171c.234-2.064.243-4.173.679-6.2,1.62-1.545,3.328-3.023,5.093-4.4a27.968,27.968,0,0,1,1.871,4.736c2.6,8.644,3.829,17.616,5.3,26.5,1.185,7.192,2.956,14.555,7.23,20.6a38.281,38.281,0,0,0,6.67,6.89c.133.187.671.425.549.661A71.772,71.772,0,0,1,397.758,348.593Zm-100.82-15.283c-.79-6.828-5.032-12.683-10.045-17.145-7.6-6.665-16.872-11.073-26.307-14.489-6.438-2.221-12.917-4.726-18.328-8.968a34.234,34.234,0,0,1-13.4-24.269,1.672,1.672,0,0,1,1.849-1.985,13.032,13.032,0,0,1,2.931.427,198.853,198.853,0,0,1,21.812,7.281c13.414,5.315,26.088,13.119,35.608,24.091,5.8,6.577,10.2,14.222,14.174,22,.722,1.542,1.831,2.891,2.51,4.434.163,3.817-.27,7.87-2.276,11.207-2.142,3.194-5.192,5.647-8.113,8.1-.748.492-1.476,1.346-2.346,1.488A24.284,24.284,0,0,0,296.938,333.311Zm-5.431,9.081a53,53,0,0,0-9.132-9.152c-11.2-8.615-24.275-14.336-37.407-19.317-6.677-2.559-13.577-4.9-19.493-9.021-1.427-1.129-3.347-2.651-2.924-4.71,1.374-5.88,2.489-11.819,3.863-17.7.347-.959.382-2.339,1.345-2.894.418.012.66.457.9.741,2.454,3.949,4.423,8.221,7.371,11.853,4.33,5.711,10.96,9.038,17.572,11.378,7.122,2.463,14.339,4.777,21,8.357,6.88,3.6,13.485,8.317,17.766,14.916,2.99,4.644,3.835,10.935,1.144,15.9a.689.689,0,0,1-.632.436A2.359,2.359,0,0,1,291.507,342.392Zm209.125-8.651c-4.012-1.627-8.477-2.17-12.195-4.469-6.279-4.41-9.632-11.762-11.758-18.909-2.988-10.733-3.49-22.669,1.04-33.055.561-.843.741-2.235,1.668-2.716a1.615,1.615,0,0,1,.824.286c2.721,2.057,4.562,5.1,6.046,8.125,1.937,5.056,3.364,10.613,7.445,14.462,6.92,6.846,15.854,11.048,23.907,16.34a17.059,17.059,0,0,1-1.963,2.406,26.065,26.065,0,0,0-7.687,15.072c-.315,1.265.1,2.939-.838,3.947a4.087,4.087,0,0,1-1.022.126C504.23,335.357,502.432,334.184,500.632,333.741Zm101.973.627c-2.028-4.284-.279-9.832-1-14.538-2.112-12.017-2.681-18.3-2.778-32.757-1.543-9.811-7.946-17.9-12.433-26.221,8.218,4.352,21.318,13.412,22.83,16.722,6.414,14.051,5.625,30.245,2.449,44.862-1.393,4.3-2.9,11.968-8.39,11.968A6.446,6.446,0,0,1,602.6,334.368Zm-384.851-5.444a24.316,24.316,0,0,1-12.236-7.493c-4.038-4.655-5.568-10.966-5.421-17.019-.149-8.394,1.45-16.671,2.162-25,.082-4.1.317-8.242-.4-12.3-1.908-11.353-8.586-21.047-12.182-31.838-.086-.562-.617-1.292-.392-1.8h0c.595.283.812,1.191,1.2,1.7a116.355,116.355,0,0,0,11.411,17c6.263,8.442,12.536,17.26,15.456,27.493a25.623,25.623,0,0,1,.32,12.083,53.16,53.16,0,0,0-2.088,15.367,31.194,31.194,0,0,0,3.6,15.474c.745,1.826,1.8,3.659,1.9,5.655a1.919,1.919,0,0,1-1.822.827A11.8,11.8,0,0,1,217.754,328.924Zm203.213-.795c-1.342-3.954-2.209-8.115-3.29-12.167-2.362-8.812-4.426-18.242-10.614-25.291-2.289-2.471-4.652-5.077-7.67-6.648,2.072-3.208,4.132-6.609,4.819-10.418,1.213-2.089,3.315-3.519,5.085-5.124.938-.415,1.766-2.357,2.327-.6,2.873,3.687,6.665,6.54,9.778,10.02,5.393,5.3,8.269,12.616,9.407,19.987a110.52,110.52,0,0,1,1.528,11.076,194.555,194.555,0,0,1-9.909,17.524c-.464.4-.716,1.649-1.372,1.649A.6.6,0,0,1,420.967,328.129ZM549.638,327.1c-.874-4.508-.311-9.2-1.359-13.7-2.39-10.511-9.479-20.492-19.837-24.3-8.877-3.046-17.852-6.8-24.577-13.576C494.588,266.6,490.029,254.133,486.68,242c-2.273-8.7-4.295-17.492-5.693-26.379.066-.842-.589-2.252.281-2.792a2.931,2.931,0,0,1,1.506.753c4.37,3.708,8.418,7.789,12.893,11.38,8.806,7.574,18.491,14.068,27.09,21.884,12.911,11.889,24.354,26.134,29.892,43,3.919,11.867,4.153,25.448-1.666,36.747-.144.353-.633,1.034-.987,1.034C549.833,327.629,549.7,327.484,549.638,327.1Zm-22.753-10.875c-6.968-7.453-16.42-11.67-25.045-16.81a26.637,26.637,0,0,1-10.768-12.235c-.217-.835-1.1-2.222-.283-2.9,4.035,1.363,7.862,3.335,11.931,4.639,7.841,2.911,16.347,1.493,24.413,3.11,4.414.736,7.9,3.883,10.331,7.476,2.087,3.177,4.806,6.285,5.335,10.174.427,2.441-2.114,3.616-3.736,4.8-2.563,1.819-4.468,4.393-6.838,6.4C530.074,319.883,528.629,317.788,526.885,316.222Zm-219.955-.055c-5-11.667-13.527-21.459-23.144-29.585-12-9.824-25.955-17.51-41.064-21.255a94.635,94.635,0,0,0-15.631-2.265c-1.6-5.946-3.1-11.932-5.182-17.737-.711-1.4-.435-2.972-.245-4.467,1.128-5.68,4.834-10.463,8.92-14.395,1.52-1.28,2.9-2.9,4.775-3.64a.431.431,0,0,1,.418.177c.328,1.439-.367,2.915-.6,4.335a35.411,35.411,0,0,0-.742,14.377c.923,5.263,3.4,10.534,7.772,13.783,4.378,2.868,9.546,4.207,14.6,5.33,4.474.888,9.117,1.556,13.663.874a1.4,1.4,0,0,0,.786-.273,1.119,1.119,0,0,1,.883-.247c2.756,2.322,5.6,4.551,8.565,6.609,2.17,1.742,4.587,3.48,5.829,6.047a49.758,49.758,0,0,0,5.255,10.413c4.15,6.4,10.007,11.373,15.658,16.39q.089,3.926.183,7.852c-.007,2.932.3,5.89.076,8.808a.329.329,0,0,1-.059.005C307.246,317.3,307.133,316.455,306.93,316.167Zm22.7-8.69c-9.14-5.179-18.455-10.283-26.53-17.066a42.75,42.75,0,0,1-13.14-20.074c-5.389-16.49-8.264-33.656-12.588-50.43-.441-2.527-2.512-4.293-4.628-5.386a3.483,3.483,0,0,1,2.292-.453,5.233,5.233,0,0,0,1.827-.175,15.625,15.625,0,0,0,7.986-6.239c.428-.547.4-.965.148-1.279.7,1.344-4.587,6.445-8.188,7.427-1.073.293-14.1-.284-17.573,6.3-7.245,12.165-.773,27.2,7.806,36.872-.313.005-.626.008-.939.008a37.519,37.519,0,0,1-18.408-4.335c-10.842-5.784-11.648-21.252-6.016-30.871,6.359-5.245,15.259-6.112,23-8.272l13.521-5.2c3.9-2.011,5.871-2.5,6.564-2.155a3.52,3.52,0,0,0-1.358-.53c2.311-1.875,4.891-3.622,6.813-5.995,2.054-1.877,3.062-4.636,5.035-6.512,7.034.738,14.046,2.137,21.154,2.3,14.224.585,29.425-1.1,41.3-9.626,4.1-2.814,7.087-7.066,11.353-9.6.569-.134.393.72.514,1.032.355,9.841,6.174,18.437,12.748,25.353,1.184,1.3,3.7,3.16.4,2.545-1.111.021-2.238.014-3.374.006-5.546-.034-11.281-.068-16.032,3.134-1.126.316-1.336,1.913-.038,2.1a22.68,22.68,0,0,0,7.4-.6,24.919,24.919,0,0,1,6.8-.671c1.122.047,2.264.041,3.412.034,3.336-.02,6.718-.04,9.789,1.272,7.144,5.195,14.765,9.8,21.326,15.761-2.533,10.921-4.992,21.862-7.873,32.7-2.992,10.6-5.8,22.2-14.213,29.951-7.132,6.1-15.334,10.8-23.364,15.6-5.882,3.107-11.7,7.04-18.451,7.843a18.262,18.262,0,0,1-2.854.221C339.729,312.467,334.445,310.066,329.629,307.477Zm28.506-76.415c.077,1.338,2.053,1.751,3.005,2.425,5.253,2.3,10.761,4.465,16.526,4.882,4.9.454,9.71-.661,14.345-2.146,2.838-1.12,5.618.237,8.372.8,1.884.463,2.485-1.766,1.938-3.169-.568-1.68-.54-4.517-2.638-5-4.65.83-8.962,3.149-13.6,4.161-6.777,2.051-13.672-.215-20.31-1.635a46.277,46.277,0,0,0-5.305-.737A6.068,6.068,0,0,0,358.134,231.062Zm-50.06,7.172c6.376.119,13.279-.045,18.872-3.475,1.776-1.48,4.142-1.333,6.23-1.768.035-1.481-2.075-2.274-3.372-2.4-6.163.424-12.019,2.956-18.221,3.247-6.935.631-13.032-3.452-19.622-4.71a3.06,3.06,0,0,0-.882.076c-2.643.969-2.669,4.6-2.33,6.932.392,2.242,2.921,1.1,4.013.12a10.251,10.251,0,0,1,3.032-.439C299.92,235.82,303.94,237.966,308.074,238.234Zm-17.6-27.248c-1.724,1.446-3.853,2.905-4.9,4.847,3.717-1.066,6.894-3.688,10.579-4.978,5.585-1.385,11.446-1.136,17.17-1.238,4.519-.191,8.957.743,13.442.964,1.515.477,1.709-1.479.716-2.152-3.86-3.046-9.136-3.266-13.855-3.536h-.113C305.563,204.893,297.063,206.227,290.477,210.986ZM144.421,300.378c-.613-.15-1.235-.77-.819-1.416,1.414-2.652,4.332-4.085,7.123-4.838,4.752-.949,9.539-1.725,14.319-2.524,0,.006.009,0,.019,0s.018-.007.02,0a34.265,34.265,0,0,1-5.716,5.1c-2.835,1.854-5.929,3.6-9.368,3.916-.953.046-1.93.146-2.9.146A8.043,8.043,0,0,1,144.421,300.378Zm291.658.206a.323.323,0,0,1-.237-.152c-1.136-3.4-1.566-7.029-2.717-10.444-2.9-9.272-8.668-18.344-17.772-22.5-.849-.5-2.17-.708-2.759-1.392a86.456,86.456,0,0,0,12.412-12.308c1.883-2.13,3.126-4.768,4.989-6.879.24.038.375.321.529.483a68.956,68.956,0,0,1,7.923,17.374,52.617,52.617,0,0,1-1.6,34.487c-.194.256-.411,1.327-.764,1.327ZM220.847,282.173c-.986-3.739-1.586-7.6-3.1-11.18-4.438-11-12.637-19.8-18.935-29.7-3.5-5.538-6.8-11.728-6.632-18.464.221-6.661,3.686-12.705,7.924-17.657,1.482-1.614,2.873-3.454,4.776-4.572.3.221-.256,1.034-.255,1.39-2.5,6.524-1.893,13.855.394,20.344,3.725,10.927,11.3,20.055,14.893,31.036,2.768,8.44,3.107,17.456,2.784,26.264-.146,1.436,0,3.109-.85,4.335C221.118,283.835,221.124,282.728,220.847,282.173Zm-49.991-8.411c-2.034-1.49-2.928-4.078-4.146-6.217-6.4-12.7-11.3-26.52-11.71-40.859a65.884,65.884,0,0,1,5.236-29.929c6.2-14.565,18.179-26.1,32.035-33.451a98.285,98.285,0,0,1,14.942-6.507c.086-.022.218,0,.188.117-2.055,2.047-4.739,3.416-7.042,5.189-10.479,7.363-20.318,16.269-26.46,27.666a57.951,57.951,0,0,0-6.473,35.314c.734,7.324,3.036,14.334,4.977,21.394,2.016,7.99,2.937,16.64.38,24.619-.41.886-.625,2.668-1.841,2.668Zm236.9-10.444c2.2-11.614,3.978-23.344,6.472-34.879l.037-.005.048.005c4.091,3.067,7.307,7.2,10.609,11.09.706,1.507,3.2,2.865,2.609,4.51-3.655,8.564-11.5,14.148-18.537,19.777a1.983,1.983,0,0,1-1.13.724C407.55,264.539,407.435,264.179,407.76,263.318ZM268.729,251.628c-5.067-6.6-9.214-14.842-8.276-23.382a12.822,12.822,0,0,1,9.812-10.88,4.34,4.34,0,0,1,.844.043c3.245,1.589,4.214,5.59,5.08,8.813,2.5,11.411,4.081,23.006,6.514,34.435-.038,1.031.9,2.77.007,3.52A55.477,55.477,0,0,1,268.729,251.628Zm-51.823-14.591c-1.726-2.561-1.021-5.868.354-8.408,2.859-5.4,7.552-9.517,12.23-13.314a126.127,126.127,0,0,1,32.976-18.374c6.789-2.431,13.861-4.511,21.126-4.6a31.564,31.564,0,0,1,6.844.6,40.132,40.132,0,0,1-4.661,5.215c-5.962,4.792-13.192,7.636-20.348,10.134-8.325,2.726-16.974,4.49-25.051,7.961-7.109,2.919-13.907,7.516-17.749,14.34-1.428,2.39-2.048,5.252-3.835,7.417a.756.756,0,0,1-.561.294C217.672,238.3,217.168,237.513,216.906,237.038Zm-6.012-9.786c-1.156-2.407-2.945-4.8-2.659-7.61.464-3.784,2.985-6.918,5.533-9.595,6.363-6.344,14.282-10.888,22.4-14.615,9.077-4,18.812-6.979,28.8-7.152a29.481,29.481,0,0,1,8.034.95c.777.314,1.917.424,2.363,1.185-.7.686-1.913.489-2.831.659-5.6.062-10.988,1.861-16.093,4.023A117.823,117.823,0,0,0,227.7,213.01c-4.648,4.1-9.4,8.55-11.691,14.449-.562,1.014-.881,2.551-2.113,2.944C212.338,230.184,211.662,228.428,210.894,227.252Zm-5.187-14.111a24.7,24.7,0,0,1,2.227-11.317c1.9-4.213,6.23-6.586,10.473-7.844a68.288,68.288,0,0,1,11.444-2.395l.113,0h.108c.941-.159.575.739.042,1.021-4.225,3.537-9,6.369-13.108,10.066a36.214,36.214,0,0,0-7.195,8.378c-1.048,1.337-1.691,3.083-3.074,4.106C205.851,215.111,205.834,213.818,205.708,213.141ZM492.47,118.292c-9.6-3.648-17.1-11.1-23.379-19-.428-.749-1.446-1.462-1.263-2.39,1.09-.35,2.278.31,3.373.481,4.734,1.531,9.824.661,14.414-.945,9.646-3.359,18.5-8.555,27.866-12.58,8.141-3.532,16.643-6.93,25.628-7.209A19.408,19.408,0,0,1,549.839,79.5c.606.366.949,1.128.334,1.66-2.109,2.105-5.02,3.193-7.125,5.324-9.176,8.532-15.4,19.732-24.767,28.087a20.735,20.735,0,0,1-12.435,5.543,25.275,25.275,0,0,1-2.831.158A30.739,30.739,0,0,1,492.47,118.292ZM305.23,97.556a23.408,23.408,0,0,1-9.649-3.349c-4.556-2.619-8.331-7.269-8.654-12.664a20.6,20.6,0,0,1,2.733-11.566c4.237-7.815,11.156-13.792,18.484-18.63,7.8-4.869,15.835-9.733,21.957-16.726,2.643-3.14,5.3-6.711,5.739-10.919a8.765,8.765,0,0,0-1.913-6.872A14.138,14.138,0,0,0,320.621,12c-6.977,1.111-13.042,5.154-18.52,9.4-7.224,5.582-13.107,12.656-20.1,18.5-.343.167-1.1,1.018-1.394.456.393-1.962,1.637-3.651,2.52-5.423,5.215-9,10.693-18.082,18.451-25.147C307.454,4.442,314.9.181,323.007,0h0a24.639,24.639,0,0,1,8.027,1.236c4.251,1.454,8.756,3.574,11.012,7.688,2.039,3.809.868,8.361-.762,12.091-3.381,7.4-8.615,13.747-13.824,19.925A153.405,153.405,0,0,0,312.061,61c-4.035,6.6-7.578,13.792-8.457,21.572a22.562,22.562,0,0,0,2.779,13.889c.64.691-.391,1.1-1.035,1.1C305.308,97.56,305.268,97.559,305.23,97.556Z" transform="translate(0 0)" fill="url(#linear-gradient-51)"/>
      </g>
      <ellipse id="Ellipse_12" data-name="Ellipse 12" cx="157.107" cy="157.107" rx="157.107" ry="157.107" transform="matrix(0.995, -0.105, 0.105, 0.995, 999.915, 1317.434)" fill="url(#radial-gradient)" style="mix-blend-mode: hard-light;isolation: isolate"/>
      <ellipse id="Ellipse_9" data-name="Ellipse 9" cx="1231.013" cy="1231.013" rx="1231.013" ry="1231.013" transform="matrix(0.995, -0.105, 0.105, 0.995, -180.362, 361.664)" opacity="0.76" fill="url(#radial-gradient-2)" style="mix-blend-mode: screen;isolation: isolate"/>
      <ellipse id="Ellipse_11" data-name="Ellipse 11" cx="623.889" cy="1625.284" rx="623.889" ry="1625.284" transform="matrix(0.995, -0.105, 0.105, 0.995, 380.441, -93.721)" opacity="0.76" fill="url(#radial-gradient-2)" style="mix-blend-mode: screen;isolation: isolate"/>
    </g>
  </g>
</svg>
