<svg xmlns="http://www.w3.org/2000/svg" width="138.132" height="138.133" viewBox="0 0 138.132 138.133"><g transform="translate(-1746.434 -1066.434)"><g transform="translate(1790.895 1066.434)"><g transform="translate(11.416 26.023)" fill="none"><path d="M10.71,3.392a3.551,3.551,0,0,1,4.959,0l7.047,6.875a3.551,3.551,0,0,1,0,5.083l-7.047,6.875a3.551,3.551,0,0,1-4.959,0L3.663,15.35a3.551,3.551,0,0,1,0-5.083Z" stroke="none"/><path d="M 13.18949604034424 5.3824462890625 C 13.08725643157959 5.3824462890625 12.93755626678467 5.409595489501953 12.80497646331787 5.538946151733398 L 5.758125305175781 12.41394519805908 C 5.620826721191406 12.54789543151855 5.592006683349609 12.70222568511963 5.592006683349609 12.80810546875 C 5.592006683349609 12.91398525238037 5.620826721191406 13.06831550598145 5.758125305175781 13.20226573944092 L 12.80496597290039 20.0772647857666 C 12.93754577636719 20.20661544799805 13.08725643157959 20.2337646484375 13.18949604034424 20.2337646484375 C 13.29173564910889 20.2337646484375 13.44144630432129 20.20661544799805 13.57401561737061 20.07727432250977 L 20.62087631225586 13.20226573944092 C 20.75816535949707 13.06831550598145 20.78698539733887 12.91398525238037 20.78698539733887 12.80810546875 C 20.78698539733887 12.70222568511963 20.75816535949707 12.54789543151855 20.62086486816406 12.41394519805908 L 13.57400608062744 5.538934707641602 C 13.44143581390381 5.409595489501953 13.29173564910889 5.3824462890625 13.18949604034424 5.3824462890625 M 13.18949604034424 2.382442474365234 C 14.08445072174072 2.382442474365234 14.97940635681152 2.718830108642578 15.66899585723877 3.391605377197266 L 22.71584701538086 10.26660537719727 C 24.14403533935547 11.65997505187988 24.14403533935547 13.95624542236328 22.71584701538086 15.34960556030273 L 15.66899585723877 22.2246150970459 C 14.97940635681152 22.89738464355469 14.08445072174072 23.2337703704834 13.18949604034424 23.2337703704834 C 12.29454135894775 23.2337703704834 11.39958572387695 22.89738464355469 10.70999622344971 22.2246150970459 L 3.66314697265625 15.34960556030273 C 2.234956741333008 13.95623588562012 2.234956741333008 11.65997505187988 3.66314697265625 10.26660537719727 L 10.70999622344971 3.391605377197266 C 11.39958572387695 2.718830108642578 12.29454135894775 2.382442474365234 13.18949604034424 2.382442474365234 Z" stroke="none" fill="#07f"/></g><g transform="translate(11.416 -2.382)" fill="none"><path d="M10.71,3.392a3.551,3.551,0,0,1,4.959,0l7.047,6.875a3.551,3.551,0,0,1,0,5.083l-7.047,6.875a3.551,3.551,0,0,1-4.959,0L3.663,15.35a3.551,3.551,0,0,1,0-5.083Z" stroke="none"/><path d="M 13.18949604034424 5.3824462890625 C 13.08725643157959 5.3824462890625 12.93755626678467 5.409595489501953 12.80497646331787 5.538946151733398 L 5.758125305175781 12.41394519805908 C 5.620826721191406 12.54789543151855 5.592006683349609 12.70222568511963 5.592006683349609 12.80810546875 C 5.592006683349609 12.91398525238037 5.620826721191406 13.06831550598145 5.758125305175781 13.20226573944092 L 12.80496597290039 20.0772647857666 C 12.93754577636719 20.20661544799805 13.08725643157959 20.2337646484375 13.18949604034424 20.2337646484375 C 13.29173564910889 20.2337646484375 13.44144630432129 20.20661544799805 13.57401561737061 20.07727432250977 L 20.62087631225586 13.20226573944092 C 20.75816535949707 13.06831550598145 20.78698539733887 12.91398525238037 20.78698539733887 12.80810546875 C 20.78698539733887 12.70222568511963 20.75816535949707 12.54789543151855 20.62086486816406 12.41394519805908 L 13.57400608062744 5.538934707641602 C 13.44143581390381 5.409595489501953 13.29173564910889 5.3824462890625 13.18949604034424 5.3824462890625 M 13.18949604034424 2.382442474365234 C 14.08445072174072 2.382442474365234 14.97940635681152 2.718830108642578 15.66899585723877 3.391605377197266 L 22.71584701538086 10.26660537719727 C 24.14403533935547 11.65997505187988 24.14403533935547 13.95624542236328 22.71584701538086 15.34960556030273 L 15.66899585723877 22.2246150970459 C 14.97940635681152 22.89738464355469 14.08445072174072 23.2337703704834 13.18949604034424 23.2337703704834 C 12.29454135894775 23.2337703704834 11.39958572387695 22.89738464355469 10.70999622344971 22.2246150970459 L 3.66314697265625 15.34960556030273 C 2.234956741333008 13.95623588562012 2.234956741333008 11.65997505187988 3.66314697265625 10.26660537719727 L 10.70999622344971 3.391605377197266 C 11.39958572387695 2.718830108642578 12.29454135894775 2.382442474365234 13.18949604034424 2.382442474365234 Z" stroke="none" fill="#07f"/></g><g transform="translate(28.322 35.073) rotate(-90)" fill="none"><path d="M7.934,1.04a3.551,3.551,0,0,1,5.021,0l6.894,6.894a3.551,3.551,0,0,1,0,5.021l-6.894,6.894a3.551,3.551,0,0,1-5.021,0L1.04,12.955a3.551,3.551,0,0,1,0-5.021Z" stroke="none"/><path d="M 10.44435882568359 2.999992370605469 C 10.34030914306641 2.999992370605469 10.18828868865967 3.027973175048828 10.0549783706665 3.161283493041992 L 3.161289215087891 10.0549430847168 C 2.946588516235352 10.26964282989502 2.946588516235352 10.61898326873779 3.161289215087891 10.83368301391602 L 10.0549783706665 17.72734260559082 C 10.1882791519165 17.86064338684082 10.34029865264893 17.88862228393555 10.44435882568359 17.88862228393555 C 10.54841899871826 17.88862228393555 10.70043849945068 17.86064338684082 10.83374881744385 17.72733306884766 L 17.7274284362793 10.8336935043335 C 17.94212913513184 10.61898326873779 17.94212913513184 10.26964282989502 17.72744941711426 10.05495262145996 L 10.83373928070068 3.161283493041992 C 10.70042896270752 3.027973175048828 10.54840850830078 2.999992370605469 10.44435882568359 2.999992370605469 M 10.44435882568359 -1.9073486328125e-06 C 11.35305404663086 -1.9073486328125e-06 12.26174926757813 0.3466529846191406 12.95505905151367 1.039962768554688 L 19.84875869750977 7.933623313903809 C 21.2353687286377 9.320242881774902 21.2353687286377 11.56838321685791 19.84875869750977 12.95500373840332 L 12.95505905151367 19.84866333007813 C 12.26174926757813 20.54197311401367 11.35305404663086 20.88862800598145 10.44435882568359 20.88862800598145 C 9.535663604736328 20.88862800598145 8.626968383789063 20.54197311401367 7.933658599853516 19.84866333007813 L 1.039968490600586 12.95500373840332 C -0.3466510772705078 11.56838321685791 -0.3466510772705078 9.320242881774902 1.039968490600586 7.933623313903809 L 7.933658599853516 1.039962768554688 C 8.626968383789063 0.3466529846191406 9.535663604736328 -1.9073486328125e-06 10.44435882568359 -1.9073486328125e-06 Z" stroke="none" fill="#07f"/></g><g transform="translate(0 35.073) rotate(-90)" fill="none"><path d="M7.934,1.04a3.551,3.551,0,0,1,5.021,0l6.894,6.894a3.551,3.551,0,0,1,0,5.021l-6.894,6.894a3.551,3.551,0,0,1-5.021,0L1.04,12.955a3.551,3.551,0,0,1,0-5.021Z" stroke="none"/><path d="M 10.44435882568359 2.999992370605469 C 10.34030914306641 2.999992370605469 10.18828868865967 3.027973175048828 10.0549783706665 3.161283493041992 L 3.161289215087891 10.0549430847168 C 2.946588516235352 10.26964282989502 2.946588516235352 10.61898326873779 3.161289215087891 10.83368301391602 L 10.0549783706665 17.72734260559082 C 10.1882791519165 17.86064338684082 10.34029865264893 17.88862228393555 10.44435882568359 17.88862228393555 C 10.54841899871826 17.88862228393555 10.70043849945068 17.86064338684082 10.83374881744385 17.72733306884766 L 17.7274284362793 10.8336935043335 C 17.94212913513184 10.61898326873779 17.94212913513184 10.26964282989502 17.72744941711426 10.05495262145996 L 10.83373928070068 3.161283493041992 C 10.70042896270752 3.027973175048828 10.54840850830078 2.999992370605469 10.44435882568359 2.999992370605469 M 10.44435882568359 -1.9073486328125e-06 C 11.35305404663086 -1.9073486328125e-06 12.26174926757813 0.3466529846191406 12.95505905151367 1.039962768554688 L 19.84875869750977 7.933623313903809 C 21.2353687286377 9.320242881774902 21.2353687286377 11.56838321685791 19.84875869750977 12.95500373840332 L 12.95505905151367 19.84866333007813 C 12.26174926757813 20.54197311401367 11.35305404663086 20.88862800598145 10.44435882568359 20.88862800598145 C 9.535663604736328 20.88862800598145 8.626968383789063 20.54197311401367 7.933658599853516 19.84866333007813 L 1.039968490600586 12.95500373840332 C -0.3466510772705078 11.56838321685791 -0.3466510772705078 9.320242881774902 1.039968490600586 7.933623313903809 L 7.933658599853516 1.039962768554688 C 8.626968383789063 0.3466529846191406 9.535663604736328 -1.9073486328125e-06 10.44435882568359 -1.9073486328125e-06 Z" stroke="none" fill="#07f"/></g></g><g transform="translate(1790.895 1155.31)"><g transform="translate(11.416 26.023)" fill="none"><path d="M10.71,3.392a3.551,3.551,0,0,1,4.959,0l7.047,6.875a3.551,3.551,0,0,1,0,5.083l-7.047,6.875a3.551,3.551,0,0,1-4.959,0L3.663,15.35a3.551,3.551,0,0,1,0-5.083Z" stroke="none"/><path d="M 13.18949604034424 5.3824462890625 C 13.08725643157959 5.3824462890625 12.93755626678467 5.409595489501953 12.80497646331787 5.538946151733398 L 5.758125305175781 12.41394519805908 C 5.620826721191406 12.54789543151855 5.592006683349609 12.70222568511963 5.592006683349609 12.80810546875 C 5.592006683349609 12.91398525238037 5.620826721191406 13.06831550598145 5.758125305175781 13.20226573944092 L 12.80496597290039 20.0772647857666 C 12.93754577636719 20.20661544799805 13.08725643157959 20.2337646484375 13.18949604034424 20.2337646484375 C 13.29173564910889 20.2337646484375 13.44144630432129 20.20661544799805 13.57401561737061 20.07727432250977 L 20.62087631225586 13.20226573944092 C 20.75816535949707 13.06831550598145 20.78698539733887 12.91398525238037 20.78698539733887 12.80810546875 C 20.78698539733887 12.70222568511963 20.75816535949707 12.54789543151855 20.62086486816406 12.41394519805908 L 13.57400608062744 5.538934707641602 C 13.44143581390381 5.409595489501953 13.29173564910889 5.3824462890625 13.18949604034424 5.3824462890625 M 13.18949604034424 2.382442474365234 C 14.08445072174072 2.382442474365234 14.97940635681152 2.718830108642578 15.66899585723877 3.391605377197266 L 22.71584701538086 10.26660537719727 C 24.14403533935547 11.65997505187988 24.14403533935547 13.95624542236328 22.71584701538086 15.34960556030273 L 15.66899585723877 22.2246150970459 C 14.97940635681152 22.89738464355469 14.08445072174072 23.2337703704834 13.18949604034424 23.2337703704834 C 12.29454135894775 23.2337703704834 11.39958572387695 22.89738464355469 10.70999622344971 22.2246150970459 L 3.66314697265625 15.34960556030273 C 2.234956741333008 13.95623588562012 2.234956741333008 11.65997505187988 3.66314697265625 10.26660537719727 L 10.70999622344971 3.391605377197266 C 11.39958572387695 2.718830108642578 12.29454135894775 2.382442474365234 13.18949604034424 2.382442474365234 Z" stroke="none" fill="#07f"/></g><g transform="translate(11.416 -2.382)" fill="none"><path d="M10.71,3.392a3.551,3.551,0,0,1,4.959,0l7.047,6.875a3.551,3.551,0,0,1,0,5.083l-7.047,6.875a3.551,3.551,0,0,1-4.959,0L3.663,15.35a3.551,3.551,0,0,1,0-5.083Z" stroke="none"/><path d="M 13.18949604034424 5.3824462890625 C 13.08725643157959 5.3824462890625 12.93755626678467 5.409595489501953 12.80497646331787 5.538946151733398 L 5.758125305175781 12.41394519805908 C 5.620826721191406 12.54789543151855 5.592006683349609 12.70222568511963 5.592006683349609 12.80810546875 C 5.592006683349609 12.91398525238037 5.620826721191406 13.06831550598145 5.758125305175781 13.20226573944092 L 12.80496597290039 20.0772647857666 C 12.93754577636719 20.20661544799805 13.08725643157959 20.2337646484375 13.18949604034424 20.2337646484375 C 13.29173564910889 20.2337646484375 13.44144630432129 20.20661544799805 13.57401561737061 20.07727432250977 L 20.62087631225586 13.20226573944092 C 20.75816535949707 13.06831550598145 20.78698539733887 12.91398525238037 20.78698539733887 12.80810546875 C 20.78698539733887 12.70222568511963 20.75816535949707 12.54789543151855 20.62086486816406 12.41394519805908 L 13.57400608062744 5.538934707641602 C 13.44143581390381 5.409595489501953 13.29173564910889 5.3824462890625 13.18949604034424 5.3824462890625 M 13.18949604034424 2.382442474365234 C 14.08445072174072 2.382442474365234 14.97940635681152 2.718830108642578 15.66899585723877 3.391605377197266 L 22.71584701538086 10.26660537719727 C 24.14403533935547 11.65997505187988 24.14403533935547 13.95624542236328 22.71584701538086 15.34960556030273 L 15.66899585723877 22.2246150970459 C 14.97940635681152 22.89738464355469 14.08445072174072 23.2337703704834 13.18949604034424 23.2337703704834 C 12.29454135894775 23.2337703704834 11.39958572387695 22.89738464355469 10.70999622344971 22.2246150970459 L 3.66314697265625 15.34960556030273 C 2.234956741333008 13.95623588562012 2.234956741333008 11.65997505187988 3.66314697265625 10.26660537719727 L 10.70999622344971 3.391605377197266 C 11.39958572387695 2.718830108642578 12.29454135894775 2.382442474365234 13.18949604034424 2.382442474365234 Z" stroke="none" fill="#07f"/></g><g transform="translate(28.322 35.073) rotate(-90)" fill="none"><path d="M7.934,1.04a3.551,3.551,0,0,1,5.021,0l6.894,6.894a3.551,3.551,0,0,1,0,5.021l-6.894,6.894a3.551,3.551,0,0,1-5.021,0L1.04,12.955a3.551,3.551,0,0,1,0-5.021Z" stroke="none"/><path d="M 10.44435882568359 2.999992370605469 C 10.34030914306641 2.999992370605469 10.18828868865967 3.027973175048828 10.0549783706665 3.161283493041992 L 3.161289215087891 10.0549430847168 C 2.946588516235352 10.26964282989502 2.946588516235352 10.61898326873779 3.161289215087891 10.83368301391602 L 10.0549783706665 17.72734260559082 C 10.1882791519165 17.86064338684082 10.34029865264893 17.88862228393555 10.44435882568359 17.88862228393555 C 10.54841899871826 17.88862228393555 10.70043849945068 17.86064338684082 10.83374881744385 17.72733306884766 L 17.7274284362793 10.8336935043335 C 17.94212913513184 10.61898326873779 17.94212913513184 10.26964282989502 17.72744941711426 10.05495262145996 L 10.83373928070068 3.161283493041992 C 10.70042896270752 3.027973175048828 10.54840850830078 2.999992370605469 10.44435882568359 2.999992370605469 M 10.44435882568359 -1.9073486328125e-06 C 11.35305404663086 -1.9073486328125e-06 12.26174926757813 0.3466529846191406 12.95505905151367 1.039962768554688 L 19.84875869750977 7.933623313903809 C 21.2353687286377 9.320242881774902 21.2353687286377 11.56838321685791 19.84875869750977 12.95500373840332 L 12.95505905151367 19.84866333007813 C 12.26174926757813 20.54197311401367 11.35305404663086 20.88862800598145 10.44435882568359 20.88862800598145 C 9.535663604736328 20.88862800598145 8.626968383789063 20.54197311401367 7.933658599853516 19.84866333007813 L 1.039968490600586 12.95500373840332 C -0.3466510772705078 11.56838321685791 -0.3466510772705078 9.320242881774902 1.039968490600586 7.933623313903809 L 7.933658599853516 1.039962768554688 C 8.626968383789063 0.3466529846191406 9.535663604736328 -1.9073486328125e-06 10.44435882568359 -1.9073486328125e-06 Z" stroke="none" fill="#07f"/></g><g transform="translate(0 35.073) rotate(-90)" fill="none"><path d="M7.934,1.04a3.551,3.551,0,0,1,5.021,0l6.894,6.894a3.551,3.551,0,0,1,0,5.021l-6.894,6.894a3.551,3.551,0,0,1-5.021,0L1.04,12.955a3.551,3.551,0,0,1,0-5.021Z" stroke="none"/><path d="M 10.44435882568359 2.999992370605469 C 10.34030914306641 2.999992370605469 10.18828868865967 3.027973175048828 10.0549783706665 3.161283493041992 L 3.161289215087891 10.0549430847168 C 2.946588516235352 10.26964282989502 2.946588516235352 10.61898326873779 3.161289215087891 10.83368301391602 L 10.0549783706665 17.72734260559082 C 10.1882791519165 17.86064338684082 10.34029865264893 17.88862228393555 10.44435882568359 17.88862228393555 C 10.54841899871826 17.88862228393555 10.70043849945068 17.86064338684082 10.83374881744385 17.72733306884766 L 17.7274284362793 10.8336935043335 C 17.94212913513184 10.61898326873779 17.94212913513184 10.26964282989502 17.72744941711426 10.05495262145996 L 10.83373928070068 3.161283493041992 C 10.70042896270752 3.027973175048828 10.54840850830078 2.999992370605469 10.44435882568359 2.999992370605469 M 10.44435882568359 -1.9073486328125e-06 C 11.35305404663086 -1.9073486328125e-06 12.26174926757813 0.3466529846191406 12.95505905151367 1.039962768554688 L 19.84875869750977 7.933623313903809 C 21.2353687286377 9.320242881774902 21.2353687286377 11.56838321685791 19.84875869750977 12.95500373840332 L 12.95505905151367 19.84866333007813 C 12.26174926757813 20.54197311401367 11.35305404663086 20.88862800598145 10.44435882568359 20.88862800598145 C 9.535663604736328 20.88862800598145 8.626968383789063 20.54197311401367 7.933658599853516 19.84866333007813 L 1.039968490600586 12.95500373840332 C -0.3466510772705078 11.56838321685791 -0.3466510772705078 9.320242881774902 1.039968490600586 7.933623313903809 L 7.933658599853516 1.039962768554688 C 8.626968383789063 0.3466529846191406 9.535663604736328 -1.9073486328125e-06 10.44435882568359 -1.9073486328125e-06 Z" stroke="none" fill="#07f"/></g></g><circle cx="8" cy="8" r="8" transform="translate(1808 1128)" fill="#07f"/><g transform="translate(1746.434 1160.105) rotate(-90)"><g transform="translate(14.008 28.405)" fill="none"><path d="M8.118,1.009a3.551,3.551,0,0,1,4.959,0l7.047,6.875a3.551,3.551,0,0,1,0,5.083l-7.047,6.875a3.551,3.551,0,0,1-4.959,0L1.071,12.967a3.551,3.551,0,0,1,0-5.083Z" stroke="none"/><path d="M 10.59749889373779 3.000001907348633 C 10.49525833129883 3.000001907348633 10.34555816650391 3.027153015136719 10.21296882629395 3.156501770019531 L 3.166118621826172 10.03149223327637 C 3.028818130493164 10.16545295715332 2.999998092651367 10.31977272033691 2.999998092651367 10.42565250396729 C 2.999998092651367 10.53152275085449 3.028818130493164 10.68584251403809 3.166128158569336 10.81980228424072 L 10.21296882629395 17.69479179382324 C 10.34555816650391 17.82415199279785 10.49526882171631 17.85130310058594 10.59750843048096 17.85130310058594 C 10.69974803924561 17.85130310058594 10.84944820404053 17.82415199279785 10.9820384979248 17.69479179382324 L 18.02889823913574 10.8198127746582 C 18.16619873046875 10.68585205078125 18.19501876831055 10.53153228759766 18.19501876831055 10.42565250396729 C 18.19501876831055 10.31977272033691 18.16619873046875 10.16545295715332 18.02889823913574 10.03150272369385 L 10.98201847076416 3.156492233276367 C 10.84944820404053 3.027153015136719 10.69973850250244 3.000001907348633 10.59749889373779 3.000001907348633 M 10.59750366210938 0 C 11.49246120452881 0 12.38741874694824 0.3363876342773438 13.07700824737549 1.009162902832031 L 20.12386894226074 7.884152412414551 C 21.55206871032715 9.277522087097168 21.55206871032715 11.5737829208374 20.12386894226074 12.96715259552002 L 13.07700824737549 19.84214210510254 C 12.38741874694824 20.51491737365723 11.49246311187744 20.85130500793457 10.59750747680664 20.85130500793457 C 9.702550888061523 20.85130500793457 8.80759334564209 20.51491737365723 8.117998123168945 19.84214210510254 L 1.071147918701172 12.96714210510254 C -0.3570518493652344 11.5737829208374 -0.3570518493652344 9.277522087097168 1.071147918701172 7.884152412414551 L 8.117998123168945 1.009162902832031 C 8.807588577270508 0.3363876342773438 9.702546119689941 0 10.59750366210938 0 Z" stroke="none" fill="#07f"/></g><g transform="translate(14.008)" fill="none"><path d="M8.118,1.009a3.551,3.551,0,0,1,4.959,0l7.047,6.875a3.551,3.551,0,0,1,0,5.083l-7.047,6.875a3.551,3.551,0,0,1-4.959,0L1.071,12.967a3.551,3.551,0,0,1,0-5.083Z" stroke="none"/><path d="M 10.59749889373779 3.000001907348633 C 10.49525833129883 3.000001907348633 10.34555816650391 3.027153015136719 10.21296882629395 3.156501770019531 L 3.166118621826172 10.03149223327637 C 3.028818130493164 10.16545295715332 2.999998092651367 10.31977272033691 2.999998092651367 10.42565250396729 C 2.999998092651367 10.53152275085449 3.028818130493164 10.68584251403809 3.166128158569336 10.81980228424072 L 10.21296882629395 17.69479179382324 C 10.34555816650391 17.82415199279785 10.49526882171631 17.85130310058594 10.59750843048096 17.85130310058594 C 10.69974803924561 17.85130310058594 10.84944820404053 17.82415199279785 10.9820384979248 17.69479179382324 L 18.02889823913574 10.8198127746582 C 18.16619873046875 10.68585205078125 18.19501876831055 10.53153228759766 18.19501876831055 10.42565250396729 C 18.19501876831055 10.31977272033691 18.16619873046875 10.16545295715332 18.02889823913574 10.03150272369385 L 10.98201847076416 3.156492233276367 C 10.84944820404053 3.027153015136719 10.69973850250244 3.000001907348633 10.59749889373779 3.000001907348633 M 10.59750366210938 0 C 11.49246120452881 0 12.38741874694824 0.3363876342773438 13.07700824737549 1.009162902832031 L 20.12386894226074 7.884152412414551 C 21.55206871032715 9.277522087097168 21.55206871032715 11.5737829208374 20.12386894226074 12.96715259552002 L 13.07700824737549 19.84214210510254 C 12.38741874694824 20.51491737365723 11.49246311187744 20.85130500793457 10.59750747680664 20.85130500793457 C 9.702550888061523 20.85130500793457 8.80759334564209 20.51491737365723 8.117998123168945 19.84214210510254 L 1.071147918701172 12.96714210510254 C -0.3570518493652344 11.5737829208374 -0.3570518493652344 9.277522087097168 1.071147918701172 7.884152412414551 L 8.117998123168945 1.009162902832031 C 8.807588577270508 0.3363876342773438 9.702546119689941 0 10.59750366210938 0 Z" stroke="none" fill="#07f"/></g><g transform="translate(28.322 35.073) rotate(-90)" fill="none"><path d="M7.934,1.04a3.551,3.551,0,0,1,5.021,0l6.894,6.894a3.551,3.551,0,0,1,0,5.021l-6.894,6.894a3.551,3.551,0,0,1-5.021,0L1.04,12.955a3.551,3.551,0,0,1,0-5.021Z" stroke="none"/><path d="M 10.44434547424316 2.999996185302734 C 10.34029579162598 2.999996185302734 10.18828582763672 3.027975082397461 10.05497550964355 3.161285400390625 L 3.161285400390625 10.05495548248291 C 2.946584701538086 10.26965522766113 2.946584701538086 10.61899566650391 3.161285400390625 10.83369541168213 L 10.0549955368042 17.72737503051758 C 10.18827533721924 17.86066627502441 10.34029579162598 17.88864517211914 10.44434547424316 17.88864517211914 C 10.54839515686035 17.88864517211914 10.70041561126709 17.86066627502441 10.83371543884277 17.72736549377441 L 17.7274055480957 10.83369541168213 C 17.94210624694824 10.61899566650391 17.94210624694824 10.26965522766113 17.7274055480957 10.05495548248291 L 10.83371543884277 3.161285400390625 C 10.70040512084961 3.027975082397461 10.54839515686035 2.999996185302734 10.44434547424316 2.999996185302734 M 10.44434547424316 0 C 11.35303783416748 0 12.2617301940918 0.3466548919677734 12.95503616333008 1.03996467590332 L 19.84872627258301 7.933635711669922 C 21.2353458404541 9.320255279541016 21.2353458404541 11.56839561462402 19.84872627258301 12.95501518249512 L 12.95503616333008 19.84868621826172 C 12.2617301940918 20.54199600219727 11.35303783416748 20.88865089416504 10.44434547424316 20.88865089416504 C 9.535653114318848 20.88865089416504 8.626960754394531 20.54199600219727 7.933655738830566 19.84868621826172 L 1.03996467590332 12.95501518249512 C -0.3466548919677734 11.56839561462402 -0.3466548919677734 9.320255279541016 1.03996467590332 7.933635711669922 L 7.933655738830566 1.03996467590332 C 8.626960754394531 0.3466548919677734 9.535653114318848 0 10.44434547424316 0 Z" stroke="none" fill="#07f"/></g><g transform="translate(0 35.073) rotate(-90)" fill="none"><path d="M7.934,1.04a3.551,3.551,0,0,1,5.021,0l6.894,6.894a3.551,3.551,0,0,1,0,5.021l-6.894,6.894a3.551,3.551,0,0,1-5.021,0L1.04,12.955a3.551,3.551,0,0,1,0-5.021Z" stroke="none"/><path d="M 10.44434547424316 2.999996185302734 C 10.34029579162598 2.999996185302734 10.18828582763672 3.027975082397461 10.05497550964355 3.161285400390625 L 3.161285400390625 10.05495548248291 C 2.946584701538086 10.26965522766113 2.946584701538086 10.61899566650391 3.161285400390625 10.83369541168213 L 10.0549955368042 17.72737503051758 C 10.18827533721924 17.86066627502441 10.34029579162598 17.88864517211914 10.44434547424316 17.88864517211914 C 10.54839515686035 17.88864517211914 10.70041561126709 17.86066627502441 10.83371543884277 17.72736549377441 L 17.7274055480957 10.83369541168213 C 17.94210624694824 10.61899566650391 17.94210624694824 10.26965522766113 17.7274055480957 10.05495548248291 L 10.83371543884277 3.161285400390625 C 10.70040512084961 3.027975082397461 10.54839515686035 2.999996185302734 10.44434547424316 2.999996185302734 M 10.44434547424316 0 C 11.35303783416748 0 12.2617301940918 0.3466548919677734 12.95503616333008 1.03996467590332 L 19.84872627258301 7.933635711669922 C 21.2353458404541 9.320255279541016 21.2353458404541 11.56839561462402 19.84872627258301 12.95501518249512 L 12.95503616333008 19.84868621826172 C 12.2617301940918 20.54199600219727 11.35303783416748 20.88865089416504 10.44434547424316 20.88865089416504 C 9.535653114318848 20.88865089416504 8.626960754394531 20.54199600219727 7.933655738830566 19.84868621826172 L 1.03996467590332 12.95501518249512 C -0.3466548919677734 11.56839561462402 -0.3466548919677734 9.320255279541016 1.03996467590332 7.933635711669922 L 7.933655738830566 1.03996467590332 C 8.626960754394531 0.3466548919677734 9.535653114318848 0 10.44434547424316 0 Z" stroke="none" fill="#07f"/></g></g><g transform="translate(1835.31 1160.105) rotate(-90)"><g transform="translate(14.008 28.405)" fill="none"><path d="M8.118,1.009a3.551,3.551,0,0,1,4.959,0l7.047,6.875a3.551,3.551,0,0,1,0,5.083l-7.047,6.875a3.551,3.551,0,0,1-4.959,0L1.071,12.967a3.551,3.551,0,0,1,0-5.083Z" stroke="none"/><path d="M 10.59749889373779 3.000001907348633 C 10.49525833129883 3.000001907348633 10.34555816650391 3.027153015136719 10.21296882629395 3.156501770019531 L 3.166118621826172 10.03149223327637 C 3.028818130493164 10.16545295715332 2.999998092651367 10.31977272033691 2.999998092651367 10.42565250396729 C 2.999998092651367 10.53152275085449 3.028818130493164 10.68584251403809 3.166128158569336 10.81980228424072 L 10.21296882629395 17.69479179382324 C 10.34555816650391 17.82415199279785 10.49526882171631 17.85130310058594 10.59750843048096 17.85130310058594 C 10.69974803924561 17.85130310058594 10.84944820404053 17.82415199279785 10.9820384979248 17.69479179382324 L 18.02889823913574 10.8198127746582 C 18.16619873046875 10.68585205078125 18.19501876831055 10.53153228759766 18.19501876831055 10.42565250396729 C 18.19501876831055 10.31977272033691 18.16619873046875 10.16545295715332 18.02889823913574 10.03150272369385 L 10.98201847076416 3.156492233276367 C 10.84944820404053 3.027153015136719 10.69973850250244 3.000001907348633 10.59749889373779 3.000001907348633 M 10.59750366210938 0 C 11.49246120452881 0 12.38741874694824 0.3363876342773438 13.07700824737549 1.009162902832031 L 20.12386894226074 7.884152412414551 C 21.55206871032715 9.277522087097168 21.55206871032715 11.5737829208374 20.12386894226074 12.96715259552002 L 13.07700824737549 19.84214210510254 C 12.38741874694824 20.51491737365723 11.49246311187744 20.85130500793457 10.59750747680664 20.85130500793457 C 9.702550888061523 20.85130500793457 8.80759334564209 20.51491737365723 8.117998123168945 19.84214210510254 L 1.071147918701172 12.96714210510254 C -0.3570518493652344 11.5737829208374 -0.3570518493652344 9.277522087097168 1.071147918701172 7.884152412414551 L 8.117998123168945 1.009162902832031 C 8.807588577270508 0.3363876342773438 9.702546119689941 0 10.59750366210938 0 Z" stroke="none" fill="#07f"/></g><g transform="translate(14.008)" fill="none"><path d="M8.118,1.009a3.551,3.551,0,0,1,4.959,0l7.047,6.875a3.551,3.551,0,0,1,0,5.083l-7.047,6.875a3.551,3.551,0,0,1-4.959,0L1.071,12.967a3.551,3.551,0,0,1,0-5.083Z" stroke="none"/><path d="M 10.59749889373779 3.000001907348633 C 10.49525833129883 3.000001907348633 10.34555816650391 3.027153015136719 10.21296882629395 3.156501770019531 L 3.166118621826172 10.03149223327637 C 3.028818130493164 10.16545295715332 2.999998092651367 10.31977272033691 2.999998092651367 10.42565250396729 C 2.999998092651367 10.53152275085449 3.028818130493164 10.68584251403809 3.166128158569336 10.81980228424072 L 10.21296882629395 17.69479179382324 C 10.34555816650391 17.82415199279785 10.49526882171631 17.85130310058594 10.59750843048096 17.85130310058594 C 10.69974803924561 17.85130310058594 10.84944820404053 17.82415199279785 10.9820384979248 17.69479179382324 L 18.02889823913574 10.8198127746582 C 18.16619873046875 10.68585205078125 18.19501876831055 10.53153228759766 18.19501876831055 10.42565250396729 C 18.19501876831055 10.31977272033691 18.16619873046875 10.16545295715332 18.02889823913574 10.03150272369385 L 10.98201847076416 3.156492233276367 C 10.84944820404053 3.027153015136719 10.69973850250244 3.000001907348633 10.59749889373779 3.000001907348633 M 10.59750366210938 0 C 11.49246120452881 0 12.38741874694824 0.3363876342773438 13.07700824737549 1.009162902832031 L 20.12386894226074 7.884152412414551 C 21.55206871032715 9.277522087097168 21.55206871032715 11.5737829208374 20.12386894226074 12.96715259552002 L 13.07700824737549 19.84214210510254 C 12.38741874694824 20.51491737365723 11.49246311187744 20.85130500793457 10.59750747680664 20.85130500793457 C 9.702550888061523 20.85130500793457 8.80759334564209 20.51491737365723 8.117998123168945 19.84214210510254 L 1.071147918701172 12.96714210510254 C -0.3570518493652344 11.5737829208374 -0.3570518493652344 9.277522087097168 1.071147918701172 7.884152412414551 L 8.117998123168945 1.009162902832031 C 8.807588577270508 0.3363876342773438 9.702546119689941 0 10.59750366210938 0 Z" stroke="none" fill="#07f"/></g><g transform="translate(28.322 35.073) rotate(-90)" fill="none"><path d="M7.934,1.04a3.551,3.551,0,0,1,5.021,0l6.894,6.894a3.551,3.551,0,0,1,0,5.021l-6.894,6.894a3.551,3.551,0,0,1-5.021,0L1.04,12.955a3.551,3.551,0,0,1,0-5.021Z" stroke="none"/><path d="M 10.44434547424316 2.999996185302734 C 10.34029579162598 2.999996185302734 10.18828582763672 3.027975082397461 10.05497550964355 3.161285400390625 L 3.161285400390625 10.05495548248291 C 2.946584701538086 10.26965522766113 2.946584701538086 10.61899566650391 3.161285400390625 10.83369541168213 L 10.0549955368042 17.72737503051758 C 10.18827533721924 17.86066627502441 10.34029579162598 17.88864517211914 10.44434547424316 17.88864517211914 C 10.54839515686035 17.88864517211914 10.70041561126709 17.86066627502441 10.83371543884277 17.72736549377441 L 17.7274055480957 10.83369541168213 C 17.94210624694824 10.61899566650391 17.94210624694824 10.26965522766113 17.7274055480957 10.05495548248291 L 10.83371543884277 3.161285400390625 C 10.70040512084961 3.027975082397461 10.54839515686035 2.999996185302734 10.44434547424316 2.999996185302734 M 10.44434547424316 0 C 11.35303783416748 0 12.2617301940918 0.3466548919677734 12.95503616333008 1.03996467590332 L 19.84872627258301 7.933635711669922 C 21.2353458404541 9.320255279541016 21.2353458404541 11.56839561462402 19.84872627258301 12.95501518249512 L 12.95503616333008 19.84868621826172 C 12.2617301940918 20.54199600219727 11.35303783416748 20.88865089416504 10.44434547424316 20.88865089416504 C 9.535653114318848 20.88865089416504 8.626960754394531 20.54199600219727 7.933655738830566 19.84868621826172 L 1.03996467590332 12.95501518249512 C -0.3466548919677734 11.56839561462402 -0.3466548919677734 9.320255279541016 1.03996467590332 7.933635711669922 L 7.933655738830566 1.03996467590332 C 8.626960754394531 0.3466548919677734 9.535653114318848 0 10.44434547424316 0 Z" stroke="none" fill="#07f"/></g><g transform="translate(0 35.073) rotate(-90)" fill="none"><path d="M7.934,1.04a3.551,3.551,0,0,1,5.021,0l6.894,6.894a3.551,3.551,0,0,1,0,5.021l-6.894,6.894a3.551,3.551,0,0,1-5.021,0L1.04,12.955a3.551,3.551,0,0,1,0-5.021Z" stroke="none"/><path d="M 10.44434547424316 2.999996185302734 C 10.34029579162598 2.999996185302734 10.18828582763672 3.027975082397461 10.05497550964355 3.161285400390625 L 3.161285400390625 10.05495548248291 C 2.946584701538086 10.26965522766113 2.946584701538086 10.61899566650391 3.161285400390625 10.83369541168213 L 10.0549955368042 17.72737503051758 C 10.18827533721924 17.86066627502441 10.34029579162598 17.88864517211914 10.44434547424316 17.88864517211914 C 10.54839515686035 17.88864517211914 10.70041561126709 17.86066627502441 10.83371543884277 17.72736549377441 L 17.7274055480957 10.83369541168213 C 17.94210624694824 10.61899566650391 17.94210624694824 10.26965522766113 17.7274055480957 10.05495548248291 L 10.83371543884277 3.161285400390625 C 10.70040512084961 3.027975082397461 10.54839515686035 2.999996185302734 10.44434547424316 2.999996185302734 M 10.44434547424316 0 C 11.35303783416748 0 12.2617301940918 0.3466548919677734 12.95503616333008 1.03996467590332 L 19.84872627258301 7.933635711669922 C 21.2353458404541 9.320255279541016 21.2353458404541 11.56839561462402 19.84872627258301 12.95501518249512 L 12.95503616333008 19.84868621826172 C 12.2617301940918 20.54199600219727 11.35303783416748 20.88865089416504 10.44434547424316 20.88865089416504 C 9.535653114318848 20.88865089416504 8.626960754394531 20.54199600219727 7.933655738830566 19.84868621826172 L 1.03996467590332 12.95501518249512 C -0.3466548919677734 11.56839561462402 -0.3466548919677734 9.320255279541016 1.03996467590332 7.933635711669922 L 7.933655738830566 1.03996467590332 C 8.626960754394531 0.3466548919677734 9.535653114318848 0 10.44434547424316 0 Z" stroke="none" fill="#07f"/></g></g></g></svg>